<ttFont>
        <CharString name=".notdef">
          -366 endchar
        </CharString>
        <CharString name="A">
          47 21 -21 175.5 65.5 317 83 hstem
          14 542 vstem
          556 hmoveto
          -214 641 rlineto
          -93 hlineto
          -235 -641 rlineto
          80 hlineto
          16 68 39 106 130 3 144 -3 36 -110 15 -64 rlineto
          -73 242 rmoveto
          -115 -2 -112 2 116 316 rlineto
          7 hlineto
          endchar
        </CharString>
        <CharString name="AE">
          276 0 65 493 83 -66 66 -8 8 hstemhm
          684 9 hintmask 10101000
          792 62 rmoveto
          -6 8 -164 -5 rlineto
          -113 hlineto
          -31 211 217 43 -4 58 -7 6 -215 -45 -35 237 rlineto
          97 hlineto
          162 -4 rlineto
          hintmask 10011000
          8 62 -6 8 rlineto
          hintmask 10101000
          -373 hlineto
          -338 -641 rlineto
          83 hlineto
          25 68 73 137 238 54 29 -195 5 -64 rlineto
          348 hlineto
          -392 322 rmoveto
          -188 -41 rlineto
          hintmask 11001000
          147 277 rlineto
          6 hlineto
          endchar
        </CharString>
        <CharString name="AEacute">
          276 0 65 493 83 -66 66 -8 8 hstemhm
          -15 807 hintmask 10101000
          428 724 rmoveto
          10 -4 64 27 62 27 69 32 rlinecurve
          2 8 -20 47 -9 2 -68 -40 -61 -32 -63 -31 rlinecurve
          378 -698 rmoveto
          -5 8 -164 -5 rlineto
          -113 hlineto
          -31 211 216 43 -5 58 -6 6 -214 -45 -35 237 rlineto
          97 hlineto
          162 -4 rlineto
          hintmask 10011000
          8 62 -6 8 rlineto
          hintmask 10101000
          -373 hlineto
          -338 -641 rlineto
          83 hlineto
          25 68 73 138 238 53 29 -195 5 -64 rlineto
          348 hlineto
          -392 322 rmoveto
          -188 -41 rlineto
          hintmask 11001000
          147 277 rlineto
          6 hlineto
          endchar
        </CharString>
        <CharString name="Aacute">
          47 21 -21 175.5 65.5 317 83 hstem
          14 543 vstem
          220 724 rmoveto
          10 -4 64 27 62 27 69 32 rlinecurve
          2 8 -20 47 -9 2 -68 -40 -61 -32 -63 -31 rlinecurve
          351 -760 rmoveto
          -214 641 rlineto
          -93 hlineto
          -236 -641 rlineto
          80 hlineto
          16 68 39 106 130 3 145 -3 36 -110 14 -64 rlineto
          -73 242 rmoveto
          -115 -2 -112 2 116 316 rlineto
          7 hlineto
          endchar
        </CharString>
        <CharString name="Abreve">
          47 21 -21 175.5 65.5 317 83 83 57 hstem
          14 543 vstem
          288 724 rmoveto
          62 46 32 58 21 hvcurveto
          -23 28 rlineto
          -12 hlineto
          -38 -15 -31 -23 -45 hhcurveto
          -47 -32 23 38 -14 hvcurveto
          -12 hlineto
          -22 -28 rlineto
          -58 18 44 -32 62 hhcurveto
          269 -724 rmoveto
          -214 641 rlineto
          -93 hlineto
          -236 -641 rlineto
          80 hlineto
          16 68 39 106 130 3 145 -3 36 -110 14 -64 rlineto
          -73 242 rmoveto
          -115 -2 -112 2 116 316 rlineto
          7 hlineto
          endchar
        </CharString>
        <CharString name="Abreveacute">
          47 21 -21 175.5 65.5 317 83 63 57 hstem
          14 543 vstem
          278 817 rmoveto
          7 hlineto
          34 33 32 32 32 33 -1 8 rcurveline
          -37 26 -7 -1 -29 -38 -29 -35 -30 -36 rlinecurve
          38 -135 rmoveto
          62 46 32 58 21 hvcurveto
          -23 28 rlineto
          -12 hlineto
          -38 -15 -31 -23 -45 hhcurveto
          -47 -32 23 38 -14 hvcurveto
          -12 hlineto
          -22 -28 rlineto
          -58 18 44 -32 62 hhcurveto
          269 -704 rmoveto
          -214 641 rlineto
          -93 hlineto
          -236 -641 rlineto
          80 hlineto
          16 68 39 106 130 3 145 -3 36 -110 14 -64 rlineto
          -73 242 rmoveto
          -115 -2 -112 2 116 316 rlineto
          7 hlineto
          endchar
        </CharString>
        <CharString name="Abrevedotbelow">
          47 -163 93 91 -21 175.5 65.5 317 83 82 58 hstem
          240 91 vstem
          288 723 rmoveto
          62 46 33 58 20 hvcurveto
          -22 27 rlineto
          -12 hlineto
          -38 -15 -32 -22 -44 hhcurveto
          -47 -33 22 38 -13 hvcurveto
          -13 hlineto
          -22 -27 rlineto
          -58 19 44 -33 62 hhcurveto
          269 -723 rmoveto
          -214 641 rlineto
          -93 hlineto
          -236 -641 rlineto
          80 hlineto
          16 68 39 106 130 3 145 -3 36 -110 14 -64 rlineto
          -73 242 rmoveto
          -115 -2 -112 2 116 316 rlineto
          7 hlineto
          -10 -628 rmoveto
          -29 -18 -19 -28 -29 16 -17 28 29 18 19 29 28 -17 17 -27 hvcurveto
          endchar
        </CharString>
        <CharString name="Abrevegrave">
          47 21 -21 175.5 65.5 317 83 63 57 hstem
          14 543 vstem
          300 817 rmoveto
          28 22 -31 36 -28 35 -29 38 rlinecurve
          -8 1 -37 -26 rlineto
          -8 vlineto
          32 -33 32 -32 33 -33 rrcurveto
          -4 -113 rmoveto
          62 46 32 58 21 hvcurveto
          -23 28 rlineto
          -12 hlineto
          -38 -15 -31 -23 -45 hhcurveto
          -47 -32 23 38 -14 hvcurveto
          -12 hlineto
          -22 -28 rlineto
          -58 18 44 -32 62 hhcurveto
          269 -704 rmoveto
          -214 641 rlineto
          -93 hlineto
          -236 -641 rlineto
          80 hlineto
          16 68 39 106 130 3 145 -3 36 -110 14 -64 rlineto
          -73 242 rmoveto
          -115 -2 -112 2 116 316 rlineto
          7 hlineto
          endchar
        </CharString>
        <CharString name="Abrevehookabove">
          47 21 -21 175.5 65.5 317 83 63 57 193 44 hstem
          305 49 vstem
          279 954 rmoveto
          16 10 -7 -14 -17 -18 -25 -32 -23 hvcurveto
          32 -55 35 19 -20 34 rlineto
          36 30 16 21 24 vvcurveto
          32 -27 25 -36 -29 -32 -16 -26 -25 vhcurveto
          16 -26 rlineto
          16 19 22 8 17 hhcurveto
          9 -250 rmoveto
          62 46 32 58 21 hvcurveto
          -23 28 rlineto
          -12 hlineto
          -38 -15 -31 -23 -45 hhcurveto
          -47 -32 23 38 -14 hvcurveto
          -12 hlineto
          -22 -28 rlineto
          -58 18 44 -32 62 hhcurveto
          269 -704 rmoveto
          -214 641 rlineto
          -93 hlineto
          -236 -641 rlineto
          80 hlineto
          16 68 39 106 130 3 145 -3 36 -110 14 -64 rlineto
          -73 242 rmoveto
          -115 -2 -112 2 116 316 rlineto
          7 hlineto
          endchar
        </CharString>
        <CharString name="Abrevetilde">
          47 21 -21 175.5 65.5 317 83 64 56 139 55 hstem
          14 543 vstem
          169 855 rmoveto
          8 hlineto
          24 23 15 21 15 hhcurveto
          24 82 -32 -4 39 hvcurveto
          9 3 57 67 rlineto
          8 vlineto
          -22 24 rlineto
          -8 hlineto
          -25 -24 -15 -20 -14 hhcurveto
          -24 -82 31 4 -40 hvcurveto
          -9 -2 -57 -67 rlineto
          -8 vlineto
          146 -118 rmoveto
          -45 -32 21 38 -13 hvcurveto
          -12 hlineto
          -22 -27 rlineto
          -57 18 43 -31 61 hhcurveto
          60 45 31 57 20 hvcurveto
          -21 27 rlineto
          -12 hlineto
          -38 -15 -31 -21 -44 hhcurveto
          265 -761 rmoveto
          -214 641 rlineto
          -93 hlineto
          -236 -641 rlineto
          80 hlineto
          16 68 39 106 130 3 145 -3 36 -110 14 -64 rlineto
          -73 242 rmoveto
          -115 -2 -112 2 116 316 rlineto
          7 hlineto
          endchar
        </CharString>
        <CharString name="Acaron">
          47 21 -21 175.5 65.5 317 83 hstem
          14 543 vstem
          303 723 rmoveto
          35 32 39 30 42 29 -16 34 rcurveline
          -10 hlineto
          -35 -22 -33 -21 -34 -23 -34 23 -33 21 -36 22 rrcurveto
          -9 hlineto
          -16 -34 41 -29 40 -30 36 -32 rlinecurve
          277 -723 rmoveto
          -214 641 rlineto
          -93 hlineto
          -236 -641 rlineto
          80 hlineto
          16 68 39 106 130 3 145 -3 36 -110 14 -64 rlineto
          -73 242 rmoveto
          -115 -2 -112 2 116 316 rlineto
          7 hlineto
          endchar
        </CharString>
        <CharString name="Acircumflex">
          47 21 -21 175.5 65.5 317 83 hstem
          14 543 vstem
          178 733 rmoveto
          10 hlineto
          35 22 33 21 34 23 34 -23 33 -21 36 -22 rrcurveto
          9 hlineto
          16 34 -41 29 -40 30 -36 32 rlinecurve
          -23 hlineto
          -35 -32 -39 -30 -42 -29 rrcurveto
          395 -767 rmoveto
          -214 641 rlineto
          -93 hlineto
          -236 -641 rlineto
          80 hlineto
          16 68 39 106 130 3 145 -3 36 -110 14 -64 rlineto
          -73 242 rmoveto
          -115 -2 -112 2 116 316 rlineto
          7 hlineto
          endchar
        </CharString>
        <CharString name="Acircumflexacute">
          47 21 -21 175.5 65.5 317 83 hstem
          14 543 vstem
          371 819 rmoveto
          8 hlineto
          82 100 -1 8 -40 20 -7 -2 -70 -103 rlineto
          -166 -129 rmoveto
          10 hlineto
          35 22 33 21 34 23 34 -23 33 -21 36 -22 rrcurveto
          9 hlineto
          16 34 -41 29 -40 30 -36 32 rlinecurve
          -23 hlineto
          -35 -32 -39 -30 -42 -29 rrcurveto
          396 -747 rmoveto
          -214 641 rlineto
          -93 hlineto
          -236 -641 rlineto
          80 hlineto
          16 68 39 106 130 3 145 -3 36 -110 14 -64 rlineto
          -73 242 rmoveto
          -115 -2 -112 2 116 316 rlineto
          7 hlineto
          endchar
        </CharString>
        <CharString name="Acircumflexdotbelow">
          47 -163 93 91 -21 175.5 65.5 317 83 hstem
          240 91 vstem
          177 732 rmoveto
          10 hlineto
          35 22 33 21 34 23 34 -23 33 -21 36 -22 rrcurveto
          9 hlineto
          16 34 -41 29 -40 30 -36 32 rlinecurve
          -23 hlineto
          -35 -32 -39 -30 -42 -29 rrcurveto
          396 -766 rmoveto
          -214 641 rlineto
          -93 hlineto
          -236 -641 rlineto
          80 hlineto
          16 68 39 106 130 3 145 -3 36 -110 14 -64 rlineto
          -73 242 rmoveto
          -115 -2 -112 2 116 316 rlineto
          7 hlineto
          -10 -628 rmoveto
          -29 -18 -19 -28 -29 16 -17 28 29 18 19 29 28 -17 17 -27 hvcurveto
          endchar
        </CharString>
        <CharString name="Acircumflexgrave">
          47 21 -21 175.5 65.5 317 83 hstem
          14 543 vstem
          391 819 rmoveto
          8 hlineto
          29 23 -70 103 -7 2 -40 -20 -1 -8 rlineto
          -133 -206 rmoveto
          10 hlineto
          35 22 33 21 34 23 34 -23 33 -21 36 -22 rrcurveto
          9 hlineto
          16 34 -41 29 -40 30 -36 32 rlinecurve
          -23 hlineto
          -35 -32 -39 -30 -42 -29 rrcurveto
          396 -747 rmoveto
          -214 641 rlineto
          -93 hlineto
          -236 -641 rlineto
          80 hlineto
          16 68 39 106 130 3 145 -3 36 -110 14 -64 rlineto
          -73 242 rmoveto
          -115 -2 -112 2 116 316 rlineto
          7 hlineto
          endchar
        </CharString>
        <CharString name="Acircumflexhookabove">
          47 21 -21 175.5 65.5 317 83 302 41 hstem
          399 45 vstem
          373 943 rmoveto
          15 11 -7 -13 -16 -18 -24 -30 -22 hvcurveto
          30 -52 33 18 -19 32 rlineto
          34 28 15 20 24 vvcurveto
          30 -25 23 -35 -27 -30 -14 -25 -24 vhcurveto
          15 -25 rlineto
          15 18 21 8 16 hhcurveto
          -196 -230 rmoveto
          10 hlineto
          35 22 33 21 34 23 34 -23 33 -21 36 -22 rrcurveto
          9 hlineto
          16 34 -41 29 -40 30 -36 32 rlinecurve
          -23 hlineto
          -35 -32 -39 -30 -42 -29 rrcurveto
          396 -747 rmoveto
          -214 641 rlineto
          -93 hlineto
          -236 -641 rlineto
          80 hlineto
          16 68 39 106 130 3 145 -3 36 -110 14 -64 rlineto
          -73 242 rmoveto
          -115 -2 -112 2 116 316 rlineto
          7 hlineto
          endchar
        </CharString>
        <CharString name="Acircumflextilde">
          47 21 -21 175.5 65.5 317 83 259 55 hstem
          14 543 vstem
          169 855 rmoveto
          8 hlineto
          24 23 15 21 15 hhcurveto
          24 82 -32 -4 39 hvcurveto
          9 3 57 67 rlineto
          8 vlineto
          -22 24 rlineto
          -8 hlineto
          -25 -24 -15 -20 -14 hhcurveto
          -24 -82 31 4 -40 hvcurveto
          -9 -2 -57 -67 rlineto
          -8 vlineto
          131 -41 rmoveto
          -35 -32 -39 -30 -42 -29 16 -34 rcurveline
          10 hlineto
          35 22 33 21 34 23 34 -23 33 -21 36 -22 rrcurveto
          9 hlineto
          16 34 -41 29 -40 30 -36 32 rlinecurve
          257 -838 rmoveto
          -214 641 rlineto
          -93 hlineto
          -236 -641 rlineto
          80 hlineto
          16 68 39 106 130 3 145 -3 36 -110 14 -64 rlineto
          -73 242 rmoveto
          -115 -2 -112 2 116 316 rlineto
          7 hlineto
          endchar
        </CharString>
        <CharString name="Adieresis">
          47 21 -21 175.5 65.5 317 83 103 89 hstem
          169 87 70 87 vstem
          211 744 rmoveto
          28 17 19 28 26 -16 16 -26 -28 -17 -18 -27 -27 15 -17 27 hvcurveto
          157 hmoveto
          28 17 19 28 26 -16 16 -26 -28 -17 -18 -27 -27 15 -17 27 hvcurveto
          189 -744 rmoveto
          -214 641 rlineto
          -93 hlineto
          -236 -641 rlineto
          80 hlineto
          16 68 39 106 130 3 145 -3 36 -110 14 -64 rlineto
          -73 242 rmoveto
          -115 -2 -112 2 116 316 rlineto
          7 hlineto
          endchar
        </CharString>
        <CharString name="Adotbelow">
          47 -163 93 91 -21 175.5 65.5 317 83 hstem
          240 91 vstem
          557 hmoveto
          -214 641 rlineto
          -93 hlineto
          -236 -641 rlineto
          80 hlineto
          16 68 39 106 130 3 145 -3 36 -110 14 -64 rlineto
          -73 242 rmoveto
          -115 -2 -112 2 116 316 rlineto
          7 hlineto
          -10 -628 rmoveto
          -29 -18 -19 -28 -29 16 -17 28 29 18 19 29 28 -17 17 -27 hvcurveto
          endchar
        </CharString>
        <CharString name="Agrave">
          47 21 -21 175.5 65.5 317 83 hstem
          14 543 vstem
          387 725 rmoveto
          14 36 -63 31 -61 32 -68 40 rlinecurve
          -9 -2 -20 -47 2 -8 69 -32 62 -27 64 -27 rlinecurve
          180 -721 rmoveto
          -214 641 rlineto
          -93 hlineto
          -236 -641 rlineto
          80 hlineto
          16 68 39 106 130 3 145 -3 36 -110 14 -64 rlineto
          -73 242 rmoveto
          -115 -2 -112 2 116 316 rlineto
          7 hlineto
          endchar
        </CharString>
        <CharString name="Ahookabove">
          47 21 -21 175.5 65.5 317 83 209 44 hstem
          300 49 vstem
          274 850 rmoveto
          16 10 -7 -14 -17 -18 -25 -32 -23 hvcurveto
          32 -55 35 19 -20 34 rlineto
          36 30 16 21 24 vvcurveto
          32 -27 25 -36 -29 -32 -16 -26 -25 vhcurveto
          16 -26 rlineto
          16 19 22 8 17 hhcurveto
          283 -850 rmoveto
          -214 641 rlineto
          -93 hlineto
          -236 -641 rlineto
          80 hlineto
          16 68 39 106 130 3 145 -3 36 -110 14 -64 rlineto
          -73 242 rmoveto
          -115 -2 -112 2 116 316 rlineto
          7 hlineto
          endchar
        </CharString>
        <CharString name="Amacron">
          47 21 -21 175.5 65.5 317 83 123 52 hstem
          14 543 vstem
          149 764 rmoveto
          283 hlineto
          5 47 -6 5 rlineto
          -283 hlineto
          -5 -46 rlineto
          414 -770 rmoveto
          -214 641 rlineto
          -93 hlineto
          -236 -641 rlineto
          80 hlineto
          16 68 39 106 130 3 145 -3 36 -110 14 -64 rlineto
          -73 242 rmoveto
          -115 -2 -112 2 116 316 rlineto
          7 hlineto
          endchar
        </CharString>
        <CharString name="Aogonek">
          47 -197 54 164 -21 175.5 65.5 317 83 hstem
          434 53 vstem
          600 -106 rmoveto
          -5 hlineto
          -23 -23 -26 -14 -25 hhcurveto
          -23 -11 11 24 23 11 27 39 58 hvcurveto
          20 hlineto
          -214 641 rlineto
          -93 hlineto
          -236 -641 rlineto
          80 hlineto
          16 68 39 106 130 3 145 -3 36 -110 14 -64 rlineto
          14 hlineto
          -42 -60 -12 -29 -30 vvcurveto
          -48 31 -30 46 37 32 19 34 31 vhcurveto
          -210 386 rmoveto
          -115 -2 -112 2 116 316 rlineto
          7 hlineto
          endchar
        </CharString>
        <CharString name="Aring">
          47 21 -21 175.5 65.5 317 83 73 38 88 39 hstem
          205 38 91 39 vstem
          287 714 rmoveto
          48 38 30 54 46 -29 35 -54 -53 -32 -33 -50 -53 35 -29 47 hvcurveto
          1 126 rmoveto
          31 15 -18 -27 -29 -19 -14 -26 -27 -19 15 30 27 16 16 29 hvcurveto
          269 -840 rmoveto
          -214 641 rlineto
          -93 hlineto
          -236 -641 rlineto
          80 hlineto
          16 68 39 106 130 3 145 -3 36 -110 14 -64 rlineto
          -73 242 rmoveto
          -115 -2 -112 2 116 316 rlineto
          7 hlineto
          endchar
        </CharString>
        <CharString name="Aringacute">
          47 21 -21 173.5 65.5 314 87 0 -20 108 39 hstemhm
          212 38 91 39 hintmask 11011110
          213 787 rmoveto
          8 -5 69 16 65 16 73 21 rlinecurve
          4 8 -13 49 -8 3 -73 -28 -66 -21 -68 -21 rlinecurve
          353 -825 rmoveto
          -212 616 rlineto
          21 14 14 24 32 vvcurveto
          46 -29 35 -54 -53 -32 -33 -50 -32 13 -23 20 -14 vhcurveto
          -231 -615 rlineto
          80 hlineto
          16 67 39 105 130 3 145 -3 36 -109 14 -63 rlineto
          -179 728 rmoveto
          31 15 -18 -27 -29 -19 -14 -26 -27 -19 15 30 27 16 16 29 hvcurveto
          106 -488 rmoveto
          -115 -2 -112 2 rlineto
          hintmask 11101110
          116 313 rlineto
          7 hlineto
          endchar
        </CharString>
        <CharString name="Atilde">
          47 21 -21 175.5 65.5 317 83 hstem
          14 543 vstem
          156 734 rmoveto
          9 hlineto
          25 25 16 22 15 hhcurveto
          26 88 -33 -4 41 hvcurveto
          10 3 61 69 rlineto
          8 vlineto
          -24 25 rlineto
          -8 hlineto
          -25 -26 -16 -21 -15 hhcurveto
          -25 -88 31 5 -42 hvcurveto
          -10 -3 -61 -69 rlineto
          -7 vlineto
          425 -760 rmoveto
          -214 641 rlineto
          -93 hlineto
          -236 -641 rlineto
          80 hlineto
          16 68 39 106 130 3 145 -3 36 -110 14 -64 rlineto
          -73 242 rmoveto
          -115 -2 -112 2 116 316 rlineto
          7 hlineto
          endchar
        </CharString>
        <CharString name="B">
          6 -4 67 -42 -21 294.5 65 216.5 66 hstemhm
          95.5 77.5 203 82 -41 81 hintmask 00000000
          hintmask 10111010
          362 334 rmoveto
          hintmask 01111100
          61 26 35 53 73 vvcurveto
          103 -69 53 -118 vhcurveto
          -178 -1 5 -448 -5 -193 rlineto
          1 hlineto
          hintmask 10111010
          -3 40 79 -1 22 hhcurveto
          175 88 62 121 86 -45 51 -91 18 hvcurveto
          hintmask 10111100
          14 143 rmoveto
          -67 -33 -38 -61 -14 vhcurveto
          -110 3 2 215 rlineto
          81 hlineto
          85 36 -30 -69 hvcurveto
          hintmask 10111010
          -129 -414 rmoveto
          -20 -28 1 2 -26 hvcurveto
          -3 134 1 94 123 1 rlineto
          80 -9 43 -37 -66 vvcurveto
          -78 -61 -42 -109 vhcurveto
          endchar
        </CharString>
        <CharString name="C">
          -11 -7 68 518 67 -48 -20 hstemhm
          38 83 hintmask 11010000
          322 646 rmoveto
          -180 -104 -118 -213 -207 99 -115 172 65 56 17 31 56 hvcurveto
          7 76 -10 5 rlineto
          -38 -47 -60 -23 -60 hhcurveto
          -123 -72 90 171 170 71 87 126 61 51 -21 -35 42 hvcurveto
          9 2 rlineto
          hintmask 10110000
          16 73 rlineto
          hintmask 11010000
          31 -48 -59 17 -68 hhcurveto
          endchar
        </CharString>
        <CharString name="C.ss01">
          -70 0 35 -35 63 373 62 -34 34 hstemhm
          50 76 hintmask 10011000
          561 464 rmoveto
          34 -661 -34 251 vlineto
          -66 -39 -35 -74 -105 vvcurveto
          -101 33 -71 60 -39 vhcurveto
          -243 -35 661 35 -155 hlineto
          4 2 rlineto
          hintmask 01101000
          6 67 -8 4 rlineto
          -27 -37 -49 -18 -48 hhcurveto
          -95 -53 66 124 123 53 60 95 49 44 -16 -27 32 hvcurveto
          9 2 rlineto
          hintmask 10011000
          14 67 -4 2 rlineto
          endchar
        </CharString>
        <CharString name="Cacute">
          -11 -7 68 518 67 -48 -20 hstemhm
          38 83 hintmask 11010000
          431 861 rmoveto
          -9 2 -68 -40 -61 -32 -63 -31 rlinecurve
          14 -36 10 -4 64 27 62 27 69 32 rlinecurve
          2 8 rlineto
          -129 -168 rmoveto
          -180 -104 -118 -213 -207 99 -115 172 65 56 17 31 56 hvcurveto
          7 76 -10 5 rlineto
          -38 -47 -60 -23 -60 hhcurveto
          -123 -72 90 171 170 71 87 126 61 51 -21 -35 42 hvcurveto
          9 2 rlineto
          hintmask 10110000
          16 73 rlineto
          hintmask 11010000
          31 -48 -59 17 -68 hhcurveto
          endchar
        </CharString>
        <CharString name="Ccaron">
          -11 -7 68 518 67 -48 -20 hstemhm
          38 83 hintmask 11010000
          427 848 rmoveto
          -10 hlineto
          -35 -22 -33 -21 -34 -23 -34 23 -33 21 -36 22 rrcurveto
          -9 hlineto
          -16 -34 41 -29 40 -30 36 -32 rlinecurve
          23 hlineto
          35 32 39 30 42 29 rrcurveto
          -121 -168 rmoveto
          -180 -104 -118 -213 -207 99 -115 172 65 56 17 31 56 hvcurveto
          7 76 -10 5 rlineto
          -38 -47 -60 -23 -60 hhcurveto
          -123 -72 90 171 170 71 87 126 61 51 -21 -35 42 hvcurveto
          9 2 rlineto
          hintmask 10110000
          16 73 rlineto
          hintmask 11010000
          31 -48 -59 17 -68 hhcurveto
          endchar
        </CharString>
        <CharString name="Ccedilla">
          -11 -193 41 146 67 518 67 -48 -20 hstemhm
          38 83 215 53 hintmask 11101000
          316 61 rmoveto
          -123 -72 90 171 170 71 87 126 61 51 -21 -35 42 hvcurveto
          9 2 rlineto
          hintmask 11011000
          16 73 rlineto
          hintmask 11101100
          31 -48 -59 17 -68 hhcurveto
          -180 -104 -118 -213 -197 90 -114 157 -10 hvcurveto
          -18 -65 48 -29 rlineto
          12 -7 9 -6 -12 vvcurveto
          -17 -13 -10 -18 -25 -15 12 19 -17 vhcurveto
          -5 -1 -7 -40 rlineto
          -16 15 24 -15 33 hhcurveto
          48 33 27 39 22 -10 18 -28 16 hvcurveto
          -34 20 13 45 56 3 50 16 50 28 rlinecurve
          7 76 -10 5 rlineto
          hintmask 11101000
          -38 -47 -60 -23 -60 hhcurveto
          endchar
        </CharString>
        <CharString name="Ccircumflex">
          -11 -7 68 518 67 -48 -20 hstemhm
          38 83 hintmask 11010000
          202 733 rmoveto
          10 hlineto
          35 22 33 21 34 23 34 -23 33 -21 36 -22 rrcurveto
          9 hlineto
          16 34 -41 29 -40 30 -36 32 rlinecurve
          -23 hlineto
          -35 -32 -39 -30 -42 -29 rrcurveto
          136 -121 rmoveto
          -180 -104 -118 -213 -207 99 -115 172 65 56 17 31 56 hvcurveto
          7 76 -10 5 rlineto
          -38 -47 -60 -23 -60 hhcurveto
          -123 -72 90 171 170 71 87 126 61 51 -21 -35 42 hvcurveto
          9 2 rlineto
          hintmask 10110000
          16 73 rlineto
          hintmask 11010000
          31 -48 -59 17 -68 hhcurveto
          endchar
        </CharString>
        <CharString name="Cdotaccent">
          -11 -7 68 518 67 -48 -20 174 93 hstemhm
          38 83 148 91 hintmask 11011100
          316 845 rmoveto
          -29 -18 -19 -28 -29 16 -17 28 29 18 19 30 27 -17 17 -27 hvcurveto
          6 -199 rmoveto
          -180 -104 -118 -213 -207 99 -115 172 65 56 17 31 56 hvcurveto
          7 76 -10 5 rlineto
          -38 -47 -60 -23 -60 hhcurveto
          -123 -72 90 171 170 71 87 126 61 51 -21 -35 42 hvcurveto
          9 2 rlineto
          hintmask 10111100
          16 73 rlineto
          hintmask 11011100
          31 -48 -59 17 -68 hhcurveto
          endchar
        </CharString>
        <CharString name="D">
          115 -6 67 -40 -21 578 67 hstemhm
          95.5 76.5 354 82 hintmask 10111000
          94 641 rmoveto
          -1 hlineto
          5 -448 rlineto
          hintmask 01111000
          -5 -193 rlineto
          1 hlineto
          hintmask 10111000
          -3 55 115 -3 38 hhcurveto
          197 109 124 225 195 -101 107 -182 hvcurveto
          -10 -584 rmoveto
          -21 -74 2 4 -47 hvcurveto
          -3 133 4 374 rlineto
          2 41 83 2 21 hhcurveto
          136 71 -82 -170 -179 -77 -86 -134 hvcurveto
          endchar
        </CharString>
        <CharString name="D.ss01">
          35 0 35 -35 60 373 65 -34 34 hstemhm
          96.5 70 273.5 74 hintmask 10011100
          666 464 rmoveto
          34 -766 -34 195 vlineto
          3 -312 -2 -117 rlineto
          -196 -35 766 35 -259 hlineto
          70 41 37 79 110 vvcurveto
          94 -33 68 -64 37 vhcurveto
          hintmask 01101100
          -139 -404 rmoveto
          -18 -61 3 3 -32 hvcurveto
          -2 92 3 271 rlineto
          2 31 65 2 16 hhcurveto
          106 54 -57 -126 -129 -60 -61 -102 hvcurveto
          endchar
        </CharString>
        <CharString name="Dcaron">
          115 -6 67 -40 -21 578 67 hstemhm
          95.5 76.5 355 82 hintmask 10111000
          327 723 rmoveto
          35 32 39 30 42 29 -16 34 rcurveline
          -10 hlineto
          -35 -22 -33 -21 -34 -23 -34 23 -33 21 -36 22 rrcurveto
          -9 hlineto
          -16 -34 41 -29 40 -30 36 -32 rlinecurve
          -210 -82 rmoveto
          -1 hlineto
          5 -448 rlineto
          hintmask 01111000
          -5 -193 rlineto
          1 hlineto
          hintmask 10111000
          -3 55 116 -3 37 hhcurveto
          197 110 124 225 195 -101 107 -183 hvcurveto
          -10 -584 rmoveto
          -21 -74 2 4 -47 hvcurveto
          -3 133 4 374 rlineto
          2 40 85 2 21 hhcurveto
          136 71 -82 -170 -179 -77 -86 -135 hvcurveto
          endchar
        </CharString>
        <CharString name="Dcroat">
          115 -6 67 -40 -21 578 67 119 52 hstemhm
          95.5 76.5 355 82 hintmask 10111100
          173 764 rmoveto
          283 hlineto
          5 47 -6 5 rlineto
          -283 hlineto
          -5 -46 rlineto
          -73 -129 rmoveto
          -1 hlineto
          5 -448 rlineto
          hintmask 01111100
          -5 -193 rlineto
          1 hlineto
          hintmask 10111100
          -3 55 116 -3 37 hhcurveto
          197 110 124 225 195 -101 107 -183 hvcurveto
          -10 -584 rmoveto
          -21 -74 2 4 -47 hvcurveto
          -3 133 4 374 rlineto
          2 40 85 2 21 hhcurveto
          136 71 -82 -170 -179 -77 -86 -135 hvcurveto
          endchar
        </CharString>
        <CharString name="Delta">
          47 0 67 491 83 hstem
          14 542 vstem
          556 hmoveto
          -215 641 rlineto
          -93 hlineto
          -234 -641 rlineto
          276 558 rmoveto
          7 hlineto
          160 -491 rlineto
          -346 hlineto
          endchar
        </CharString>
        <CharString name="E">
          -49 0 66.5 229 65.5 212 68 hstem
          95.5 77.5 vstem
          459 62 rmoveto
          -5 8 -154 -4 -127 1 -3 133 1 95 114 1 112 -2 7 62 -6 7 -106 -3 -120 2 2 210 127 2 151 -3 6 62 -4 8 rlineto
          -361 hlineto
          5 -448 -5 -193 rlineto
          360 hlineto
          endchar
        </CharString>
        <CharString name="Eacute">
          -49 0 66.5 229 65.5 212 68 -8 8 hstemhm
          95.5 77.5 hintmask 11101000
          205 724 rmoveto
          10 -4 64 27 62 27 69 32 rlinecurve
          2 8 -20 47 -9 2 -68 -40 -61 -32 -63 -31 rlinecurve
          263 -690 rmoveto
          -153 -4 -128 1 -3 133 1 95 114 1 112 -2 6 62 -5 7 -106 -3 -120 2 2 210 127 2 151 -3 rlineto
          hintmask 11011000
          7 62 -5 8 rlineto
          hintmask 11101000
          -361 hlineto
          5 -448 -5 -193 rlineto
          360 hlineto
          6 62 rlineto
          endchar
        </CharString>
        <CharString name="Ebreve">
          -49 0 66.5 229 65.5 212 68 -8 8 83 57 hstemhm
          95.5 77.5 hintmask 11101100
          272 724 rmoveto
          62 46 32 58 21 hvcurveto
          -23 28 rlineto
          -12 hlineto
          -38 -15 -31 -23 -45 hhcurveto
          -47 -32 23 38 -14 hvcurveto
          -12 hlineto
          -22 -28 rlineto
          -58 18 44 -32 62 hhcurveto
          182 -654 rmoveto
          -153 -4 -128 1 -3 133 1 95 114 1 112 -2 6 62 -5 7 -106 -3 -120 2 2 210 127 2 151 -3 rlineto
          hintmask 11011100
          7 62 -5 8 rlineto
          hintmask 11101100
          -361 hlineto
          5 -448 -5 -193 rlineto
          360 hlineto
          6 62 rlineto
          endchar
        </CharString>
        <CharString name="Ecaron">
          -49 0 66.5 229 65.5 212 68 -8 8 hstemhm
          95.5 77.5 hintmask 11101000
          287 723 rmoveto
          35 32 39 30 42 29 -16 34 rcurveline
          -10 hlineto
          -35 -22 -33 -21 -34 -23 -34 23 -33 21 -36 22 rrcurveto
          -9 hlineto
          -16 -34 41 -29 40 -30 36 -32 rlinecurve
          190 -653 rmoveto
          -153 -4 -128 1 -3 133 1 95 114 1 112 -2 6 62 -5 7 -106 -3 -120 2 2 210 127 2 151 -3 rlineto
          hintmask 11011000
          7 62 -5 8 rlineto
          hintmask 11101000
          -361 hlineto
          5 -448 -5 -193 rlineto
          360 hlineto
          6 62 rlineto
          endchar
        </CharString>
        <CharString name="Ecircumflex">
          -49 0 66.5 229 65.5 212 68 -8 8 hstemhm
          95.5 77.5 hintmask 11101000
          162 733 rmoveto
          10 hlineto
          35 22 33 21 34 23 34 -23 33 -21 36 -22 rrcurveto
          9 hlineto
          16 34 -41 29 -40 30 -36 32 rlinecurve
          -23 hlineto
          -35 -32 -39 -30 -42 -29 rrcurveto
          308 -697 rmoveto
          -153 -4 -128 1 -3 133 1 95 114 1 112 -2 6 62 -5 7 -106 -3 -120 2 2 210 127 2 151 -3 rlineto
          hintmask 11011000
          7 62 -5 8 rlineto
          hintmask 11101000
          -361 hlineto
          5 -448 -5 -193 rlineto
          360 hlineto
          6 62 rlineto
          endchar
        </CharString>
        <CharString name="Ecircumflexacute">
          -49 0 66.5 229 65.5 212 68 -8 8 hstemhm
          95.5 77.5 hintmask 11101000
          355 819 rmoveto
          8 hlineto
          82 100 -1 8 -40 20 -7 -2 -70 -103 rlineto
          -166 -129 rmoveto
          10 hlineto
          35 22 33 21 34 23 34 -23 33 -21 36 -22 rrcurveto
          9 hlineto
          16 34 -41 29 -40 30 -36 32 rlinecurve
          -23 hlineto
          -35 -32 -39 -30 -42 -29 rrcurveto
          309 -677 rmoveto
          -153 -4 -128 1 -3 133 1 95 114 1 112 -2 6 62 -5 7 -106 -3 -120 2 2 210 127 2 151 -3 rlineto
          hintmask 11011000
          7 62 -5 8 rlineto
          hintmask 11101000
          -361 hlineto
          5 -448 -5 -193 rlineto
          360 hlineto
          6 62 rlineto
          endchar
        </CharString>
        <CharString name="Ecircumflexdotbelow">
          -49 -163 93 70 66.5 229 65.5 212 68 -8 8 hstemhm
          95.5 77.5 61 91 hintmask 01110100
          162 733 rmoveto
          10 hlineto
          35 22 33 21 34 23 34 -23 33 -21 36 -22 rrcurveto
          9 hlineto
          16 34 -41 29 -40 30 -36 32 rlinecurve
          -23 hlineto
          -35 -32 -39 -30 -42 -29 rrcurveto
          308 -697 rmoveto
          -153 -4 -128 1 -3 133 1 95 114 1 112 -2 6 62 -5 7 -106 -3 -120 2 2 210 127 2 151 -3 rlineto
          hintmask 01101100
          7 62 -5 8 rlineto
          hintmask 11110110
          -361 hlineto
          5 -448 -5 -193 rlineto
          360 hlineto
          6 62 rlineto
          -177 -132 rmoveto
          -30 -18 -19 -28 -29 17 -17 28 28 18 19 30 27 -16 17 -27 hvcurveto
          endchar
        </CharString>
        <CharString name="Ecircumflexgrave">
          -49 0 66.5 229 65.5 212 68 -8 8 hstemhm
          95.5 77.5 hintmask 11101000
          375 819 rmoveto
          8 hlineto
          29 23 -70 103 -7 2 -40 -20 -1 -8 rlineto
          -133 -206 rmoveto
          10 hlineto
          35 22 33 21 34 24 34 -24 34 -21 35 -22 rrcurveto
          9 hlineto
          16 34 -41 29 -40 30 -36 32 rlinecurve
          -23 hlineto
          -35 -32 -39 -30 -42 -29 rrcurveto
          309 -677 rmoveto
          -153 -4 -128 1 -3 133 1 95 114 1 112 -2 6 62 -5 7 -106 -3 -120 2 2 210 127 2 151 -3 rlineto
          hintmask 11011000
          7 62 -5 8 rlineto
          hintmask 11101000
          -361 hlineto
          5 -448 -5 -193 rlineto
          360 hlineto
          6 62 rlineto
          endchar
        </CharString>
        <CharString name="Ecircumflexhookabove">
          -49 0 66.5 229 65.5 212 68 -8 8 302 41 hstemhm
          95.5 77.5 210 45 hintmask 11101110
          357 943 rmoveto
          15 11 -7 -13 -16 -18 -24 -30 -22 hvcurveto
          30 -52 33 18 -19 32 rlineto
          34 28 15 20 24 vvcurveto
          30 -25 23 -35 -27 -30 -14 -25 -24 vhcurveto
          15 -25 rlineto
          15 18 21 8 16 hhcurveto
          -196 -230 rmoveto
          10 hlineto
          35 22 33 21 34 24 34 -24 34 -21 35 -22 rrcurveto
          9 hlineto
          16 34 -41 29 -40 30 -36 32 rlinecurve
          -23 hlineto
          -35 -32 -39 -30 -42 -29 rrcurveto
          309 -677 rmoveto
          -153 -4 -128 1 -3 133 1 95 114 1 112 -2 6 62 -5 7 -106 -3 -120 2 2 210 127 2 151 -3 rlineto
          hintmask 11011110
          7 62 -5 8 rlineto
          hintmask 11101110
          -361 hlineto
          5 -448 -5 -193 rlineto
          360 hlineto
          6 62 rlineto
          endchar
        </CharString>
        <CharString name="Ecircumflextilde">
          -49 0 66.5 229 65.5 212 68 -8 8 hstemhm
          95.5 77.5 hintmask 11101000
          376 820 rmoveto
          7 hlineto
          29 23 -70 103 -7 2 -40 -20 -1 -8 rlineto
          -133 -206 rmoveto
          10 hlineto
          35 22 33 21 34 24 34 -24 34 -21 35 -22 rrcurveto
          9 hlineto
          16 34 -41 29 -40 30 -36 32 rlinecurve
          -23 hlineto
          -35 -32 -39 -30 -42 -29 rrcurveto
          309 -678 rmoveto
          -153 -4 -128 1 -3 133 1 95 114 1 112 -2 6 62 -5 7 -106 -3 -120 2 2 210 127 2 151 -3 rlineto
          hintmask 11011000
          7 62 -5 8 rlineto
          hintmask 11101000
          -361 hlineto
          5 -448 -5 -193 rlineto
          360 hlineto
          6 62 rlineto
          endchar
        </CharString>
        <CharString name="Edieresis">
          -49 0 66.5 229 65.5 212 68 -8 8 104 89 hstemhm
          95.5 77.5 -20 87 70 87 hintmask 00000000
          hintmask 11101011
          195 745 rmoveto
          28 17 19 28 26 -16 16 -26 -28 -17 -18 -27 -27 15 -17 27 hvcurveto
          157 hmoveto
          28 17 19 28 26 -16 16 -26 -28 -17 -18 -27 -27 15 -17 27 hvcurveto
          102 -675 rmoveto
          -153 -4 rlineto
          hintmask 11100100
          -128 1 -3 133 1 95 114 1 112 -2 6 62 -5 7 -106 -3 -120 2 2 210 127 2 151 -3 rlineto
          hintmask 11010100
          7 62 -5 8 rlineto
          hintmask 11100100
          -361 hlineto
          5 -448 -5 -193 rlineto
          360 hlineto
          6 62 rlineto
          endchar
        </CharString>
        <CharString name="Edotaccent">
          -49 0 66.5 229 65.5 212 68 -8 8 111 93 hstemhm
          95.5 77.5 56 91 hintmask 11101110
          273 752 rmoveto
          29 18 19 30 27 -17 17 -27 -29 -18 -19 -28 -29 16 -17 28 hvcurveto
          181 -682 rmoveto
          -153 -4 -128 1 -3 133 1 95 114 1 112 -2 6 62 -5 7 -106 -3 -120 2 2 210 127 2 151 -3 rlineto
          hintmask 11011110
          7 62 -5 8 rlineto
          hintmask 11101110
          -361 hlineto
          5 -448 -5 -193 rlineto
          360 hlineto
          6 62 rlineto
          endchar
        </CharString>
        <CharString name="Edotbelow">
          -49 -163 93 70 66.5 229 65.5 212 68 -8 8 hstemhm
          95.5 77.5 62 91 hintmask 01110100
          454 70 rmoveto
          -153 -4 -128 1 -3 133 1 95 114 1 112 -2 6 62 -5 7 -106 -3 -120 2 2 210 127 2 151 -3 rlineto
          hintmask 01101100
          7 62 -5 8 rlineto
          hintmask 11110110
          -361 hlineto
          5 -448 -5 -193 rlineto
          360 hlineto
          6 62 rlineto
          -177 -132 rmoveto
          -29 -18 -19 -28 -29 16 -17 28 29 18 19 29 28 -17 17 -27 hvcurveto
          endchar
        </CharString>
        <CharString name="Egrave">
          -49 0 66.5 229 65.5 212 68 -8 8 hstemhm
          95.5 77.5 hintmask 11101000
          371 725 rmoveto
          14 36 -63 31 -61 32 -68 40 rlinecurve
          -9 -2 -20 -47 2 -8 69 -32 62 -27 64 -27 rlinecurve
          93 -651 rmoveto
          -153 -4 -128 1 -3 133 1 95 114 1 112 -2 6 62 -5 7 -106 -3 -120 2 2 210 127 2 151 -3 rlineto
          hintmask 11011000
          7 62 -5 8 rlineto
          hintmask 11101000
          -361 hlineto
          5 -448 -5 -193 rlineto
          360 hlineto
          6 62 rlineto
          endchar
        </CharString>
        <CharString name="Ehookabove">
          -49 0 66.5 229 65.5 212 68 -8 8 209 44 hstemhm
          95.5 77.5 111 49 hintmask 11101110
          258 850 rmoveto
          16 10 -7 -14 -17 -18 -25 -32 -23 hvcurveto
          32 -55 35 19 -20 34 rlineto
          36 30 16 21 24 vvcurveto
          32 -27 25 -36 -29 -32 -16 -26 -25 vhcurveto
          16 -26 rlineto
          16 19 22 8 17 hhcurveto
          196 -780 rmoveto
          -153 -4 -128 1 -3 133 1 95 114 1 112 -2 6 62 -5 7 -106 -3 -120 2 2 210 127 2 151 -3 rlineto
          hintmask 11011110
          7 62 -5 8 rlineto
          hintmask 11101110
          -361 hlineto
          5 -448 -5 -193 rlineto
          360 hlineto
          6 62 rlineto
          endchar
        </CharString>
        <CharString name="Emacron">
          -49 0 66.5 229 65.5 212 68 -8 8 123 52 hstemhm
          95.5 77.5 hintmask 11101100
          133 764 rmoveto
          283 hlineto
          5 47 -6 5 rlineto
          -283 hlineto
          -5 -46 rlineto
          327 -700 rmoveto
          -153 -4 -128 1 -3 133 1 95 114 1 112 -2 6 62 -5 7 -106 -3 -120 2 2 210 127 2 151 -3 rlineto
          hintmask 11011100
          7 62 -5 8 rlineto
          hintmask 11101100
          -361 hlineto
          5 -448 -5 -193 rlineto
          360 hlineto
          6 62 rlineto
          endchar
        </CharString>
        <CharString name="Eng">
          152 21 -21 22 -21 512 128 0 -20 22 -20 hstemhm
          96.5 69 350 72.5 hintmask 01001110
          585 188 rmoveto
          6 455 -76 -6 1 -508 rlineto
          -7 hlineto
          hintmask 10010110
          -330 512 rlineto
          -84 hlineto
          3 -451 -5 -190 rlineto
          75 hlineto
          -3 211 rlineto
          hintmask 01100110
          1 302 rlineto
          6 hlineto
          331 -512 -16 -41 -38 -31 -64 -35 rlinecurve
          -10 vlineto
          31 -44 rlineto
          125 59 45 58 99 vvcurveto
          endchar
        </CharString>
        <CharString name="Eogonek">
          -49 -197 54 143 66.5 229 65.5 212 68 -8 8 hstemhm
          95.5 77.5 116 52 hintmask 11110110
          455 -105 rmoveto
          -5 hlineto
          -24 -22 -25 -14 -22 hhcurveto
          -26 -14 17 23 15 6 16 12 19 hvcurveto
          35 53 rlineto
          59 hlineto
          6 62 -5 8 -153 -4 -128 1 -3 133 1 95 114 1 112 -2 6 62 -5 7 -106 -3 -120 2 2 210 127 2 151 -3 rlineto
          hintmask 11101110
          7 62 -5 8 rlineto
          hintmask 11110110
          -361 hlineto
          5 -448 -5 -193 rlineto
          251 hlineto
          -30 -44 rlineto
          -18 -25 -7 -25 -23 vvcurveto
          -47 31 -33 48 35 30 18 34 33 vhcurveto
          endchar
        </CharString>
        <CharString name="Eth">
          137 -6 67 -40 -21 296 57 225 67 hstemhm
          117 76 -73.5 73 355.5 82 hintmask 10111010
          115 641 rmoveto
          -1 hlineto
          4 -288 rlineto
          -103 hlineto
          -3 -50 4 -7 rlineto
          103 hlineto
          hintmask 10110110
          1 -103 rlineto
          hintmask 01111010
          -6 -193 rlineto
          1 hlineto
          hintmask 10111010
          -3 55 116 -3 37 hhcurveto
          197 110 124 225 195 -101 107 -183 hvcurveto
          -10 -584 rmoveto
          -21 -73 2 4 -48 hvcurveto
          -2 133 1 96 rlineto
          146 hlineto
          3 50 -4 7 rlineto
          -145 hlineto
          2 221 rlineto
          2 40 85 2 21 hhcurveto
          136 71 -82 -170 -179 -77 -86 -135 hvcurveto
          endchar
        </CharString>
        <CharString name="Etilde">
          -49 0 66.5 229 65.5 212 68 -8 8 hstemhm
          95.5 77.5 hintmask 11101000
          140 734 rmoveto
          9 hlineto
          25 25 16 22 15 hhcurveto
          26 88 -33 -4 41 hvcurveto
          10 3 61 69 rlineto
          8 vlineto
          -24 25 rlineto
          -8 hlineto
          -25 -26 -16 -21 -15 hhcurveto
          -25 -88 31 5 -42 hvcurveto
          -10 -3 -61 -69 rlineto
          -7 vlineto
          338 -690 rmoveto
          -153 -4 -128 1 -3 133 1 95 114 1 112 -2 6 62 -5 7 -106 -3 -120 2 2 210 127 2 151 -3 rlineto
          hintmask 11011000
          7 62 -5 8 rlineto
          hintmask 11101000
          -361 hlineto
          5 -448 -5 -193 rlineto
          360 hlineto
          6 62 rlineto
          endchar
        </CharString>
        <CharString name="Euro">
          -46 -6 56 111 47 67 47 125 54 -36 -20 hstemhm
          88 68 hintmask 11110100
          309 50 rmoveto
          -75 -48 39 72 -21 hvcurveto
          184 hlineto
          3 42 -4 5 rlineto
          -191 hlineto
          -1 12 0 13 14 vvcurveto
          1 28 rlineto
          192 hlineto
          3 42 -4 5 rlineto
          -186 hlineto
          82 18 51 43 83 hhcurveto
          42 43 -13 -24 33 hvcurveto
          7 2 rlineto
          hintmask 11101100
          12 53 rlineto
          hintmask 11110100
          23 -38 -48 13 -47 hhcurveto
          -123 -77 -64 -115 -24 hvcurveto
          -75 hlineto
          -3 -42 4 -5 rlineto
          68 hlineto
          -1 -11 0 -11 0 -11 0 -12 1 -11 -11 flex1
          -69 hlineto
          -3 -42 4 -5 rlineto
          74 hlineto
          -108 23 71 -59 118 hhcurveto
          44 49 14 25 42 hvcurveto
          6 52 -9 5 rlineto
          -26 -37 -50 -14 -42 hhcurveto
          endchar
        </CharString>
        <CharString name="F">
          -97 21 -21 283.5 64.5 225 68 -8 8 hstemhm
          95.5 77.5 hintmask 11101000
          174 572 rmoveto
          112 2 147 -5 rlineto
          hintmask 11011000
          7 64 -6 8 rlineto
          hintmask 11101000
          -341 hlineto
          5 -448 -5 -193 rlineto
          81 hlineto
          -4 200 1 83 101 1 111 -3 7 61 -6 8 -104 -3 -108 2 rlineto
          endchar
        </CharString>
        <CharString name="G">
          69 -7 68 518 67 hstem
          38 83 338 75 vstem
          350 646 rmoveto
          -198 -114 -117 -221 -200 92 -115 194 62 63 11 27 87 hvcurveto
          -4 140 2 86 -75 -6 1 -91 -2 -75 rlineto
          -18 -60 -32 -6 -38 hhcurveto
          -140 -67 77 173 183 75 85 142 60 50 -16 -40 64 hvcurveto
          10 2 16 76 rlineto
          32 -62 -61 13 -65 hhcurveto
          endchar
        </CharString>
        <CharString name="Gbreve">
          69 -7 68 518 67 78 57 hstem
          38 83 339 73 vstem
          430 842 rmoveto
          -12 hlineto
          -38 -15 -31 -23 -45 hhcurveto
          -47 -32 23 38 -14 hvcurveto
          -12 hlineto
          -22 -28 rlineto
          -58 18 44 -32 62 hhcurveto
          62 46 32 58 21 hvcurveto
          -103 -168 rmoveto
          -198 -114 -117 -221 -200 92 -115 194 62 63 11 27 87 hvcurveto
          -4 140 2 86 -75 -6 2 -91 -3 -75 rlineto
          -18 -60 -32 -6 -38 hhcurveto
          -140 -67 77 173 183 75 85 142 60 50 -16 -40 64 hvcurveto
          10 2 17 76 rlineto
          32 -63 -60 13 -66 hhcurveto
          endchar
        </CharString>
        <CharString name="Gcircumflex">
          69 -7 68 518 67 hstem
          38 83 339 73 vstem
          214 733 rmoveto
          10 hlineto
          35 22 33 21 34 23 34 -23 33 -21 36 -22 rrcurveto
          9 hlineto
          16 34 -41 29 -40 30 -36 32 rlinecurve
          -23 hlineto
          -35 -32 -39 -30 -42 -29 rrcurveto
          152 -121 rmoveto
          -198 -114 -117 -221 -200 92 -115 194 62 63 11 27 87 hvcurveto
          -4 140 2 86 -75 -6 2 -91 -3 -75 rlineto
          -18 -60 -32 -6 -38 hhcurveto
          -140 -67 77 173 183 75 85 142 60 50 -16 -40 64 hvcurveto
          10 2 17 76 rlineto
          32 -63 -60 13 -66 hhcurveto
          endchar
        </CharString>
        <CharString name="Gcommaaccent">
          69 -7 68 518 67 hstem
          38 83 182 62 95 73 vstem
          350 646 rmoveto
          -198 -114 -117 -221 -200 92 -115 194 62 63 11 27 87 hvcurveto
          -4 140 2 86 -75 -6 2 -91 -3 -75 rlineto
          -18 -60 -32 -6 -38 hhcurveto
          -140 -67 77 173 183 75 85 142 60 50 -16 -40 64 hvcurveto
          10 2 17 76 rlineto
          32 -63 -60 13 -66 hhcurveto
          -24 -701 rmoveto
          -19 -6 -18 -9 -15 -10 rrcurveto
          -7 vlineto
          18 -13 11 -15 -17 vvcurveto
          -27 -18 -28 -34 -27 vhcurveto
          -6 vlineto
          26 -23 rlineto
          59 43 29 41 41 vvcurveto
          25 -14 21 -25 17 vhcurveto
          endchar
        </CharString>
        <CharString name="Gdieresis">
          69 -7 68 518 67 99 89 hstemhm
          38 83 84 87 70 87 11 73 hintmask 11111010
          250 834 rmoveto
          -28 -17 -18 -27 -27 15 -17 27 28 17 19 28 26 -16 16 -26 hvcurveto
          hintmask 11111110
          157 hmoveto
          -28 -17 -18 -27 -27 15 -17 27 28 17 19 28 26 -16 16 -26 hvcurveto
          -57 -188 rmoveto
          -198 -114 -117 -221 -200 92 -115 194 hvcurveto
          hintmask 11111010
          62 63 11 27 87 hvcurveto
          -4 140 2 86 -75 -6 2 -91 -3 -75 rlineto
          -18 -60 -32 -6 -38 hhcurveto
          -140 -67 77 173 183 75 85 142 60 50 -16 -40 64 hvcurveto
          10 2 17 76 rlineto
          hintmask 11111110
          32 -63 -60 13 -66 hhcurveto
          endchar
        </CharString>
        <CharString name="Gdotaccent">
          69 -7 68 518 67 106 93 hstem
          38 83 160 91 88 73 vstem
          328 845 rmoveto
          -29 -18 -19 -28 -29 16 -17 28 29 18 19 30 27 -17 17 -27 hvcurveto
          22 -199 rmoveto
          -198 -114 -117 -221 -200 92 -115 194 62 63 11 27 87 hvcurveto
          -4 140 2 86 -75 -6 2 -91 -3 -75 rlineto
          -18 -60 -32 -6 -38 hhcurveto
          -140 -67 77 173 183 75 85 142 60 50 -16 -40 64 hvcurveto
          10 2 17 76 rlineto
          32 -63 -60 13 -66 hhcurveto
          endchar
        </CharString>
        <CharString name="Germandbls">
          100 -7 65 -37 -21 580 66 hstemhm
          76.5 75.5 370 79 hintmask 10111000
          320 646 rmoveto
          -152 -95 -89 -133 2 hvcurveto
          3 -234 rlineto
          hintmask 01111000
          -6 -190 rlineto
          81 hlineto
          -3 201 2 223 rlineto
          97 60 59 106 45 44 -10 -24 51 vhcurveto
          -167 -209 5 -17 rlineto
          157 -42 69 -41 -74 vvcurveto
          hintmask 10111000
          -60 -46 -45 -67 -49 -59 25 42 -45 vhcurveto
          -11 -5 -10 -82 rlineto
          -30 51 62 -15 54 hhcurveto
          110 89 66 112 103 -75 49 -134 41 hvcurveto
          167 204 -4 16 rlineto
          37 -78 -76 25 -81 hhcurveto
          endchar
        </CharString>
        <CharString name="Gtilde">
          69 -7 68 518 67 hstem
          38 83 339 73 vstem
          483 824 rmoveto
          -24 25 rlineto
          -8 hlineto
          -25 -26 -16 -21 -15 hhcurveto
          -25 -88 31 5 -42 hvcurveto
          -10 -3 -61 -69 rlineto
          -7 vlineto
          24 -26 rlineto
          9 hlineto
          25 25 16 22 15 hhcurveto
          26 88 -33 -4 41 hvcurveto
          10 3 61 69 rlineto
          -133 -170 rmoveto
          -198 -114 -117 -221 -200 92 -115 194 62 63 11 27 87 hvcurveto
          -4 140 2 86 -75 -6 2 -91 -3 -75 rlineto
          -18 -60 -32 -6 -38 hhcurveto
          -140 -67 77 173 183 75 85 142 60 50 -16 -40 64 hvcurveto
          10 2 17 76 rlineto
          32 -63 -60 13 -66 hhcurveto
          endchar
        </CharString>
        <CharString name="H">
          152 21 -21 290.5 67 283.5 -20 hstem
          95.5 78 336.5 78 vstem
          586 200 rmoveto
          4 441 rlineto
          -82 hlineto
          4 -282 -172 -3 -168 3 3 282 rlineto
          -82 hlineto
          5 -448 -5 -193 rlineto
          81 hlineto
          -4 200 1 89 162 3 180 -3 1 -96 -6 -193 rlineto
          81 hlineto
          endchar
        </CharString>
        <CharString name="Hbar">
          184 21 -21 290.5 67 120.5 56 -56 163 hstemhm
          107.5 81 -78 76 336 81 -78.5 76.5 hintmask 11100101
          603 478 rmoveto
          hintmask 11100110
          68 hlineto
          4 50 -5 6 rlineto
          -67 hlineto
          hintmask 11010110
          1 107 rlineto
          -82 hlineto
          hintmask 11101010
          1 -107 rlineto
          -335 hlineto
          hintmask 11011001
          1 107 rlineto
          -82 hlineto
          hintmask 11101001
          1 -107 rlineto
          hintmask 11100101
          -64 hlineto
          -4 -52 5 -4 rlineto
          64 hlineto
          3 -285 -5 -193 rlineto
          81 hlineto
          -4 200 1 89 163 3 179 -3 1 -96 -6 -193 rlineto
          81 hlineto
          -3 200 rlineto
          -76 278 rmoveto
          2 -119 -172 -3 -168 3 1 119 rlineto
          endchar
        </CharString>
        <CharString name="Hcircumflex">
          152 21 -21 290.5 67 283.5 -20 hstem
          95.5 78 336 78 vstem
          226 733 rmoveto
          10 hlineto
          35 22 33 21 34 23 34 -23 33 -21 36 -22 rrcurveto
          9 hlineto
          16 34 -41 29 -40 30 -36 32 rlinecurve
          -23 hlineto
          -35 -32 -39 -30 -42 -29 rrcurveto
          375 -567 rmoveto
          5 441 rlineto
          -82 hlineto
          3 -282 -170 -3 -169 3 3 282 rlineto
          -82 hlineto
          5 -448 -5 -193 rlineto
          81 hlineto
          -4 200 1 89 163 3 178 -3 1 -96 -5 -193 rlineto
          81 hlineto
          endchar
        </CharString>
        <CharString name="I">
          -263 21 -21 641 -20 hstem
          95.5 77 vstem
          170 200 rmoveto
          5 441 rlineto
          -82 hlineto
          5 -448 -5 -193 rlineto
          81 hlineto
          endchar
        </CharString>
        <CharString name="I.ss01">
          -272 0 35 429 34 hstem
          91.5 72 vstem
          162 157 rmoveto
          3 307 rlineto
          194 34 -459 -34 190 hlineto
          3 -314 -2 -115 rlineto
          -191 -35 459 35 -195 hlineto
          endchar
        </CharString>
        <CharString name="IJ">
          47 -81 -21 123 -21 575.5 65.5 hstem
          95.5 77 236.5 74 vstem
          175 641 rmoveto
          -82 hlineto
          5 -448 -5 -193 rlineto
          81 hlineto
          -4 200 rlineto
          311 12 rmoveto
          4 429 rlineto
          -206 hlineto
          -5 -59 8 -7 123 1 4 -372 rlineto
          -87 vlineto
          -76 -38 -40 -89 -48 vhcurveto
          -10 vlineto
          31 -45 rlineto
          125 60 45 59 101 vvcurveto
          endchar
        </CharString>
        <CharString name="Iacute">
          -263 21 -21 641 -20 hstem
          95.5 77 vstem
          251 861 rmoveto
          -9 2 -68 -40 -61 -32 -63 -31 rlinecurve
          14 -36 10 -4 64 27 62 27 69 32 rlinecurve
          2 8 rlineto
          -101 -614 rmoveto
          5 441 rlineto
          -82 hlineto
          5 -448 -5 -193 rlineto
          81 hlineto
          endchar
        </CharString>
        <CharString name="Iacute_J.loclNLD">
          47 -81 -21 123 -21 575.5 65.5 165 56 hstem
          95.5 77 236.5 74 vstem
          251 861 rmoveto
          -9 2 -68 -40 -61 -32 -63 -31 rlinecurve
          14 -36 10 -4 64 27 62 27 69 32 rlinecurve
          2 8 rlineto
          267 hmoveto
          -20 47 -9 2 -68 -40 -61 -32 -63 -31 rlinecurve
          14 -36 10 -4 64 27 62 27 69 32 rlinecurve
          -361 -165 rmoveto
          -82 hlineto
          5 -448 -5 -193 rlineto
          81 hlineto
          -4 200 rlineto
          315 441 rmoveto
          -206 hlineto
          -5 -59 8 -7 123 1 4 -372 rlineto
          -87 vlineto
          -76 -38 -40 -89 -48 vhcurveto
          -10 vlineto
          31 -45 rlineto
          125 60 45 59 101 vvcurveto
          -2 94 rlineto
          endchar
        </CharString>
        <CharString name="Ibreve">
          -263 21 -21 641 -20 103 57 hstem
          95.5 77 vstem
          238 842 rmoveto
          -12 hlineto
          -38 -15 -31 -23 -45 hhcurveto
          -47 -32 23 38 -14 hvcurveto
          -12 hlineto
          -22 -28 rlineto
          -58 18 44 -32 62 hhcurveto
          62 46 32 58 21 hvcurveto
          -91 -614 rmoveto
          5 441 rlineto
          -82 hlineto
          5 -448 -5 -193 rlineto
          81 hlineto
          endchar
        </CharString>
        <CharString name="Icaron">
          -263 21 -21 641 -20 hstem
          95.5 77 vstem
          247 848 rmoveto
          -10 hlineto
          -35 -22 -33 -21 -34 -23 -34 23 -33 21 -36 22 rrcurveto
          -9 hlineto
          -16 -34 41 -29 40 -30 36 -32 rlinecurve
          23 hlineto
          35 32 39 30 42 29 rrcurveto
          -93 -614 rmoveto
          5 441 rlineto
          -82 hlineto
          5 -448 -5 -193 rlineto
          81 hlineto
          endchar
        </CharString>
        <CharString name="Icircumflex">
          -263 21 -21 641 -20 hstem
          95.5 77 vstem
          22 733 rmoveto
          10 hlineto
          35 22 33 21 34 23 34 -23 33 -21 36 -22 rrcurveto
          9 hlineto
          16 34 -41 29 -40 30 -36 32 rlinecurve
          -23 hlineto
          -35 -32 -39 -30 -42 -29 rrcurveto
          164 -567 rmoveto
          5 441 rlineto
          -82 hlineto
          5 -448 -5 -193 rlineto
          81 hlineto
          endchar
        </CharString>
        <CharString name="Idieresis">
          -263 21 -21 641 -20 123 89 hstemhm
          27 87 -18.5 77 -17.5 87 hintmask 00000000
          hintmask 11110100
          72 833 rmoveto
          -28 -17 -18 -27 -27 15 -17 27 28 17 19 28 26 -16 16 -26 hvcurveto
          128 hmoveto
          -28 -17 -18 -27 -27 15 -17 27 28 17 19 28 26 -16 16 -26 hvcurveto
          hintmask 11101000
          -30 -633 rmoveto
          5 441 rlineto
          -82 hlineto
          5 -448 -5 -193 rlineto
          81 hlineto
          endchar
        </CharString>
        <CharString name="Idotaccent">
          -263 21 -21 641 -20 131 93 hstemhm
          88 91 -83.5 77 hintmask 00000000
          hintmask 11110000
          135 845 rmoveto
          -29 -18 -19 -28 -29 16 -17 28 29 18 19 30 27 -17 17 -27 hvcurveto
          hintmask 11101000
          35 -645 rmoveto
          5 441 rlineto
          -82 hlineto
          5 -448 -5 -193 rlineto
          81 hlineto
          endchar
        </CharString>
        <CharString name="Idotbelow">
          -263 -163 93 91 -21 641 -20 hstemhm
          83 91 -78.5 77 hintmask 11101000
          170 200 rmoveto
          5 441 rlineto
          -82 hlineto
          5 -448 -5 -193 rlineto
          81 hlineto
          hintmask 11110000
          -44 -70 rmoveto
          -29 -18 -19 -28 -29 16 -17 28 29 18 19 29 28 -17 17 -27 hvcurveto
          endchar
        </CharString>
        <CharString name="Igrave">
          -263 21 -21 641 -20 hstem
          95.5 77 vstem
          44 862 rmoveto
          -20 -47 2 -8 69 -32 62 -27 64 -27 rlinecurve
          10 4 14 36 -63 31 -61 32 -68 40 rlinecurve
          117 -664 rmoveto
          5 441 rlineto
          -82 hlineto
          5 -448 -5 -193 rlineto
          81 hlineto
          endchar
        </CharString>
        <CharString name="Ihookabove">
          -263 21 -21 641 -20 229 44 hstemhm
          95.5 77 -28.5 49 hintmask 00000000
          hintmask 11101000
          130 894 rmoveto
          -29 -32 -16 -26 -25 hvcurveto
          16 -26 rlineto
          16 19 22 8 17 hhcurveto
          16 10 -7 -14 -17 -18 -25 -32 -23 hvcurveto
          32 -55 35 19 -20 34 rlineto
          36 30 16 21 24 vvcurveto
          32 -27 25 -36 vhcurveto
          hintmask 11110000
          40 -694 rmoveto
          5 441 rlineto
          -82 hlineto
          5 -448 -5 -193 rlineto
          81 hlineto
          endchar
        </CharString>
        <CharString name="Imacron">
          -263 21 -21 641 -20 143 52 hstem
          95.5 77 vstem
          247 811 rmoveto
          -5 5 rlineto
          -217 hlineto
          -4 -46 5 -6 rlineto
          217 hlineto
          -73 -564 rmoveto
          5 441 rlineto
          -82 hlineto
          5 -448 -5 -193 rlineto
          81 hlineto
          endchar
        </CharString>
        <CharString name="Iogonek">
          -263 -197 54 164 -21 641 -20 hstemhm
          36 53 6.5 77 hintmask 00000000
          hintmask 11110000
          170 -119 rmoveto
          -6 hlineto
          -15 -13 -14 -9 -16 hhcurveto
          -19 -13 11 23 22 12 28 41 59 hvcurveto
          hintmask 11101000
          32 hlineto
          -4 200 5 441 rlineto
          -82 hlineto
          5 -448 -5 -193 rlineto
          -1 hlineto
          hintmask 11110000
          -43 -60 -13 -30 -31 vvcurveto
          -47 30 -29 44 27 22 11 20 21 vhcurveto
          endchar
        </CharString>
        <CharString name="Itilde">
          -263 21 -21 641 -20 hstem
          95.5 77 vstem
          274 821 rmoveto
          -25 25 rlineto
          -7 hlineto
          -24 -23 -13 -21 -15 hhcurveto
          -21 -74 31 5 -37 hvcurveto
          -9 -4 -55 -68 rlineto
          -7 vlineto
          24 -26 rlineto
          8 hlineto
          25 22 13 21 15 hhcurveto
          21 74 -32 -5 38 hvcurveto
          8 3 56 69 rlineto
          -104 -613 rmoveto
          5 441 rlineto
          -82 hlineto
          5 -448 -5 -193 rlineto
          81 hlineto
          endchar
        </CharString>
        <CharString name="J">
          -221 -81 -21 677.5 65.5 hstem
          141 74 vstem
          213 212 rmoveto
          4 429 rlineto
          -206 hlineto
          -5 -59 8 -7 123 1 4 -372 rlineto
          -87 vlineto
          -76 -38 -40 -89 -48 vhcurveto
          -10 vlineto
          31 -45 rlineto
          125 60 45 59 101 vvcurveto
          endchar
        </CharString>
        <CharString name="Jcircumflex">
          -221 -81 -21 677.5 65.5 hstem
          141 74.5 vstem
          121 858 rmoveto
          -35 -32 -39 -30 -42 -29 16 -34 rcurveline
          10 hlineto
          35 22 33 21 34 23 34 -23 33 -21 36 -22 rrcurveto
          9 hlineto
          16 34 -41 29 -40 30 -36 32 rlinecurve
          74 -217 rmoveto
          -207 hlineto
          -5 -59 8 -7 124 1 3 -372 rlineto
          -87 vlineto
          -76 -37 -40 -90 -48 vhcurveto
          -10 vlineto
          31 -45 rlineto
          125 60 45 59 101 vvcurveto
          -2 94 rlineto
          endchar
        </CharString>
        <CharString name="K">
          15 12 -21 30 -21 641 -20 hstemhm
          94.5 77 hintmask 01110000
          169 200 rmoveto
          5 441 rlineto
          -82 hlineto
          5 -448 -5 -193 rlineto
          81 hlineto
          355 641 rmoveto
          -91 hlineto
          -39 -56 -214 -244 rlineto
          -6 vlineto
          hintmask 10110000
          86 -117 94 -113 96 -109 9 -5 rcurveline
          26 4 26 5 24 7 1 10 rcurveline
          -97 101 -95 112 -85 110 rrcurveto
          endchar
        </CharString>
        <CharString name="Kcommaaccent">
          15 12 -21 30 -21 641 -20 hstemhm
          94.5 77 111.5 62 hintmask 01110000
          169 200 rmoveto
          5 441 rlineto
          -82 hlineto
          5 -448 -5 -193 rlineto
          81 hlineto
          356 641 rmoveto
          -91 hlineto
          -40 -56 -214 -244 rlineto
          -6 vlineto
          hintmask 10111000
          86 -117 95 -113 95 -109 10 -5 rcurveline
          26 4 25 5 25 7 1 10 rcurveline
          -97 101 -96 112 -85 110 rrcurveto
          37 -395 rmoveto
          -19 -6 -18 -9 -15 -10 rrcurveto
          -7 vlineto
          18 -13 11 -15 -17 vvcurveto
          -27 -18 -28 -34 -27 vhcurveto
          -6 vlineto
          26 -23 rlineto
          59 43 29 41 41 vvcurveto
          25 -14 21 -25 17 vhcurveto
          endchar
        </CharString>
        <CharString name="L">
          -115 0 67 -7 7 574 -20 hstemhm
          92.5 77 hintmask 00000000
          hintmask 01110000
          413 60 rmoveto
          -6 7 rlineto
          hintmask 10110000
          -237 hlineto
          -3 133 5 441 rlineto
          -82 hlineto
          5 -448 -5 -193 rlineto
          316 hlineto
          endchar
        </CharString>
        <CharString name="L.ss01">
          -138 0 35 -35 64 400 34 hstemhm
          90.5 69.5 160.5 53.5 hintmask 10111000
          160 168 rmoveto
          3 296 rlineto
          330 34 -593 -34 189 hlineto
          3 -303 -2 -126 rlineto
          -190 -35 593 35 -120 hlineto
          hintmask 01111000
          2 117 -52 -3 -5 -85 rlineto
          -158 hlineto
          endchar
        </CharString>
        <CharString name="Lacute">
          -115 0 67 -7 7 574 -20 hstemhm
          92.5 77 hintmask 10110000
          135 724 rmoveto
          10 -4 64 27 62 27 69 32 rlinecurve
          2 8 -20 47 -9 2 -68 -40 -61 -32 -63 -31 rlinecurve
          hintmask 01110000
          292 -700 rmoveto
          -6 7 rlineto
          hintmask 10110000
          -237 hlineto
          -3 133 5 441 rlineto
          -82 hlineto
          5 -448 -5 -193 rlineto
          316 hlineto
          endchar
        </CharString>
        <CharString name="Lcaron">
          -107 0 67 -7 7 574 -20 hstemhm
          92.5 77 145 42.5 hintmask 00000000
          hintmask 01110000
          413 60 rmoveto
          -6 7 rlineto
          hintmask 10111000
          -237 hlineto
          -3 133 5 441 rlineto
          -82 hlineto
          5 -448 -5 -193 rlineto
          316 hlineto
          -87 398 rmoveto
          38 6 23 172 -6 7 -57 -4 -5 -175 rlineto
          endchar
        </CharString>
        <CharString name="Lcommaaccent">
          -115 0 67 -7 7 574 -20 hstemhm
          92.5 77 61.5 62 hintmask 00000000
          hintmask 01110000
          413 60 rmoveto
          -6 7 rlineto
          hintmask 10111000
          -237 hlineto
          -3 133 5 441 rlineto
          -82 hlineto
          5 -448 -5 -193 rlineto
          316 hlineto
          -152 -55 rmoveto
          -19 -6 -18 -9 -15 -10 rrcurveto
          -7 vlineto
          18 -13 11 -15 -17 vvcurveto
          -27 -18 -28 -34 -27 vhcurveto
          -6 vlineto
          26 -23 rlineto
          59 43 29 41 41 vvcurveto
          25 -14 21 -25 17 vhcurveto
          endchar
        </CharString>
        <CharString name="Ldot">
          -115 0 67 -7 7 265 93 216 -20 hstemhm
          92.5 77 122.5 91 hintmask 00000000
          hintmask 01111000
          413 60 rmoveto
          -6 7 rlineto
          hintmask 10111100
          -237 hlineto
          -3 133 5 441 rlineto
          -82 hlineto
          5 -448 -5 -193 rlineto
          316 hlineto
          -70 332 rmoveto
          29 18 19 30 27 -17 17 -27 -29 -18 -19 -28 -29 16 -17 28 hvcurveto
          endchar
        </CharString>
        <CharString name="Lslash">
          -102 0 67 -7 7 395 -20 199 -20 hstemhm
          106.5 76 hintmask 00000000
          hintmask 01111000
          427 60 rmoveto
          -6 7 rlineto
          hintmask 10111000
          -237 hlineto
          -3 133 1 128 155 83 -15 47 -9 4 -130 -68 2 247 rlineto
          -81 hlineto
          3 -287 -97 -51 15 -48 10 -5 73 39 1 -96 -5 -193 rlineto
          316 hlineto
          endchar
        </CharString>
        <CharString name="M">
          258 21 -21 74 104 336 127 hstem
          60 668 vstem
          728 hmoveto
          -63 641 rlineto
          -90 hlineto
          -33 -92 -146 -371 rlineto
          -6 hlineto
          -139 365 -33 98 rlineto
          -91 hlineto
          -67 -641 rlineto
          68 hlineto
          17 201 34 313 rlineto
          8 hlineto
          169 -440 rlineto
          66 hlineto
          178 440 rlineto
          7 hlineto
          34 -319 15 -195 rlineto
          endchar
        </CharString>
        <CharString name="M.ss01">
          152 0 35 49 92 208 114 -34 34 hstemhm
          -100 883 hintmask 11011000
          559 464 rmoveto
          224 34 -883 -34 222 hlineto
          -47 -429 rlineto
          -175 -35 883 35 -180 hlineto
          -136 429 rmoveto
          -17 -40 -108 -248 rlineto
          -6 hlineto
          -104 245 -15 43 rlineto
          323 -429 rmoveto
          -404 hlineto
          11 134 rlineto
          hintmask 11101000
          25 215 rlineto
          4 hlineto
          130 -300 rlineto
          58 hlineto
          137 300 rlineto
          5 hlineto
          24 -220 rlineto
          endchar
        </CharString>
        <CharString name="N">
          152 0 128 -107 -21 513 128 0 -20 22 -20 hstemhm
          96.5 69 350 72.5 hintmask 01001110
          585 188 rmoveto
          6 455 -76 -6 rlineto
          hintmask 10010110
          1 -509 rlineto
          -7 hlineto
          -330 513 rlineto
          -84 hlineto
          3 -451 -5 -190 rlineto
          75 hlineto
          -3 211 rlineto
          hintmask 01100110
          1 302 rlineto
          6 hlineto
          331 -513 rlineto
          84 hlineto
          endchar
        </CharString>
        <CharString name="Nacute">
          152 0 128 -107 -21 513 128 0 -20 22 -20 hstemhm
          96.5 69 350 72.5 hintmask 01001110
          457 861 rmoveto
          -9 2 -68 -40 -61 -32 -63 -31 rlinecurve
          14 -36 10 -4 64 27 62 27 69 32 rlinecurve
          2 8 rlineto
          108 -626 rmoveto
          6 455 -76 -6 rlineto
          hintmask 10010110
          1 -509 rlineto
          -6 hlineto
          -331 513 rlineto
          -84 hlineto
          3 -451 -5 -190 rlineto
          76 hlineto
          -4 211 rlineto
          hintmask 01100110
          1 302 rlineto
          7 hlineto
          330 -513 rlineto
          84 hlineto
          endchar
        </CharString>
        <CharString name="Ncaron">
          152 0 128 -107 -21 513 128 0 -20 22 -20 hstemhm
          96.5 69 350 72.5 hintmask 01001110
          452 848 rmoveto
          -10 hlineto
          -35 -22 -33 -21 -34 -23 -34 23 -33 21 -36 22 rrcurveto
          -9 hlineto
          -16 -34 41 -29 40 -30 36 -32 rlinecurve
          23 hlineto
          35 32 39 30 42 29 rrcurveto
          117 -626 rmoveto
          6 455 -76 -6 rlineto
          hintmask 10010110
          1 -509 rlineto
          -6 hlineto
          -331 513 rlineto
          -84 hlineto
          3 -451 -5 -190 rlineto
          76 hlineto
          -4 211 rlineto
          hintmask 01100110
          1 302 rlineto
          7 hlineto
          330 -513 rlineto
          84 hlineto
          endchar
        </CharString>
        <CharString name="Ncommaaccent">
          152 0 128 -107 -21 513 128 0 -20 22 -20 hstemhm
          96.5 69 168.5 62 119.5 72.5 hintmask 01001101
          585 188 rmoveto
          6 455 -76 -6 rlineto
          hintmask 10010101
          1 -509 rlineto
          -6 hlineto
          -331 513 rlineto
          -84 hlineto
          3 -451 -5 -190 rlineto
          76 hlineto
          -4 211 rlineto
          hintmask 01100111
          1 302 rlineto
          7 hlineto
          330 -513 rlineto
          84 hlineto
          -230 -55 rmoveto
          -19 -6 -18 -9 -15 -10 rrcurveto
          -7 vlineto
          18 -13 11 -15 -17 vvcurveto
          -27 -18 -28 -34 -27 vhcurveto
          -6 vlineto
          26 -23 rlineto
          59 43 29 41 41 vvcurveto
          25 -14 21 -25 17 vhcurveto
          endchar
        </CharString>
        <CharString name="Ntilde">
          152 0 128 -107 -21 513 128 0 -20 22 -20 hstemhm
          96.5 69 350 72.5 hintmask 01001110
          496 824 rmoveto
          -24 25 rlineto
          -8 hlineto
          -25 -26 -16 -21 -15 hhcurveto
          -25 -88 31 5 -42 hvcurveto
          -10 -3 -61 -69 rlineto
          -7 vlineto
          24 -26 rlineto
          9 hlineto
          25 25 16 22 15 hhcurveto
          26 88 -33 -4 41 hvcurveto
          10 3 61 69 rlineto
          89 -628 rmoveto
          6 455 -76 -6 rlineto
          hintmask 10010110
          1 -509 rlineto
          -6 hlineto
          -331 513 rlineto
          -84 hlineto
          3 -451 -5 -190 rlineto
          76 hlineto
          -4 211 rlineto
          hintmask 01100110
          1 302 rlineto
          7 hlineto
          330 -513 rlineto
          84 hlineto
          endchar
        </CharString>
        <CharString name="O">
          104 -8 67 522 66 hstem
          38 82 395 83 vstem
          326 647 rmoveto
          -185 -103 -118 -214 -206 98 -117 174 184 104 123 218 202 -97 112 -175 hvcurveto
          -7 -66 rmoveto
          131 65 -84 -178 -175 -68 -85 -132 -130 -65 86 180 172 66 84 133 hvcurveto
          endchar
        </CharString>
        <CharString name="OE">
          320 -12 66 -54 66.5 229 65.5 213 67 -55 67 -20 8 hstemhm
          38 82 343 76 hintmask 00000000
          hintmask 10101011
          355 653 rmoveto
          -201 -116 -124 -213 -207 110 -121 192 hvcurveto
          hintmask 01110011
          61 64 13 -1 59 hvcurveto
          297 hlineto
          7 62 -6 8 -157 -4 -125 1 -1 128 rlineto
          100 vlineto
          110 1 117 -2 7 62 -5 7 -113 -3 -114 2 1 212 rlineto
          135 hlineto
          144 -3 rlineto
          hintmask 01100111
          6 62 -5 8 rlineto
          hintmask 01110011
          -298 hlineto
          hintmask 10101011
          -56 -51 12 -62 hhcurveto
          -6 -67 rmoveto
          42 44 -7 -6 14 hvcurveto
          10 -3 4 -9 -25 vvcurveto
          4 -437 rlineto
          -20 -7 -9 -18 -6 vhcurveto
          -4 -15 -42 -6 -37 hhcurveto
          -154 -74 91 176 175 78 90 151 hvcurveto
          endchar
        </CharString>
        <CharString name="Oacute">
          104 -8 67 522 66 hstem
          38 82 395 83 vstem
          436 861 rmoveto
          -9 2 -68 -40 -61 -32 -63 -31 rlinecurve
          14 -36 10 -4 64 27 62 27 69 32 rlinecurve
          2 8 rlineto
          -130 -167 rmoveto
          -185 -103 -118 -214 -206 98 -117 174 184 104 123 218 202 -97 112 -175 hvcurveto
          -7 -66 rmoveto
          131 65 -84 -178 -175 -68 -85 -132 -130 -65 86 180 172 66 84 133 hvcurveto
          endchar
        </CharString>
        <CharString name="Obreve">
          104 -8 67 522 66 77 57 hstem
          38 82 395 83 vstem
          423 842 rmoveto
          -12 hlineto
          -38 -15 -31 -23 -45 hhcurveto
          -47 -32 23 38 -14 hvcurveto
          -12 hlineto
          -22 -28 rlineto
          -58 18 44 -32 62 hhcurveto
          62 46 32 58 21 hvcurveto
          -120 -167 rmoveto
          -185 -103 -118 -214 -206 98 -117 174 184 104 123 218 202 -97 112 -175 hvcurveto
          -7 -66 rmoveto
          131 65 -84 -178 -175 -68 -85 -132 -130 -65 86 180 172 66 84 133 hvcurveto
          endchar
        </CharString>
        <CharString name="Ocaron">
          104 -8 67 522 66 hstem
          38 82 395 83 vstem
          431 848 rmoveto
          -10 hlineto
          -35 -22 -33 -21 -34 -23 -34 23 -33 21 -36 22 rrcurveto
          -9 hlineto
          -16 -34 41 -29 40 -30 36 -32 rlinecurve
          23 hlineto
          35 32 39 30 42 29 rrcurveto
          -121 -167 rmoveto
          -185 -103 -118 -214 -206 98 -117 174 184 104 123 218 202 -97 112 -175 hvcurveto
          -7 -66 rmoveto
          131 65 -84 -178 -175 -68 -85 -132 -130 -65 86 180 172 66 84 133 hvcurveto
          endchar
        </CharString>
        <CharString name="Ocircumflex">
          104 -8 67 522 66 hstem
          38 82 395 83 vstem
          206 733 rmoveto
          10 hlineto
          35 22 33 21 34 23 34 -23 33 -21 36 -22 rrcurveto
          9 hlineto
          16 34 -41 29 -40 30 -36 32 rlinecurve
          -23 hlineto
          -35 -32 -39 -30 -42 -29 rrcurveto
          136 -120 rmoveto
          -185 -103 -118 -214 -206 98 -117 174 184 104 123 218 202 -97 112 -175 hvcurveto
          -7 -66 rmoveto
          131 65 -84 -178 -175 -68 -85 -132 -130 -65 86 180 172 66 84 133 hvcurveto
          endchar
        </CharString>
        <CharString name="Ocircumflexacute">
          104 -8 67 522 66 hstem
          38 82 395 83 vstem
          489 927 rmoveto
          -40 20 -7 -2 -70 -103 28 -23 rlineto
          8 hlineto
          82 100 rlineto
          -284 -206 rmoveto
          10 hlineto
          35 22 33 21 34 23 34 -23 33 -21 36 -22 rrcurveto
          9 hlineto
          16 34 -41 29 -40 30 -36 32 rlinecurve
          -23 hlineto
          -35 -32 -39 -30 -42 -29 rrcurveto
          136 -100 rmoveto
          -185 -103 -118 -214 -206 98 -117 174 184 104 123 218 202 -97 112 -175 hvcurveto
          -7 -66 rmoveto
          131 65 -84 -178 -175 -68 -85 -132 -130 -65 86 180 172 66 84 133 hvcurveto
          endchar
        </CharString>
        <CharString name="Ocircumflexdotbelow">
          104 -163 93 62 67 522 66 hstem
          38 82 151 91 153 83 vstem
          216 726 rmoveto
          10 hlineto
          35 22 33 21 34 23 34 -23 33 -21 36 -22 rrcurveto
          9 hlineto
          16 34 -41 29 -40 30 -36 32 rlinecurve
          -23 hlineto
          -35 -32 -39 -30 -42 -29 rrcurveto
          126 -113 rmoveto
          -185 -103 -118 -214 -206 98 -117 174 184 104 123 218 202 -97 112 -175 hvcurveto
          -7 -66 rmoveto
          131 65 -84 -178 -175 -68 -85 -132 -130 -65 86 180 172 66 84 133 hvcurveto
          -1 -651 rmoveto
          -29 -18 -19 -28 -29 16 -17 28 29 18 19 29 28 -17 17 -27 hvcurveto
          endchar
        </CharString>
        <CharString name="Ocircumflexgrave">
          104 -8 67 522 66 hstem
          38 82 395 83 vstem
          387 945 rmoveto
          -7 2 -40 -20 -1 -8 81 -100 rlineto
          8 hlineto
          29 23 rlineto
          -251 -129 rmoveto
          10 hlineto
          35 22 33 21 34 23 34 -23 33 -21 36 -22 rrcurveto
          9 hlineto
          16 34 -41 29 -40 30 -36 32 rlinecurve
          -23 hlineto
          -35 -32 -39 -30 -42 -29 rrcurveto
          136 -100 rmoveto
          -185 -103 -118 -214 -206 98 -117 174 184 104 123 218 202 -97 112 -175 hvcurveto
          -7 -66 rmoveto
          131 65 -84 -178 -175 -68 -85 -132 -130 -65 86 180 172 66 84 133 hvcurveto
          endchar
        </CharString>
        <CharString name="Ocircumflexhookabove">
          104 -8 67 522 66 296 41 hstem
          38 82 308 45 42 83 vstem
          413 984 rmoveto
          -27 -30 -14 -25 -24 hvcurveto
          15 -25 rlineto
          15 18 21 8 16 hhcurveto
          15 11 -7 -13 -16 -18 -24 -30 -22 hvcurveto
          30 -52 33 18 -19 32 rlineto
          34 28 15 20 24 vvcurveto
          30 -25 23 -35 vhcurveto
          -207 -271 rmoveto
          10 hlineto
          35 22 33 21 34 23 34 -23 33 -21 36 -22 rrcurveto
          9 hlineto
          16 34 -41 29 -40 30 -36 32 rlinecurve
          -23 hlineto
          -35 -32 -39 -30 -42 -29 rrcurveto
          136 -100 rmoveto
          -185 -103 -118 -214 -206 98 -117 174 184 104 123 218 202 -97 112 -175 hvcurveto
          -7 -66 rmoveto
          131 65 -84 -178 -175 -68 -85 -132 -130 -65 86 180 172 66 84 133 hvcurveto
          endchar
        </CharString>
        <CharString name="Ocircumflextilde">
          104 -8 67 522 66 253 55 hstem
          38 82 395 83 vstem
          470 942 rmoveto
          -22 24 rlineto
          -8 hlineto
          -25 -24 -15 -20 -14 hhcurveto
          -24 -82 31 4 -40 hvcurveto
          -9 -2 -57 -67 rlineto
          -8 vlineto
          23 -24 rlineto
          8 hlineto
          24 23 15 21 15 hhcurveto
          24 82 -32 -4 39 hvcurveto
          9 3 57 67 rlineto
          -264 -221 rmoveto
          10 hlineto
          35 22 33 21 34 23 34 -23 33 -21 36 -22 rrcurveto
          9 hlineto
          16 34 -41 29 -40 30 -36 32 rlinecurve
          -23 hlineto
          -35 -32 -39 -30 -42 -29 rrcurveto
          136 -100 rmoveto
          -185 -103 -118 -214 -206 98 -117 174 184 104 123 218 202 -97 112 -175 hvcurveto
          -7 -66 rmoveto
          131 65 -84 -178 -175 -68 -85 -132 -130 -65 86 180 172 66 84 133 hvcurveto
          endchar
        </CharString>
        <CharString name="Odieresis">
          104 -8 67 522 66 97 89 hstem
          38 82 78 87 70 87 73 83 vstem
          243 833 rmoveto
          -28 -17 -18 -27 -27 15 -17 27 28 17 19 28 26 -16 16 -26 hvcurveto
          157 hmoveto
          -28 -17 -18 -27 -27 15 -17 27 28 17 19 28 26 -16 16 -26 hvcurveto
          -74 -186 rmoveto
          -185 -103 -118 -214 -206 98 -117 174 184 104 123 218 202 -97 112 -175 hvcurveto
          -7 -66 rmoveto
          131 65 -84 -178 -175 -68 -85 -132 -130 -65 86 180 172 66 84 133 hvcurveto
          endchar
        </CharString>
        <CharString name="Odotbelow">
          104 -163 93 62 67 522 66 hstem
          38 82 151 91 153 83 vstem
          326 647 rmoveto
          -185 -103 -118 -214 -206 98 -117 174 184 104 123 218 202 -97 112 -175 hvcurveto
          -7 -66 rmoveto
          131 65 -84 -178 -175 -68 -85 -132 -130 -65 86 180 172 66 84 133 hvcurveto
          -1 -651 rmoveto
          -29 -18 -19 -28 -29 16 -17 28 29 18 19 29 28 -17 17 -27 hvcurveto
          endchar
        </CharString>
        <CharString name="Ograve">
          104 -8 67 522 66 hstem
          38 82 395 83 vstem
          228 862 rmoveto
          -20 -47 2 -8 69 -32 62 -27 64 -27 rlinecurve
          10 4 14 36 -63 31 -61 32 -68 40 rlinecurve
          89 -217 rmoveto
          -185 -103 -118 -214 -206 98 -117 174 184 104 123 218 202 -97 112 -175 hvcurveto
          -7 -66 rmoveto
          131 65 -84 -178 -175 -68 -85 -132 -130 -65 86 180 172 66 84 133 hvcurveto
          endchar
        </CharString>
        <CharString name="Ohm">
          213 0 62 -43 -21 584 65 hstemhm
          89 83 52.5 95.5 102 95.5 54.5 82 hintmask 10110010
          379 647 rmoveto
          -192 -98 -135 -155 -106 46 -110 90 -75 hvcurveto
          -1 -4 rlineto
          -90 hlineto
          -87 6 rlineto
          hintmask 01110010
          -10 -64 6 -7 rlineto
          hintmask 10111110
          88 3 rlineto
          146 hlineto
          39 -2 4 4 rlineto
          64 vlineto
          -95 70 -53 119 108 vvcurveto
          121 63 98 136 136 65 -99 -121 -108 -53 -118 -97 -70 vhcurveto
          -64 vlineto
          4 -4 39 2 rlineto
          132 hlineto
          hintmask 01110010
          99 -4 rlineto
          hintmask 10110110
          9 67 -4 6 -82 -7 rlineto
          -101 hlineto
          -1 4 rlineto
          91 78 46 115 108 vvcurveto
          hintmask 10110010
          150 -87 130 -188 vhcurveto
          endchar
        </CharString>
        <CharString name="Ohookabove">
          104 -8 67 522 66 203 44 hstem
          38 82 209 49 137 83 vstem
          315 894 rmoveto
          -29 -32 -16 -26 -25 hvcurveto
          16 -26 rlineto
          16 19 22 8 17 hhcurveto
          16 10 -7 -14 -17 -18 -25 -32 -23 hvcurveto
          32 -55 35 19 -20 34 rlineto
          36 30 16 21 24 vvcurveto
          32 -27 25 -36 vhcurveto
          11 -247 rmoveto
          -185 -103 -118 -214 -206 98 -117 174 184 104 123 218 202 -97 112 -175 hvcurveto
          -7 -66 rmoveto
          131 65 -84 -178 -175 -68 -85 -132 -130 -65 86 180 172 66 84 133 hvcurveto
          endchar
        </CharString>
        <CharString name="Ohorn">
          109 -8 67 514 40 -32 66 hstemhm
          38 82 395 83 -31 64 hintmask 00000000
          hintmask 11010100
          576 765 rmoveto
          -12 -15 -7 -9 -12 hvcurveto
          -2 -8 rlineto
          21 -20 11 -25 -23 vvcurveto
          -39 -33 -21 -38 vhcurveto
          hintmask 10111000
          -47 -35 34 -92 hhcurveto
          -179 -105 -118 -214 -206 98 -117 175 183 104 126 211 hvcurveto
          hintmask 11011000
          109 -28 81 -56 54 vhcurveto
          hintmask 11010100
          66 4 51 37 65 vvcurveto
          49 -30 37 -25 vhcurveto
          hintmask 10111000
          -257 -184 rmoveto
          131 65 -84 -178 -175 -68 -85 -132 -130 -65 86 180 172 66 84 133 hvcurveto
          endchar
        </CharString>
        <CharString name="Ohornacute">
          109 -8 67 514 40 -32 66 hstemhm
          38 82 395 83 -31 64 hintmask 10111000
          436 861 rmoveto
          -9 2 -68 -40 -61 -32 -63 -31 rlinecurve
          14 -36 10 -4 64 27 62 27 69 32 rlinecurve
          2 8 rlineto
          hintmask 11010100
          120 -49 rmoveto
          -12 -15 -7 -9 -12 hvcurveto
          -2 -8 rlineto
          21 -20 11 -25 -23 vvcurveto
          -39 -33 -21 -38 vhcurveto
          hintmask 10111000
          -47 -35 34 -92 hhcurveto
          -179 -105 -118 -214 -206 98 -117 175 183 104 126 211 hvcurveto
          hintmask 11011000
          109 -28 81 -56 54 vhcurveto
          hintmask 11010100
          66 4 51 37 65 vvcurveto
          49 -30 37 -25 vhcurveto
          hintmask 10111000
          -257 -184 rmoveto
          131 65 -84 -178 -175 -68 -85 -132 -130 -65 86 180 172 66 84 133 hvcurveto
          endchar
        </CharString>
        <CharString name="Ohorndotbelow">
          109 -163 93 62 67 514 40 -32 66 hstemhm
          38 82 151 91 153 83 -31 64 hintmask 00000000
          hintmask 01101001
          576 765 rmoveto
          -12 -15 -7 -9 -12 hvcurveto
          -2 -8 rlineto
          21 -20 11 -25 -23 vvcurveto
          -39 -33 -21 -38 vhcurveto
          hintmask 01011010
          -47 -35 34 -92 hhcurveto
          -179 -105 -118 -214 -206 98 -117 175 183 104 126 211 hvcurveto
          hintmask 01101010
          109 -28 81 -56 54 vhcurveto
          hintmask 01101001
          66 4 51 37 65 vvcurveto
          49 -30 37 -25 vhcurveto
          hintmask 11011110
          -257 -184 rmoveto
          131 65 -84 -178 -175 -68 -85 -132 -130 -65 86 180 172 66 84 133 hvcurveto
          -1 -651 rmoveto
          -29 -18 -19 -28 -29 16 -17 28 29 18 19 29 28 -17 17 -27 hvcurveto
          endchar
        </CharString>
        <CharString name="Ohorngrave">
          109 -8 67 514 40 -32 66 hstemhm
          38 82 395 83 -31 64 hintmask 10111000
          228 862 rmoveto
          -20 -47 2 -8 69 -32 62 -27 64 -27 rlinecurve
          10 4 14 36 -63 31 -61 32 -68 40 rlinecurve
          hintmask 11010100
          339 -99 rmoveto
          -12 -15 -7 -9 -12 hvcurveto
          -2 -8 rlineto
          21 -20 11 -25 -23 vvcurveto
          -39 -33 -21 -38 vhcurveto
          hintmask 10111000
          -47 -35 34 -92 hhcurveto
          -179 -105 -118 -214 -206 98 -117 175 183 104 126 211 hvcurveto
          hintmask 11011000
          109 -28 81 -56 54 vhcurveto
          hintmask 11010100
          66 4 51 37 65 vvcurveto
          49 -30 37 -25 vhcurveto
          hintmask 10111000
          -257 -184 rmoveto
          131 65 -84 -178 -175 -68 -85 -132 -130 -65 86 180 172 66 84 133 hvcurveto
          endchar
        </CharString>
        <CharString name="Ohornhookabove">
          109 -8 67 514 40 -32 66 203 44 hstemhm
          38 82 209 49 137 83 -31 64 hintmask 10111110
          315 894 rmoveto
          -29 -32 -16 -26 -25 hvcurveto
          16 -26 rlineto
          16 19 22 8 17 hhcurveto
          16 10 -7 -14 -17 -18 -25 -32 -23 hvcurveto
          32 -55 35 19 -20 34 rlineto
          36 30 16 21 24 vvcurveto
          32 -27 25 -36 vhcurveto
          hintmask 11011101
          261 -129 rmoveto
          -12 -15 -7 -9 -12 hvcurveto
          -2 -8 rlineto
          21 -20 11 -25 -23 vvcurveto
          -39 -33 -21 -38 vhcurveto
          hintmask 10111110
          -47 -35 34 -92 hhcurveto
          -179 -105 -118 -214 -206 98 -117 175 183 104 126 211 hvcurveto
          hintmask 11011110
          109 -28 81 -56 54 vhcurveto
          hintmask 11011101
          66 4 51 37 65 vvcurveto
          49 -30 37 -25 vhcurveto
          hintmask 10111110
          -257 -184 rmoveto
          131 65 -84 -178 -175 -68 -85 -132 -130 -65 86 180 172 66 84 133 hvcurveto
          endchar
        </CharString>
        <CharString name="Ohorntilde">
          109 -8 67 514 40 -32 66 hstemhm
          38 82 395 83 -31 64 hintmask 10111000
          476 824 rmoveto
          -24 25 rlineto
          -8 hlineto
          -25 -26 -16 -21 -15 hhcurveto
          -25 -88 31 5 -42 hvcurveto
          -10 -3 -61 -69 rlineto
          -7 vlineto
          24 -26 rlineto
          9 hlineto
          25 25 16 22 15 hhcurveto
          26 88 -33 -4 41 hvcurveto
          10 3 61 69 rlineto
          hintmask 11010100
          100 -51 rmoveto
          -12 -15 -7 -9 -12 hvcurveto
          -2 -8 rlineto
          21 -20 11 -25 -23 vvcurveto
          -39 -33 -21 -38 vhcurveto
          hintmask 10111000
          -47 -35 34 -92 hhcurveto
          -179 -105 -118 -214 -206 98 -117 175 183 104 126 211 hvcurveto
          hintmask 11011000
          109 -28 81 -56 54 vhcurveto
          hintmask 11010100
          66 4 51 37 65 vvcurveto
          49 -30 37 -25 vhcurveto
          hintmask 10111000
          -257 -184 rmoveto
          131 65 -84 -178 -175 -68 -85 -132 -130 -65 86 180 172 66 84 133 hvcurveto
          endchar
        </CharString>
        <CharString name="Ohungarumlaut">
          104 -8 67 522 66 hstem
          38 82 395 83 vstem
          222 718 rmoveto
          9 1 41 37 39 35 38 38 rlinecurve
          9 vlineto
          -36 25 rlineto
          -8 hlineto
          -35 -42 -37 -39 -37 -40 rrcurveto
          169 -24 rmoveto
          9 1 40 37 39 35 39 38 rlinecurve
          9 vlineto
          -37 25 rlineto
          -7 hlineto
          -36 -42 -36 -39 -37 -40 rrcurveto
          -13 -95 rmoveto
          -185 -103 -118 -214 -206 98 -117 174 184 104 123 218 202 -97 112 -175 hvcurveto
          -7 -66 rmoveto
          131 65 -84 -178 -175 -68 -85 -132 -130 -65 86 180 172 66 84 133 hvcurveto
          endchar
        </CharString>
        <CharString name="Omacron">
          104 -8 67 522 66 117 52 hstem
          38 82 395 83 vstem
          466 811 rmoveto
          -6 5 rlineto
          -283 hlineto
          -5 -46 6 -6 rlineto
          283 hlineto
          -135 -117 rmoveto
          -185 -103 -118 -214 -206 98 -117 174 184 104 123 218 202 -97 112 -175 hvcurveto
          -7 -66 rmoveto
          131 65 -84 -178 -175 -68 -85 -132 -130 -65 86 180 172 66 84 133 hvcurveto
          endchar
        </CharString>
        <CharString name="Omega">
          213 0 62 -43 -21 584 65 hstemhm
          89 83 52.5 95.5 102 96 54 83 hintmask 10110010
          379 647 rmoveto
          -192 -98 -135 -155 -106 46 -110 90 -75 hvcurveto
          -1 -4 rlineto
          -90 hlineto
          -86 6 rlineto
          hintmask 01110010
          -11 -64 6 -7 rlineto
          hintmask 10111110
          88 3 rlineto
          146 hlineto
          39 -2 4 4 rlineto
          64 vlineto
          -95 70 -53 119 108 vvcurveto
          121 64 98 136 136 64 -99 -121 -108 -53 -118 -97 -70 vhcurveto
          -64 vlineto
          5 -4 38 2 rlineto
          132 hlineto
          hintmask 01110010
          99 -4 rlineto
          hintmask 10110110
          10 67 -5 6 -82 -7 rlineto
          -100 hlineto
          -2 4 rlineto
          92 78 46 115 108 vvcurveto
          hintmask 10110010
          150 -88 130 -188 vhcurveto
          endchar
        </CharString>
        <CharString name="Oogonek">
          104 -197 54 135 67 522 66 hstem
          38 82 200 52 143 83 vstem
          435 16 rmoveto
          105 45 58 110 162 vvcurveto
          202 -97 112 -175 -185 -103 -118 -214 -206 98 -117 174 22 22 2 3 20 vhcurveto
          -29 -41 rlineto
          -18 -25 -7 -25 -23 vvcurveto
          -47 31 -33 48 35 30 18 34 33 vhcurveto
          -11 40 rlineto
          -5 hlineto
          -24 -22 -25 -14 -22 hhcurveto
          -26 -14 17 23 15 6 16 12 19 hvcurveto
          -270 378 rmoveto
          172 66 84 133 131 65 -84 -178 -175 -68 -85 -132 -130 -65 86 180 vhcurveto
          endchar
        </CharString>
        <CharString name="Oslash">
          104 -81 -21 94 67 522 66 hstem
          38 82 395 83 vstem
          524 696 rmoveto
          -5 10 -48 18 -43 -92 rlineto
          10 -30 -34 5 -38 hhcurveto
          -185 -103 -118 -214 -131 39 -94 74 -52 hvcurveto
          -54 -115 4 -8 49 -17 53 112 rlineto
          -12 31 36 -6 40 hhcurveto
          184 104 123 218 130 -40 93 -76 50 hvcurveto
          -362 -281 rmoveto
          172 66 84 133 30 26 -4 -9 23 vhcurveto
          -215 -460 rlineto
          -42 43 -21 72 102 vvcurveto
          195 -266 rmoveto
          -31 -28 5 10 -24 hvcurveto
          217 462 rlineto
          44 -42 22 -72 -103 vvcurveto
          -175 -68 -85 -132 vhcurveto
          endchar
        </CharString>
        <CharString name="Oslashacute">
          104 -81 -21 94 67 522 66 hstem
          38 82 395 83 vstem
          247 726 rmoveto
          10 -4 64 27 62 27 69 32 rlinecurve
          2 8 -20 47 -9 2 -68 -40 -61 -32 -63 -31 rlinecurve
          291 -66 rmoveto
          -5 10 -48 18 -43 -92 rlineto
          10 -30 -34 5 -38 hhcurveto
          -185 -103 -118 -214 -131 39 -94 74 -52 hvcurveto
          -54 -115 4 -8 49 -17 53 112 rlineto
          -12 31 36 -6 40 hhcurveto
          184 104 123 218 130 -40 93 -76 50 hvcurveto
          -362 -281 rmoveto
          172 66 84 133 30 26 -4 -9 23 vhcurveto
          -215 -460 rlineto
          -42 43 -21 72 102 vvcurveto
          195 -266 rmoveto
          -31 -28 5 10 -24 hvcurveto
          217 462 rlineto
          44 -42 22 -72 -103 vvcurveto
          -175 -68 -85 -132 vhcurveto
          endchar
        </CharString>
        <CharString name="Otilde">
          104 -8 67 522 66 hstem
          38 82 395 83 vstem
          476 824 rmoveto
          -24 25 rlineto
          -8 hlineto
          -25 -26 -16 -21 -15 hhcurveto
          -25 -88 31 5 -42 hvcurveto
          -10 -3 -61 -69 rlineto
          -7 vlineto
          24 -26 rlineto
          9 hlineto
          25 25 16 22 15 hhcurveto
          26 88 -33 -4 41 hvcurveto
          10 3 61 69 rlineto
          -150 -169 rmoveto
          -185 -103 -118 -214 -206 98 -117 174 184 104 123 218 202 -97 112 -175 hvcurveto
          -7 -66 rmoveto
          131 65 -84 -178 -175 -68 -85 -132 -130 -65 86 180 172 66 84 133 hvcurveto
          endchar
        </CharString>
        <CharString name="P">
          -11 21 -21 225 66 283.5 67.5 hstem
          95.5 77 230.5 82 vstem
          93 641 rmoveto
          5 -448 -5 -193 rlineto
          81 hlineto
          -4 200 rlineto
          25 76 vlineto
          150 89 87 142 121 -71 67 -125 hvcurveto
          -118 -350 rmoveto
          3 281 97 3 rlineto
          86 -3 46 -40 -86 vvcurveto
          -90 -44 -54 -83 -13 vhcurveto
          endchar
        </CharString>
        <CharString name="Q">
          108 -171 -21 184 67 522 66 hstem
          38 82 395 83 vstem
          730 -128 rmoveto
          -119 22 -108 46 -94 66 rrcurveto
          121 38 68 114 172 vvcurveto
          205 -97 112 -175 -185 -103 -118 -214 -206 97 -117 177 vhcurveto
          24 1 102 -89 124 -63 127 -33 rlinecurve
          7 3 15 13 9 13 13 25 rlinecurve
          -613 460 rmoveto
          175 65 84 133 131 66 -84 -174 -178 -70 -86 -128 -131 -66 86 177 vhcurveto
          endchar
        </CharString>
        <CharString name="R">
          24 12 -21 30 -21 238 66.5 270 67.5 hstemhm
          95.5 77 230.5 83 hintmask 01111100
          354 259 rmoveto
          83 39 49 72 89 vvcurveto
          118 -72 65 -125 vhcurveto
          -196 -1 5 -448 -5 -193 rlineto
          81 hlineto
          -4 200 rlineto
          38 117 vlineto
          hintmask 10111100
          45 -81 50 -81 52 -78 11 -7 rcurveline
          26 3 24 6 24 9 1 10 rcurveline
          hintmask 01111100
          -60 79 -56 79 -50 82 rrcurveto
          -183 47 rmoveto
          3 267 97 3 rlineto
          86 -3 46 -38 -83 vvcurveto
          -78 -39 -50 -73 -21 vhcurveto
          endchar
        </CharString>
        <CharString name="Racute">
          24 12 -21 30 -21 238 66.5 270 67.5 hstemhm
          95.5 77 230.5 83 hintmask 01111100
          226 702 rmoveto
          9 -1 57 40 54 41 59 46 rlinecurve
          2 8 -30 42 -9 1 -56 -55 -53 -45 -55 -45 rlinecurve
          150 -476 rmoveto
          84 39 48 72 90 vvcurveto
          118 -71 65 -125 vhcurveto
          -197 -1 5 -448 -5 -193 rlineto
          81 hlineto
          -4 200 rlineto
          38 117 vlineto
          hintmask 10111100
          45 -81 50 -81 52 -78 11 -7 rcurveline
          26 3 24 6 24 9 1 10 rcurveline
          hintmask 01111100
          -60 78 -55 80 -51 81 rrcurveto
          -183 48 rmoveto
          3 267 97 3 rlineto
          86 -3 46 -38 -83 vvcurveto
          -78 -39 -50 -72 -21 vhcurveto
          endchar
        </CharString>
        <CharString name="Rcaron">
          24 12 -21 30 -21 238 66.5 270 67.5 hstemhm
          95.5 77 230.5 83 hintmask 01111100
          290 704 rmoveto
          43 51 40 44 39 39 -22 32 rcurveline
          -10 hlineto
          -37 -36 -34 -34 -31 -34 -30 34 -34 34 -38 36 rrcurveto
          -9 hlineto
          -22 -32 42 -41 40 -45 39 -48 rlinecurve
          88 -446 rmoveto
          84 39 48 72 90 vvcurveto
          118 -71 65 -125 vhcurveto
          -197 -1 5 -448 -5 -193 rlineto
          81 hlineto
          -4 200 rlineto
          38 117 vlineto
          hintmask 10111100
          45 -81 50 -81 52 -78 11 -7 rcurveline
          26 3 24 6 24 9 1 10 rcurveline
          hintmask 01111100
          -60 78 -55 80 -51 81 rrcurveto
          -183 48 rmoveto
          3 267 97 3 rlineto
          86 -3 46 -38 -83 vvcurveto
          -78 -39 -50 -72 -21 vhcurveto
          endchar
        </CharString>
        <CharString name="Rcommaaccent">
          24 12 -21 30 -21 238 66.5 270 67.5 hstemhm
          95.5 77 101.5 62 67 83 hintmask 01111110
          354 258 rmoveto
          84 39 48 72 90 vvcurveto
          118 -71 65 -125 vhcurveto
          -197 -1 5 -448 -5 -193 rlineto
          81 hlineto
          -4 200 rlineto
          38 117 vlineto
          hintmask 10111110
          45 -81 50 -81 52 -78 11 -7 rcurveline
          26 3 24 6 24 9 1 10 rcurveline
          hintmask 01111110
          -60 78 -55 80 -51 81 rrcurveto
          -183 48 rmoveto
          3 267 97 3 rlineto
          86 -3 46 -38 -83 vvcurveto
          -78 -39 -50 -72 -21 vhcurveto
          5 -358 rmoveto
          -19 -6 -18 -9 -15 -10 rrcurveto
          -7 vlineto
          18 -13 11 -15 -17 vvcurveto
          -27 -18 -28 -34 -27 vhcurveto
          -6 vlineto
          26 -23 rlineto
          59 43 29 41 41 vvcurveto
          25 -14 21 -25 17 vhcurveto
          endchar
        </CharString>
        <CharString name="S">
          -59 -7 65 523 65 hstem
          58 78 214 79 vstem
          267 646 rmoveto
          -124 -85 -79 -99 hvcurveto
          -186 292 19 -135 vvcurveto
          -55 -48 -53 -80 -48 -62 19 48 -49 vhcurveto
          -11 -5 -10 -82 rlineto
          -30 53 64 -15 55 hhcurveto
          129 86 84 100 hvcurveto
          185 -293 -13 128 vvcurveto
          50 43 54 78 42 45 -16 -30 39 vhcurveto
          14 4 13 77 rlineto
          22 -54 -51 8 -38 hhcurveto
          endchar
        </CharString>
        <CharString name="Sacute">
          -59 -7 65 523 65 hstem
          58 78 214 79 vstem
          347 878 rmoveto
          -9 1 -56 -55 -53 -45 -55 -45 rlinecurve
          22 -32 9 -1 57 40 54 41 59 46 rlinecurve
          2 8 rlineto
          -110 -190 rmoveto
          -124 -85 -79 -99 hvcurveto
          -186 292 19 -135 vvcurveto
          -55 -48 -53 -80 -48 -62 19 48 -49 vhcurveto
          -11 -5 -10 -82 rlineto
          -30 53 64 -15 55 hhcurveto
          129 86 84 100 hvcurveto
          185 -293 -13 128 vvcurveto
          50 43 54 78 42 45 -16 -30 39 vhcurveto
          14 4 13 77 rlineto
          22 -54 -51 8 -38 hhcurveto
          endchar
        </CharString>
        <CharString name="Scaron">
          -59 -7 65 523 65 hstem
          58 78 214 79 vstem
          359 870 rmoveto
          -10 hlineto
          -37 -36 -34 -34 -31 -34 -30 34 -34 34 -38 36 rrcurveto
          -9 hlineto
          -22 -32 42 -41 40 -45 39 -48 rlinecurve
          24 hlineto
          43 51 40 44 39 39 rrcurveto
          -114 -192 rmoveto
          -124 -85 -79 -99 hvcurveto
          -186 292 19 -135 vvcurveto
          -55 -48 -53 -80 -48 -62 19 48 -49 vhcurveto
          -11 -5 -10 -82 rlineto
          -30 53 64 -15 55 hhcurveto
          129 86 84 100 hvcurveto
          185 -293 -13 128 vvcurveto
          50 43 54 78 42 45 -16 -30 39 vhcurveto
          14 4 13 77 rlineto
          22 -54 -51 8 -38 hhcurveto
          endchar
        </CharString>
        <CharString name="Scedilla">
          -59 -193 41 145 65 523 65 hstem
          58 78 122 53 39 79 vstem
          429 177 rmoveto
          185 -293 -13 128 vvcurveto
          50 43 54 78 42 45 -16 -30 39 vhcurveto
          14 4 13 77 rlineto
          22 -54 -51 8 -38 hhcurveto
          -124 -85 -79 -99 hvcurveto
          -186 292 19 -135 vvcurveto
          -55 -48 -53 -80 -48 -62 19 48 -49 vhcurveto
          -11 -5 -10 -82 51 -29 60 -15 54 -1 rlinecurve
          -18 -64 48 -29 rlineto
          12 -7 9 -6 -12 vvcurveto
          -17 -13 -10 -18 -25 -15 12 19 -17 vhcurveto
          -5 -1 -7 -40 rlineto
          -16 15 24 -15 33 hhcurveto
          48 33 27 39 22 -10 18 -28 16 hvcurveto
          -34 20 14 47 rlineto
          107 15 69 76 90 vvcurveto
          endchar
        </CharString>
        <CharString name="Scircumflex">
          -59 -7 65 523 65 hstem
          58 78 214 79 vstem
          136 705 rmoveto
          10 hlineto
          37 36 34 34 31 34 30 -34 34 -34 38 -36 rrcurveto
          9 hlineto
          22 32 -42 41 -40 45 -39 48 rlinecurve
          -24 hlineto
          -43 -51 -40 -44 -39 -39 rrcurveto
          153 -91 rmoveto
          -124 -85 -79 -99 hvcurveto
          -186 292 19 -135 vvcurveto
          -55 -48 -53 -80 -48 -62 19 48 -49 vhcurveto
          -11 -5 -10 -82 rlineto
          -30 53 64 -15 55 hhcurveto
          129 86 84 100 hvcurveto
          185 -293 -13 128 vvcurveto
          50 43 54 78 42 45 -16 -30 39 vhcurveto
          14 4 13 77 rlineto
          22 -54 -51 8 -38 hhcurveto
          endchar
        </CharString>
        <CharString name="Scommaaccent">
          -59 -7 65 523 65 hstem
          58 78 88 62 64 79 vstem
          267 646 rmoveto
          -124 -85 -79 -99 hvcurveto
          -186 292 19 -135 vvcurveto
          -55 -48 -53 -80 -48 -62 19 48 -49 vhcurveto
          -11 -5 -10 -82 rlineto
          -30 53 64 -15 55 hhcurveto
          129 86 84 100 hvcurveto
          185 -293 -13 128 vvcurveto
          50 43 54 78 42 45 -16 -30 39 vhcurveto
          14 4 13 77 rlineto
          22 -54 -51 8 -38 hhcurveto
          -20 -701 rmoveto
          -19 -6 -18 -9 -15 -10 rrcurveto
          -7 vlineto
          18 -13 11 -15 -17 vvcurveto
          -27 -18 -28 -34 -27 vhcurveto
          -6 vlineto
          26 -23 rlineto
          59 43 29 41 41 vvcurveto
          25 -14 21 -25 17 vhcurveto
          endchar
        </CharString>
        <CharString name="T">
          -41 21 -21 577 64 -8 8 hstemhm
          208.5 76 hintmask 00000000
          hintmask 10110000
          469 633 rmoveto
          -6 8 rlineto
          hintmask 11010000
          -435 hlineto
          -6 -62 5 -8 114 6 rlineto
          65 hlineto
          5 -384 -6 -193 rlineto
          81 hlineto
          -3 200 3 377 rlineto
          65 hlineto
          112 -6 rlineto
          endchar
        </CharString>
        <CharString name="Tbar">
          -41 21 -21 295 50 232 64 -8 8 hstemhm
          207 78 hintmask 11101000
          286 577 rmoveto
          65 hlineto
          112 -6 rlineto
          hintmask 11011000
          6 62 -5 8 rlineto
          hintmask 11101000
          -435 hlineto
          -7 -62 6 -8 114 6 rlineto
          64 hlineto
          2 -232 rlineto
          -96 hlineto
          -4 -44 6 -6 rlineto
          95 hlineto
          1 -102 -5 -193 rlineto
          81 hlineto
          -4 200 1 95 rlineto
          108 hlineto
          4 45 -7 5 rlineto
          -104 hlineto
          endchar
        </CharString>
        <CharString name="Tcaron">
          -41 21 -21 577 64 -8 8 hstemhm
          208 76 hintmask 11010000
          260 704 rmoveto
          43 51 40 44 39 39 -22 32 rcurveline
          -10 hlineto
          -37 -36 -34 -34 -31 -34 -30 34 -34 34 -38 36 rrcurveto
          -9 hlineto
          -22 -32 42 -41 40 -45 39 -48 rlinecurve
          hintmask 10110000
          233 -71 rmoveto
          -5 8 rlineto
          hintmask 11010000
          -435 hlineto
          -7 -62 6 -8 114 6 rlineto
          64 hlineto
          4 -384 -5 -193 rlineto
          81 hlineto
          -4 200 4 377 rlineto
          65 hlineto
          112 -6 rlineto
          endchar
        </CharString>
        <CharString name="Tcedilla">
          -41 -193 41 173 -21 577 64 -8 8 hstemhm
          208 76 -15 53 hintmask 00000000
          hintmask 11011000
          469 633 rmoveto
          -5 8 rlineto
          hintmask 11101000
          -435 hlineto
          -7 -62 6 -8 114 6 rlineto
          64 hlineto
          4 -384 -5 -193 rlineto
          hintmask 11100100
          15 hlineto
          -20 -71 48 -29 rlineto
          12 -7 9 -6 -12 vvcurveto
          -17 -13 -10 -18 -25 -15 12 19 -17 vhcurveto
          -5 -1 -7 -40 rlineto
          -16 15 24 -15 33 hhcurveto
          48 33 27 39 22 -10 18 -28 16 hvcurveto
          hintmask 11101000
          -34 20 15 51 rlineto
          21 hlineto
          -4 200 4 377 rlineto
          65 hlineto
          112 -6 rlineto
          endchar
        </CharString>
        <CharString name="Tcommaaccent">
          -41 21 -21 577 64 -8 8 hstemhm
          208 76 -48 62 hintmask 00000000
          hintmask 10110000
          469 633 rmoveto
          -5 8 rlineto
          hintmask 11010000
          -435 hlineto
          -7 -62 6 -8 114 6 rlineto
          64 hlineto
          4 -384 -5 -193 rlineto
          81 hlineto
          -4 200 4 377 rlineto
          65 hlineto
          112 -6 rlineto
          hintmask 11001000
          -204 -626 rmoveto
          -19 -6 -18 -9 -15 -10 rrcurveto
          -7 vlineto
          18 -13 11 -15 -17 vvcurveto
          -27 -18 -28 -34 -27 vhcurveto
          -6 vlineto
          26 -23 rlineto
          59 43 29 41 41 vvcurveto
          25 -14 21 -25 17 vhcurveto
          endchar
        </CharString>
        <CharString name="Thorn">
          -6 21 -21 116 65 283.5 66.5 110 -20 hstem
          95.5 75.5 234 83 vstem
          174 530 rmoveto
          1 111 rlineto
          -81 hlineto
          3 -448 -3 -193 rlineto
          80 hlineto
          -2 115 76 1 rlineto
          154 86 82 144 123 -71 66 -126 hvcurveto
          -120 -349 rmoveto
          18 vlineto
          2 263 100 3 rlineto
          86 -4 46 -41 -85 vvcurveto
          -91 -46 -50 -82 -15 vhcurveto
          endchar
        </CharString>
        <CharString name="U">
          95 -7 70 578 -20 hstem
          74.5 77 322.5 77.5 vstem
          551 315 rmoveto
          1 326 rlineto
          -80 hlineto
          4 -407 rlineto
          -114 1 -57 -57 -108 hhcurveto
          -108 -55 61 120 1 hvcurveto
          3 397 rlineto
          -79 hlineto
          1 -320 -1 -87 rlineto
          -154 -3 84 -87 151 hhcurveto
          157 90 92 158 -3 hvcurveto
          endchar
        </CharString>
        <CharString name="Uacute">
          95 -7 70 578 -20 hstem
          74.5 76.5 325 75 vstem
          433 861 rmoveto
          -9 2 -68 -40 -61 -32 -63 -31 rlinecurve
          14 -36 10 -4 64 27 62 27 69 32 rlinecurve
          2 8 rlineto
          97 -499 rmoveto
          2 326 rlineto
          -80 hlineto
          4 -407 rlineto
          -114 -57 -57 -107 -108 -56 61 120 1 vhcurveto
          4 397 rlineto
          -79 hlineto
          1 -320 -1 -87 rlineto
          -154 -3 83 -87 152 hhcurveto
          157 89 92 158 -3 hvcurveto
          endchar
        </CharString>
        <CharString name="Ubreve">
          95 -7 70 578 -20 88 57 hstem
          74.5 76.5 325 75 vstem
          420 853 rmoveto
          -12 hlineto
          -59 -13 -30 -28 -49 hhcurveto
          -48 -31 28 59 -13 hvcurveto
          -12 hlineto
          -22 -29 rlineto
          -70 14 39 -45 71 hhcurveto
          72 40 43 72 17 hvcurveto
          107 -509 rmoveto
          2 326 rlineto
          -80 hlineto
          4 -407 rlineto
          -114 -57 -57 -107 -108 -56 61 120 1 vhcurveto
          4 397 rlineto
          -79 hlineto
          1 -320 -1 -87 rlineto
          -154 -3 83 -87 152 hhcurveto
          157 89 92 158 -3 hvcurveto
          endchar
        </CharString>
        <CharString name="Ucaron">
          95 -7 70 578 -20 hstem
          74.5 76.5 325 75 vstem
          427 870 rmoveto
          -10 hlineto
          -37 -36 -34 -34 -31 -34 -30 34 -34 34 -38 36 rrcurveto
          -9 hlineto
          -22 -32 42 -41 40 -45 39 -48 rlinecurve
          24 hlineto
          43 51 40 44 39 39 rrcurveto
          101 -523 rmoveto
          2 326 rlineto
          -80 hlineto
          4 -407 rlineto
          -114 -57 -57 -107 -108 -56 61 120 1 vhcurveto
          4 397 rlineto
          -79 hlineto
          1 -320 -1 -87 rlineto
          -154 -3 83 -87 152 hhcurveto
          157 89 92 158 -3 hvcurveto
          endchar
        </CharString>
        <CharString name="Ucircumflex">
          95 -7 70 578 -20 hstem
          74.5 76.5 325 75 vstem
          203 733 rmoveto
          10 hlineto
          35 22 33 21 34 23 34 -23 33 -21 36 -22 rrcurveto
          9 hlineto
          16 34 -41 29 -40 30 -36 32 rlinecurve
          -23 hlineto
          -35 -32 -39 -30 -42 -29 rrcurveto
          363 -452 rmoveto
          2 326 rlineto
          -80 hlineto
          4 -407 rlineto
          -114 -57 -57 -107 -108 -56 61 120 1 vhcurveto
          4 397 rlineto
          -79 hlineto
          1 -320 -1 -87 rlineto
          -154 -3 83 -87 152 hhcurveto
          157 89 92 158 -3 hvcurveto
          endchar
        </CharString>
        <CharString name="Udieresis">
          95 -7 70 578 -20 123 89 hstem
          74.5 76.5 43 87 70 87 38 75 vstem
          239 833 rmoveto
          -28 -17 -18 -27 -27 15 -17 27 28 17 19 28 26 -16 16 -26 hvcurveto
          157 hmoveto
          -28 -17 -18 -27 -27 15 -17 27 28 17 19 28 26 -16 16 -26 hvcurveto
          154 -518 rmoveto
          2 326 rlineto
          -80 hlineto
          4 -407 rlineto
          -114 -57 -57 -107 -108 -56 61 120 1 vhcurveto
          4 397 rlineto
          -79 hlineto
          1 -320 -1 -87 rlineto
          -154 -3 83 -87 152 hhcurveto
          157 89 92 158 -3 hvcurveto
          endchar
        </CharString>
        <CharString name="Udieresisacute">
          95 -7 70 578 -20 106 84 hstem
          74.5 76.5 43 83 74 83 42 75 vstem
          415 971 rmoveto
          -8 3 -74 -27 -65 -21 -68 -20 rlinecurve
          7 -38 9 -5 68 15 67 15 72 19 rlinecurve
          5 9 rlineto
          -191 -110 rmoveto
          -27 -16 -17 -26 -26 15 -15 25 27 16 17 26 25 -16 16 -24 hvcurveto
          157 hmoveto
          -27 -16 -17 -26 -26 16 -15 24 27 16 17 26 25 -15 16 -25 hvcurveto
          156 -496 rmoveto
          2 326 rlineto
          -80 hlineto
          4 -407 rlineto
          -114 -57 -57 -107 -108 -56 61 120 1 vhcurveto
          4 397 rlineto
          -79 hlineto
          1 -320 -1 -87 rlineto
          -154 -3 83 -87 152 hhcurveto
          157 89 92 158 -3 hvcurveto
          endchar
        </CharString>
        <CharString name="Udieresiscaron">
          95 -7 70 578 -20 106 84 hstem
          74.5 76.5 43 83 74 83 42 75 vstem
          427 958 rmoveto
          -10 hlineto
          -35 -22 -33 -22 -34 -22 -34 22 -33 22 -36 22 rrcurveto
          -9 hlineto
          -16 -34 41 -29 40 -31 36 -30 rlinecurve
          23 hlineto
          35 30 39 31 42 29 rrcurveto
          -206 -113 rmoveto
          -27 -16 -17 -26 -26 15 -15 25 27 16 17 26 25 -16 16 -24 hvcurveto
          157 hmoveto
          -27 -16 -17 -26 -26 16 -15 24 27 16 17 26 25 -15 16 -25 hvcurveto
          156 -496 rmoveto
          2 326 rlineto
          -80 hlineto
          4 -407 rlineto
          -114 -57 -57 -107 -108 -56 61 120 1 vhcurveto
          4 397 rlineto
          -79 hlineto
          1 -320 -1 -87 rlineto
          -154 -3 83 -87 152 hhcurveto
          157 89 92 158 -3 hvcurveto
          endchar
        </CharString>
        <CharString name="Udieresisgrave">
          95 -7 70 578 -20 106 84 hstem
          74.5 76.5 43 83 74 83 42 75 vstem
          212 971 rmoveto
          -12 -50 5 -9 72 -19 66 -15 68 -15 rlinecurve
          8 5 9 38 -68 20 -67 21 -72 27 rlinecurve
          16 -163 rmoveto
          -27 -16 -17 -26 -26 15 -15 25 27 16 17 26 25 -16 16 -24 hvcurveto
          157 hmoveto
          -27 -16 -17 -26 -26 16 -15 24 27 16 17 26 25 -15 16 -25 hvcurveto
          156 -496 rmoveto
          2 326 rlineto
          -80 hlineto
          4 -407 rlineto
          -114 -57 -57 -107 -108 -56 61 120 1 vhcurveto
          4 397 rlineto
          -79 hlineto
          1 -320 -1 -87 rlineto
          -154 -3 83 -87 152 hhcurveto
          157 89 92 158 -3 hvcurveto
          endchar
        </CharString>
        <CharString name="Udieresismacron">
          95 -7 70 578 -20 106 84 66 53 hstem
          74.5 76.5 43 83 74 83 42 75 vstem
          450 924 rmoveto
          -6 6 rlineto
          -259 hlineto
          -5 -47 7 -6 rlineto
          258 hlineto
          -208 -66 rmoveto
          -27 -16 -17 -26 -26 15 -15 25 27 16 17 26 25 -16 16 -24 hvcurveto
          157 hmoveto
          -27 -16 -17 -26 -26 16 -15 24 27 16 17 26 25 -15 16 -25 hvcurveto
          156 -496 rmoveto
          2 326 rlineto
          -80 hlineto
          4 -407 rlineto
          -114 -57 -57 -107 -108 -56 61 120 1 vhcurveto
          4 397 rlineto
          -79 hlineto
          1 -320 -1 -87 rlineto
          -154 -3 83 -87 152 hhcurveto
          157 89 92 158 -3 hvcurveto
          endchar
        </CharString>
        <CharString name="Udotbelow">
          95 -163 93 63 70 578 -20 hstem
          74.5 76.5 113 91 121 75 vstem
          550 315 rmoveto
          2 326 rlineto
          -80 hlineto
          4 -407 rlineto
          -114 -57 -57 -107 -108 -56 61 120 1 vhcurveto
          4 397 rlineto
          -79 hlineto
          1 -320 -1 -87 rlineto
          -154 -3 83 -87 152 hhcurveto
          157 89 92 158 -3 hvcurveto
          -238 -313 rmoveto
          -29 -18 -19 -28 -29 16 -17 28 29 18 19 29 28 -17 17 -27 hvcurveto
          endchar
        </CharString>
        <CharString name="Ugrave">
          95 -7 70 578 -20 hstem
          74.5 76.5 325 75 vstem
          225 862 rmoveto
          -20 -47 2 -8 69 -32 62 -27 64 -27 rlinecurve
          10 4 14 36 -63 31 -61 32 -68 40 rlinecurve
          316 -549 rmoveto
          2 326 rlineto
          -80 hlineto
          4 -407 rlineto
          -114 -57 -57 -107 -108 -56 61 120 1 vhcurveto
          4 397 rlineto
          -79 hlineto
          1 -320 -1 -87 rlineto
          -154 -3 83 -87 152 hhcurveto
          157 89 92 158 -3 hvcurveto
          endchar
        </CharString>
        <CharString name="Uhookabove">
          95 -7 70 578 -20 229 44 hstem
          74.5 76.5 175 49 101 75 vstem
          312 894 rmoveto
          -29 -32 -16 -26 -25 hvcurveto
          16 -26 rlineto
          16 19 22 8 17 hhcurveto
          16 10 -7 -14 -17 -18 -25 -32 -23 hvcurveto
          32 -55 35 19 -20 34 rlineto
          36 30 16 21 24 vvcurveto
          32 -27 25 -36 vhcurveto
          238 -579 rmoveto
          2 326 rlineto
          -80 hlineto
          4 -407 rlineto
          -114 -57 -57 -107 -108 -56 61 120 1 vhcurveto
          4 397 rlineto
          -79 hlineto
          1 -320 -1 -87 rlineto
          -154 -3 83 -87 152 hhcurveto
          157 89 92 158 -3 hvcurveto
          endchar
        </CharString>
        <CharString name="Uhorn">
          105 -7 70 539 39 0 -20 hstemhm
          74.5 76.5 325 75 24 63 hintmask 00000000
          hintmask 10111100
          638 697 rmoveto
          45 -31 34 -23 -12 -14 -7 -9 -13 vhcurveto
          -3 -8 rlineto
          24 -21 9 -19 -20 vvcurveto
          -33 -23 -18 -42 vhcurveto
          hintmask 10111000
          -38 hlineto
          4 -407 rlineto
          -114 -57 -57 -107 -108 -56 61 120 1 vhcurveto
          4 397 rlineto
          -79 hlineto
          1 -320 -1 -87 rlineto
          -154 -3 83 -87 152 hhcurveto
          157 89 92 158 -3 hvcurveto
          1 72 rlineto
          hintmask 11011000
          2 287 rlineto
          hintmask 10111100
          52 13 34 36 46 vvcurveto
          endchar
        </CharString>
        <CharString name="Uhornacute">
          105 -7 70 539 39 0 -20 hstemhm
          74.5 76.5 325 75 24 63 hintmask 10111000
          245 725 rmoveto
          10 -4 64 27 62 27 69 32 rlinecurve
          2 8 -20 47 -9 2 -68 -40 -61 -32 -63 -31 rlinecurve
          hintmask 10111100
          407 -64 rmoveto
          45 -31 34 -23 -12 -14 -7 -9 -13 vhcurveto
          -3 -8 rlineto
          24 -21 9 -19 -20 vvcurveto
          -33 -23 -18 -42 vhcurveto
          hintmask 10111000
          -38 hlineto
          4 -407 rlineto
          -114 -57 -57 -107 -108 -56 61 120 1 vhcurveto
          4 397 rlineto
          -79 hlineto
          1 -320 -1 -87 rlineto
          -154 -3 83 -87 152 hhcurveto
          157 89 92 158 -3 hvcurveto
          1 72 rlineto
          hintmask 11011000
          2 287 rlineto
          hintmask 10111100
          52 13 34 36 46 vvcurveto
          endchar
        </CharString>
        <CharString name="Uhorndotbelow">
          105 -163 93 63 70 539 39 0 -20 hstemhm
          74.5 76.5 116 91 118 75 24 63 hintmask 00000000
          hintmask 11011011
          638 697 rmoveto
          45 -31 34 -23 -12 -14 -7 -9 -13 vhcurveto
          -3 -8 rlineto
          24 -21 9 -19 -20 vvcurveto
          -33 -23 -18 -42 vhcurveto
          hintmask 11011010
          -38 hlineto
          4 -407 rlineto
          -114 -57 -57 -107 -108 -56 61 120 1 vhcurveto
          4 397 rlineto
          -79 hlineto
          1 -320 -1 -87 rlineto
          -154 -3 83 -87 152 hhcurveto
          157 89 92 158 -3 hvcurveto
          1 72 rlineto
          hintmask 11101010
          2 287 rlineto
          hintmask 11011011
          52 13 34 36 46 vvcurveto
          hintmask 11011110
          -324 -767 rmoveto
          -29 -18 -19 -28 -29 16 -17 28 29 18 19 29 28 -17 17 -27 hvcurveto
          endchar
        </CharString>
        <CharString name="Uhorngrave">
          105 -7 70 539 39 0 -20 hstemhm
          74.5 76.5 325 75 24 63 hintmask 10111000
          412 726 rmoveto
          14 36 -63 31 -61 32 -68 40 rlinecurve
          -9 -2 -20 -47 2 -8 69 -32 62 -27 64 -27 rlinecurve
          hintmask 10111100
          236 -25 rmoveto
          45 -31 34 -23 -12 -14 -7 -9 -13 vhcurveto
          -3 -8 rlineto
          24 -21 9 -19 -20 vvcurveto
          -33 -23 -18 -42 vhcurveto
          hintmask 10111000
          -38 hlineto
          4 -407 rlineto
          -114 -57 -57 -107 -108 -56 61 120 1 vhcurveto
          4 397 rlineto
          -79 hlineto
          1 -320 -1 -87 rlineto
          -154 -3 83 -87 152 hhcurveto
          157 89 92 158 -3 hvcurveto
          1 72 rlineto
          hintmask 11011000
          2 287 rlineto
          hintmask 10111100
          52 13 34 36 46 vvcurveto
          endchar
        </CharString>
        <CharString name="Uhornhookabove">
          105 -7 70 539 39 0 -20 230 44 hstemhm
          74.5 76.5 174 49 102 75 24 63 hintmask 10111110
          299 851 rmoveto
          16 10 -7 -14 -17 -18 -25 -32 -23 hvcurveto
          32 -55 35 19 -20 34 rlineto
          36 30 16 21 24 vvcurveto
          32 -27 25 -36 -29 -32 -16 -26 -25 vhcurveto
          16 -26 rlineto
          16 19 22 8 17 hhcurveto
          hintmask 10111111
          339 -154 rmoveto
          45 -31 34 -23 -12 -14 -7 -9 -13 vhcurveto
          -3 -8 rlineto
          24 -21 9 -19 -20 vvcurveto
          -33 -23 -18 -42 vhcurveto
          hintmask 10111110
          -38 hlineto
          4 -407 rlineto
          -114 -57 -57 -107 -108 -56 61 120 1 vhcurveto
          4 397 rlineto
          -79 hlineto
          1 -320 -1 -87 rlineto
          -154 -3 83 -87 152 hhcurveto
          157 89 92 158 -3 hvcurveto
          1 72 rlineto
          hintmask 11011110
          2 287 rlineto
          hintmask 10111111
          52 13 34 36 46 vvcurveto
          endchar
        </CharString>
        <CharString name="Uhorntilde">
          105 -7 70 539 39 0 -20 hstemhm
          74.5 76.5 325 75 24 63 hintmask 10111000
          181 735 rmoveto
          9 hlineto
          25 25 16 22 15 hhcurveto
          26 88 -33 -4 41 hvcurveto
          10 3 61 69 rlineto
          8 vlineto
          -24 25 rlineto
          -8 hlineto
          -25 -26 -16 -21 -15 hhcurveto
          -25 -88 31 5 -42 hvcurveto
          -10 -3 -61 -69 rlineto
          -7 vlineto
          hintmask 10111100
          481 -64 rmoveto
          45 -31 34 -23 -12 -14 -7 -9 -13 vhcurveto
          -3 -8 rlineto
          24 -21 9 -19 -20 vvcurveto
          -33 -23 -18 -42 vhcurveto
          hintmask 10111000
          -38 hlineto
          4 -407 rlineto
          -114 -57 -57 -107 -108 -56 61 120 1 vhcurveto
          4 397 rlineto
          -79 hlineto
          1 -320 -1 -87 rlineto
          -154 -3 83 -87 152 hhcurveto
          157 89 92 158 -3 hvcurveto
          1 72 rlineto
          hintmask 11011000
          2 287 rlineto
          hintmask 10111100
          52 13 34 36 46 vvcurveto
          endchar
        </CharString>
        <CharString name="Uhungarumlaut">
          95 -7 70 578 -20 hstem
          74.5 76.5 325 75 vstem
          219 718 rmoveto
          9 1 41 37 39 35 38 38 rlinecurve
          9 vlineto
          -36 25 rlineto
          -8 hlineto
          -35 -42 -37 -39 -37 -40 rrcurveto
          169 -24 rmoveto
          9 1 40 37 39 35 39 38 rlinecurve
          9 vlineto
          -37 25 rlineto
          -7 hlineto
          -36 -42 -36 -39 -37 -40 rrcurveto
          214 -427 rmoveto
          2 326 rlineto
          -80 hlineto
          4 -407 rlineto
          -114 -57 -57 -107 -108 -56 61 120 1 vhcurveto
          4 397 rlineto
          -79 hlineto
          1 -320 -1 -87 rlineto
          -154 -3 83 -87 152 hhcurveto
          157 89 92 158 -3 hvcurveto
          endchar
        </CharString>
        <CharString name="Umacron">
          95 -7 70 578 -20 143 52 hstem
          74.5 76.5 325 75 vstem
          462 811 rmoveto
          -6 5 rlineto
          -283 hlineto
          -5 -46 6 -6 rlineto
          283 hlineto
          93 -449 rmoveto
          2 326 rlineto
          -80 hlineto
          4 -407 rlineto
          -114 -57 -57 -107 -108 -56 61 120 1 vhcurveto
          4 397 rlineto
          -79 hlineto
          1 -320 -1 -87 rlineto
          -154 -3 83 -87 152 hhcurveto
          157 89 92 158 -3 hvcurveto
          endchar
        </CharString>
        <CharString name="Uogonek">
          95 -197 53 137 70 578 -20 hstem
          74.5 76.5 184 51 90 75 vstem
          550 315 rmoveto
          2 326 rlineto
          -80 hlineto
          4 -407 rlineto
          -114 -57 -57 -107 -108 -56 61 120 1 vhcurveto
          4 397 rlineto
          -79 hlineto
          1 -320 -1 -87 rlineto
          -154 -3 83 -87 152 hhcurveto
          32 29 4 7 26 hvcurveto
          -36 -55 rlineto
          -16 -24 -6 -22 -20 vvcurveto
          -48 31 -32 47 36 32 19 34 31 vhcurveto
          -12 38 rlineto
          -4 hlineto
          -26 -24 -26 -12 -23 hhcurveto
          -25 -12 13 21 14 6 19 11 17 hvcurveto
          60 98 58 42 30 70 -2 93 rlinecurve
          endchar
        </CharString>
        <CharString name="Uring">
          95 -7 70 578 -20 93 38 88 39 hstem
          74.5 76.5 79 38 91 39 78 75 vstem
          315 879 rmoveto
          -53 -32 -33 -50 -53 35 -29 47 48 38 30 54 46 -29 35 -54 hvcurveto
          -2 -39 rmoveto
          31 15 -18 -27 -29 -19 -14 -26 -27 -19 15 30 27 16 16 29 hvcurveto
          237 -525 rmoveto
          2 326 rlineto
          -80 hlineto
          4 -407 rlineto
          -114 -57 -57 -107 -108 -56 61 120 1 vhcurveto
          4 397 rlineto
          -79 hlineto
          1 -320 -1 -87 rlineto
          -154 -3 83 -87 152 hhcurveto
          157 89 92 158 -3 hvcurveto
          endchar
        </CharString>
        <CharString name="Utilde">
          95 -7 70 578 -20 hstem
          74.5 76.5 325 75 vstem
          472 824 rmoveto
          -24 25 rlineto
          -8 hlineto
          -25 -26 -16 -21 -15 hhcurveto
          -25 -88 31 5 -42 hvcurveto
          -10 -3 -61 -69 rlineto
          -7 vlineto
          24 -26 rlineto
          9 hlineto
          25 25 16 22 15 hhcurveto
          26 88 -33 -4 41 hvcurveto
          10 3 61 69 rlineto
          78 -501 rmoveto
          2 326 rlineto
          -80 hlineto
          4 -407 rlineto
          -114 -57 -57 -107 -108 -56 61 120 1 vhcurveto
          4 397 rlineto
          -79 hlineto
          1 -320 -1 -87 rlineto
          -154 -3 83 -87 152 hhcurveto
          157 89 92 158 -3 hvcurveto
          endchar
        </CharString>
        <CharString name="V">
          33 0 81 560 -20 hstem
          15 542 vstem
          322 hmoveto
          235 641 rlineto
          -80 hlineto
          -16 -69 -180 -491 rlineto
          -6 hlineto
          -163 495 -15 65 rlineto
          -82 hlineto
          214 -641 rlineto
          endchar
        </CharString>
        <CharString name="V.ss01">
          -31 0 35 -35 78 386 34 hstemhm
          -100 700 hintmask 10110000
          465 464 rmoveto
          135 34 -700 -34 143 hlineto
          150 -429 rlineto
          -293 -35 700 35 -299 hlineto
          95 429 rmoveto
          -6 -29 rlineto
          hintmask 01110000
          -139 -357 rlineto
          -5 hlineto
          -126 361 -6 25 rlineto
          endchar
        </CharString>
        <CharString name="W">
          362 0 89 552 -20 hstem
          21 864 vstem
          655 hmoveto
          230 641 rlineto
          -76 hlineto
          -15 -66 -174 -486 rlineto
          -6 hlineto
          -158 483 -15 69 rlineto
          -82 hlineto
          54 -162 -138 -390 rlineto
          -7 hlineto
          -156 490 -11 62 rlineto
          -80 hlineto
          204 -641 rlineto
          83 hlineto
          132 372 rlineto
          7 hlineto
          125 -372 rlineto
          endchar
        </CharString>
        <CharString name="Wacute">
          362 0 89 552 -20 hstem
          21 863 vstem
          557 861 rmoveto
          -9 2 -68 -40 -61 -32 -63 -31 rlinecurve
          14 -36 10 -4 64 27 62 27 69 32 rlinecurve
          2 8 rlineto
          78 -814 rmoveto
          229 641 rlineto
          -75 hlineto
          -15 -66 -174 -486 rlineto
          -6 hlineto
          -158 483 -16 69 rlineto
          -82 hlineto
          55 -162 -138 -390 rlineto
          -7 hlineto
          -156 490 -12 62 rlineto
          -79 hlineto
          204 -641 rlineto
          83 hlineto
          132 372 rlineto
          7 hlineto
          125 -372 rlineto
          endchar
        </CharString>
        <CharString name="Wcircumflex">
          362 0 89 552 -20 hstem
          21 863 vstem
          327 733 rmoveto
          10 hlineto
          35 22 33 21 34 23 34 -23 33 -21 36 -22 rrcurveto
          9 hlineto
          16 34 -41 29 -40 30 -36 32 rlinecurve
          -23 hlineto
          -35 -32 -39 -30 -42 -29 rrcurveto
          344 -767 rmoveto
          229 641 rlineto
          -75 hlineto
          -15 -66 -174 -486 rlineto
          -6 hlineto
          -158 483 -16 69 rlineto
          -82 hlineto
          55 -162 -138 -390 rlineto
          -7 hlineto
          -156 490 -12 62 rlineto
          -79 hlineto
          204 -641 rlineto
          83 hlineto
          132 372 rlineto
          7 hlineto
          125 -372 rlineto
          endchar
        </CharString>
        <CharString name="Wdieresis">
          362 0 89 552 -20 123 89 hstem
          318 87 70 87 vstem
          363 833 rmoveto
          -28 -17 -18 -27 -27 15 -17 27 28 17 19 28 26 -16 16 -26 hvcurveto
          157 hmoveto
          -28 -17 -18 -27 -27 15 -17 27 28 17 19 28 26 -16 16 -26 hvcurveto
          135 -833 rmoveto
          229 641 rlineto
          -75 hlineto
          -15 -66 -174 -486 rlineto
          -6 hlineto
          -158 483 -16 69 rlineto
          -82 hlineto
          55 -162 -138 -390 rlineto
          -7 hlineto
          -156 490 -12 62 rlineto
          -79 hlineto
          204 -641 rlineto
          83 hlineto
          132 372 rlineto
          7 hlineto
          125 -372 rlineto
          endchar
        </CharString>
        <CharString name="Wgrave">
          362 0 89 552 -20 hstem
          21 863 vstem
          349 862 rmoveto
          -20 -47 2 -8 69 -32 62 -27 64 -27 rlinecurve
          10 4 14 36 -63 31 -61 32 -68 40 rlinecurve
          297 -864 rmoveto
          229 641 rlineto
          -75 hlineto
          -15 -66 -174 -486 rlineto
          -6 hlineto
          -158 483 -16 69 rlineto
          -82 hlineto
          55 -162 -138 -390 rlineto
          -7 hlineto
          -156 490 -12 62 rlineto
          -79 hlineto
          204 -641 rlineto
          83 hlineto
          132 372 rlineto
          7 hlineto
          125 -372 rlineto
          endchar
        </CharString>
        <CharString name="X">
          58 21 -21 641 -20 hstem
          23 537 vstem
          341 334 rmoveto
          203 307 rlineto
          -87 hlineto
          -26 -50 -139 -206 -138 205 -26 51 rlineto
          -97 hlineto
          209 -317 -217 -324 rlineto
          85 hlineto
          26 47 153 224 148 -219 28 -52 rlineto
          97 hlineto
          endchar
        </CharString>
        <CharString name="X.ss01">
          -11 0 35 429 34 hstem
          -100 720 vstem
          305 261 rmoveto
          143 203 rlineto
          172 34 -720 -34 165 hlineto
          150 -213 -154 -216 rlineto
          -161 -35 720 35 -159 hlineto
          -199 270 rmoveto
          -103 141 -9 18 rlineto
          225 hlineto
          -9 -17 rlineto
          -109 -242 rmoveto
          111 -151 10 -19 rlineto
          -246 hlineto
          9 16 rlineto
          endchar
        </CharString>
        <CharString name="Y">
          -3 21 -21 641 -20 hstem
          217 76.5 vstem
          292 187 rmoveto
          1 43 222 411 rlineto
          -85 hlineto
          -15 -38 -153 -286 rlineto
          -8 hlineto
          -140 288 -13 36 rlineto
          -86 hlineto
          204 -411 1 -43 -6 -187 rlineto
          81 hlineto
          endchar
        </CharString>
        <CharString name="Yacute">
          -3 21 -21 641 -20 hstem
          216.5 76.5 vstem
          188 724 rmoveto
          10 -4 64 27 62 27 69 32 rlinecurve
          2 8 -20 47 -9 2 -68 -40 -61 -32 -63 -31 rlinecurve
          117 -573 rmoveto
          1 41 223 413 rlineto
          -85 hlineto
          -15 -38 -153 -286 rlineto
          -8 hlineto
          -140 288 -13 36 rlineto
          -86 hlineto
          203 -410 1 -44 -5 -187 rlineto
          81 hlineto
          endchar
        </CharString>
        <CharString name="Ycircumflex">
          -3 21 -21 641 -20 hstem
          216.5 76.5 vstem
          146 733 rmoveto
          10 hlineto
          35 22 33 21 34 23 34 -23 33 -21 36 -22 rrcurveto
          9 hlineto
          16 34 -41 29 -40 30 -36 32 rlinecurve
          -23 hlineto
          -35 -32 -39 -30 -42 -29 rrcurveto
          161 -580 rmoveto
          1 41 223 413 rlineto
          -85 hlineto
          -15 -38 -153 -286 rlineto
          -8 hlineto
          -140 288 -13 36 rlineto
          -86 hlineto
          203 -410 1 -44 -5 -187 rlineto
          81 hlineto
          endchar
        </CharString>
        <CharString name="Ydieresis">
          -3 21 -21 641 -20 123 89 hstemhm
          137 87 -7.5 76.5 1 87 hintmask 00000000
          hintmask 11110100
          179 744 rmoveto
          28 17 19 28 26 -16 16 -26 -28 -17 -18 -27 -27 15 -17 27 hvcurveto
          157 hmoveto
          28 17 19 28 26 -16 16 -26 -28 -17 -18 -27 -27 15 -17 27 hvcurveto
          hintmask 11101000
          -45 -557 rmoveto
          1 41 223 413 rlineto
          -85 hlineto
          -15 -38 -153 -286 rlineto
          -8 hlineto
          -140 288 -13 36 rlineto
          -86 hlineto
          203 -410 1 -44 -5 -187 rlineto
          81 hlineto
          endchar
        </CharString>
        <CharString name="Ydotbelow">
          -3 -163 93 91 -21 641 -20 hstemhm
          209 91 -83.5 76.5 hintmask 11101000
          218 231 rmoveto
          1 -44 -5 -187 rlineto
          81 hlineto
          -4 187 1 41 223 413 rlineto
          -85 hlineto
          -15 -38 -153 -286 rlineto
          -8 hlineto
          -140 288 -13 36 rlineto
          -86 hlineto
          hintmask 11110000
          241 -711 rmoveto
          -29 -18 -19 -28 -29 16 -17 28 29 18 19 29 28 -17 17 -27 hvcurveto
          endchar
        </CharString>
        <CharString name="Ygrave">
          -3 21 -21 641 -20 hstem
          216.5 76.5 vstem
          355 725 rmoveto
          14 36 -63 31 -61 32 -68 40 rlinecurve
          -9 -2 -20 -47 2 -8 69 -32 62 -27 64 -27 rlinecurve
          -54 -534 rmoveto
          1 41 223 413 rlineto
          -85 hlineto
          -15 -38 -153 -286 rlineto
          -8 hlineto
          -140 288 -13 36 rlineto
          -86 hlineto
          203 -410 1 -44 -5 -187 rlineto
          81 hlineto
          endchar
        </CharString>
        <CharString name="Yhookabove">
          -3 21 -21 641 -20 229 44 hstemhm
          216.5 76.5 -25 49 hintmask 00000000
          hintmask 11101000
          242 850 rmoveto
          16 10 -7 -14 -17 -18 -25 -32 -23 hvcurveto
          32 -55 35 19 -20 34 rlineto
          36 30 16 21 24 vvcurveto
          32 -27 25 -36 -29 -32 -16 -26 -25 vhcurveto
          16 -26 rlineto
          16 19 22 8 17 hhcurveto
          hintmask 11110000
          49 -663 rmoveto
          1 41 223 413 rlineto
          -85 hlineto
          -15 -38 -153 -286 rlineto
          -8 hlineto
          -140 288 -13 36 rlineto
          -86 hlineto
          203 -410 1 -44 -5 -187 rlineto
          81 hlineto
          endchar
        </CharString>
        <CharString name="Ytilde">
          -3 21 -21 641 -20 hstem
          216.5 76.5 vstem
          124 734 rmoveto
          9 hlineto
          25 25 16 22 15 hhcurveto
          26 88 -33 -4 41 hvcurveto
          10 3 61 69 rlineto
          8 vlineto
          -24 25 rlineto
          -8 hlineto
          -25 -26 -16 -21 -15 hhcurveto
          -25 -88 31 5 -42 hvcurveto
          -10 -3 -61 -69 rlineto
          -7 vlineto
          191 -573 rmoveto
          1 41 223 413 rlineto
          -85 hlineto
          -15 -38 -153 -286 rlineto
          -8 hlineto
          -140 288 -13 36 rlineto
          -86 hlineto
          203 -410 1 -44 -5 -187 rlineto
          81 hlineto
          endchar
        </CharString>
        <CharString name="Z">
          -3 0 65 -46 -21 577 67 hstemhm
          31 461 hintmask 10110000
          486 582 rmoveto
          60 vlineto
          -49 -1 -388 1 -6 -68 5 -6 96 7 rlineto
          247 hlineto
          hintmask 01110000
          -360 -519 rlineto
          -59 vlineto
          hintmask 10110000
          57 3 rlineto
          281 hlineto
          116 -2 7 68 -4 6 -95 -7 rlineto
          -266 hlineto
          endchar
        </CharString>
        <CharString name="Zacute">
          -3 0 65 -46 -21 577 67 hstemhm
          31 461 hintmask 10110000
          387 861 rmoveto
          -9 2 -68 -40 -61 -32 -63 -31 rlinecurve
          14 -36 10 -4 64 27 62 27 69 32 rlinecurve
          2 8 rlineto
          79 -232 rmoveto
          60 vlineto
          -49 -1 -388 1 -6 -68 5 -6 96 7 rlineto
          247 hlineto
          hintmask 01110000
          -360 -519 rlineto
          -59 vlineto
          hintmask 10110000
          57 3 rlineto
          281 hlineto
          116 -2 7 68 -4 6 -95 -7 rlineto
          -266 hlineto
          endchar
        </CharString>
        <CharString name="Zcaron">
          -3 0 65 -46 -21 577 67 hstemhm
          31 461 hintmask 10110000
          382 848 rmoveto
          -10 hlineto
          -35 -22 -33 -21 -34 -23 -34 23 -33 21 -36 22 rrcurveto
          -9 hlineto
          -16 -34 41 -29 40 -30 36 -32 rlinecurve
          23 hlineto
          35 32 39 30 42 29 rrcurveto
          88 -232 rmoveto
          60 vlineto
          -49 -1 -388 1 -6 -68 5 -6 96 7 rlineto
          247 hlineto
          hintmask 01110000
          -360 -519 rlineto
          -59 vlineto
          hintmask 10110000
          57 3 rlineto
          281 hlineto
          116 -2 7 68 -4 6 -95 -7 rlineto
          -266 hlineto
          endchar
        </CharString>
        <CharString name="Zdotaccent">
          -3 0 65 -46 -21 577 67 110 93 hstemhm
          224 91 hintmask 10111000
          271 845 rmoveto
          -29 -18 -19 -28 -29 16 -17 28 29 18 19 30 27 -17 17 -27 hvcurveto
          215 -263 rmoveto
          60 vlineto
          -49 -1 -388 1 -6 -68 5 -6 96 7 rlineto
          247 hlineto
          hintmask 01111000
          -360 -519 rlineto
          -59 vlineto
          hintmask 10111000
          57 3 rlineto
          281 hlineto
          116 -2 7 68 -4 6 -95 -7 rlineto
          -266 hlineto
          endchar
        </CharString>
        <CharString name="a">
          -19 21 -21 128.5 60 236.5 73 hstem
          25 453 vstem
          478 hmoveto
          -175 498 rlineto
          -86 hlineto
          -192 -498 rlineto
          74 hlineto
          14 58 27 70 106 1 119 -1 26 -74 12 -54 rlineto
          -59 189 rmoveto
          -92 -1 -88 1 91 236 rlineto
          6 hlineto
          endchar
        </CharString>
        <CharString name="a.sups">
          -211 332 51 -50 53 212 51 hstemhm
          34 64 100.5 67.5 hintmask 10111000
          165 649 rmoveto
          -39 -42 -15 -24 -36 hvcurveto
          9 -47 5 -2 rlineto
          25 36 30 12 25 hhcurveto
          32 16 -16 -31 hvcurveto
          -1 -37 -101 -19 rlineto
          -43 -8 -22 -25 -41 vvcurveto
          -54 34 -33 57 -2 vhcurveto
          26 6 27 18 22 25 rrcurveto
          3 hlineto
          hintmask 01111000
          -35 7 13 -13 29 hhcurveto
          17 12 5 10 13 hvcurveto
          8 40 -6 4 rlineto
          -5 -6 -8 -1 -5 hhcurveto
          -11 -6 8 19 hvcurveto
          16 6 116 19 vvcurveto
          hintmask 10111000
          54 -36 31 -65 vhcurveto
          34 -170 rmoveto
          -1 -60 rlineto
          -23 -19 -22 -13 -18 hhcurveto
          -26 -15 18 26 20 11 12 20 4 hvcurveto
          endchar
        </CharString>
        <CharString name="aacute">
          -19 21 -21 128.5 60 236.5 73 94 -20 hstem
          25 454 vstem
          209 560 rmoveto
          9 -1 57 40 54 41 59 46 rlinecurve
          2 8 -30 42 -9 1 -56 -55 -53 -45 -55 -45 rlinecurve
          292 -592 rmoveto
          -176 498 rlineto
          -86 hlineto
          -192 -498 rlineto
          74 hlineto
          14 58 27 70 106 1 119 -1 26 -74 12 -54 rlineto
          -59 189 rmoveto
          -92 -1 -88 1 91 236 rlineto
          6 hlineto
          endchar
        </CharString>
        <CharString name="abreve">
          -19 21 -21 128.5 60 236.5 73 69 57 58 29 0 -20 hstemhm
          25 454 hintmask 11110110
          260 567 rmoveto
          hintmask 11111010
          72 40 43 72 17 hvcurveto
          -23 29 rlineto
          -12 hlineto
          -59 -13 -30 -28 -49 hhcurveto
          -48 -31 28 59 -13 hvcurveto
          -12 hlineto
          -22 -29 rlineto
          hintmask 11110110
          -70 14 39 -45 71 hhcurveto
          219 -567 rmoveto
          -176 498 rlineto
          -86 hlineto
          -192 -498 rlineto
          74 hlineto
          14 58 27 70 106 1 119 -1 26 -74 12 -54 rlineto
          -59 189 rmoveto
          -92 -1 -88 1 91 236 rlineto
          6 hlineto
          endchar
        </CharString>
        <CharString name="abreveacute">
          -19 21 -21 128.5 60 236.5 73 64 57 33 -20 hstem
          25 454 vstem
          249 675 rmoveto
          7 hlineto
          34 33 32 32 32 33 -1 8 rcurveline
          -37 26 -7 -1 -29 -38 -29 -35 -30 -36 rlinecurve
          38 -135 rmoveto
          62 46 32 58 21 hvcurveto
          -23 28 rlineto
          -12 hlineto
          -38 -15 -31 -23 -45 hhcurveto
          -47 -32 23 38 -14 hvcurveto
          -12 hlineto
          -22 -28 rlineto
          -58 18 44 -32 62 hhcurveto
          220 -562 rmoveto
          -176 498 rlineto
          -86 hlineto
          -192 -498 rlineto
          74 hlineto
          14 58 27 70 106 1 119 -1 26 -74 12 -54 rlineto
          -59 189 rmoveto
          -92 -1 -88 1 91 236 rlineto
          6 hlineto
          endchar
        </CharString>
        <CharString name="abrevedotbelow">
          -19 -163 93 91 -21 128.5 60 236.5 73 69 57 58 29 0 -20 hstemhm
          208 91 hintmask 01111011
          260 567 rmoveto
          hintmask 01111101
          72 40 43 72 17 hvcurveto
          -23 29 rlineto
          -12 hlineto
          -59 -13 -30 -28 -49 hhcurveto
          -48 -31 28 59 -13 hvcurveto
          -12 hlineto
          -22 -29 rlineto
          hintmask 01111011
          -70 14 39 -45 71 hhcurveto
          219 -567 rmoveto
          -176 498 rlineto
          -86 hlineto
          -192 -498 rlineto
          74 hlineto
          14 58 27 70 106 1 119 -1 26 -74 12 -54 rlineto
          -59 189 rmoveto
          -92 -1 -88 1 91 236 rlineto
          6 hlineto
          hintmask 11111011
          -6 -495 rmoveto
          -29 -18 -19 -28 -29 16 -17 28 29 18 19 29 28 -17 17 -27 hvcurveto
          endchar
        </CharString>
        <CharString name="abrevegrave">
          -19 21 -21 128.5 60 236.5 73 64 57 33 -20 hstem
          25 454 vstem
          271 675 rmoveto
          28 22 -31 36 -28 35 -29 38 rlinecurve
          -8 1 -37 -26 rlineto
          -8 vlineto
          32 -33 32 -32 33 -33 rrcurveto
          -4 -113 rmoveto
          62 46 32 58 21 hvcurveto
          -23 28 rlineto
          -12 hlineto
          -38 -15 -31 -23 -45 hhcurveto
          -47 -32 23 38 -14 hvcurveto
          -12 hlineto
          -22 -28 rlineto
          -58 18 44 -32 62 hhcurveto
          220 -562 rmoveto
          -176 498 rlineto
          -86 hlineto
          -192 -498 rlineto
          74 hlineto
          14 58 27 70 106 1 119 -1 26 -74 12 -54 rlineto
          -59 189 rmoveto
          -92 -1 -88 1 91 236 rlineto
          6 hlineto
          endchar
        </CharString>
        <CharString name="abrevehookabove">
          -19 21 -21 128.5 60 236.5 73 64 57 33 -20 180 44 hstem
          276 49 vstem
          250 812 rmoveto
          16 10 -7 -14 -17 -18 -25 -32 -23 hvcurveto
          32 -55 35 19 -20 34 rlineto
          36 30 16 21 24 vvcurveto
          32 -27 25 -36 -29 -32 -16 -26 -25 vhcurveto
          16 -26 rlineto
          16 19 22 8 17 hhcurveto
          9 -250 rmoveto
          62 46 32 58 21 hvcurveto
          -23 28 rlineto
          -12 hlineto
          -38 -15 -31 -23 -45 hhcurveto
          -47 -32 23 38 -14 hvcurveto
          -12 hlineto
          -22 -28 rlineto
          -58 18 44 -32 62 hhcurveto
          220 -562 rmoveto
          -176 498 rlineto
          -86 hlineto
          -192 -498 rlineto
          74 hlineto
          14 58 27 70 106 1 119 -1 26 -74 12 -54 rlineto
          -59 189 rmoveto
          -92 -1 -88 1 91 236 rlineto
          6 hlineto
          endchar
        </CharString>
        <CharString name="abrevetilde">
          -19 21 -21 128.5 60 236.5 73 65 56 32 -20 127 55 hstem
          25 454 vstem
          140 713 rmoveto
          8 hlineto
          24 23 15 21 15 hhcurveto
          24 82 -32 -4 39 hvcurveto
          9 3 57 67 rlineto
          8 vlineto
          -22 24 rlineto
          -8 hlineto
          -25 -24 -15 -20 -14 hhcurveto
          -24 -82 31 4 -40 hvcurveto
          -9 -2 -57 -67 rlineto
          -8 vlineto
          146 -118 rmoveto
          -45 -32 21 38 -13 hvcurveto
          -12 hlineto
          -22 -27 rlineto
          -57 18 43 -31 61 hhcurveto
          60 45 31 57 20 hvcurveto
          -21 27 rlineto
          -12 hlineto
          -38 -15 -31 -21 -44 hhcurveto
          216 -619 rmoveto
          -176 498 rlineto
          -86 hlineto
          -192 -498 rlineto
          74 hlineto
          14 58 27 70 106 1 119 -1 26 -74 12 -54 rlineto
          -59 189 rmoveto
          -92 -1 -88 1 91 236 rlineto
          6 hlineto
          endchar
        </CharString>
        <CharString name="acaron">
          -19 21 -21 128.5 60 236.5 73 hstem
          25 454 vstem
          273 562 rmoveto
          43 51 40 44 39 39 -22 32 rcurveline
          -10 hlineto
          -37 -36 -34 -34 -31 -34 -30 34 -34 34 -38 36 rrcurveto
          -9 hlineto
          -22 -32 42 -41 40 -45 39 -48 rlinecurve
          230 -562 rmoveto
          -176 498 rlineto
          -86 hlineto
          -192 -498 rlineto
          74 hlineto
          14 58 27 70 106 1 119 -1 26 -74 12 -54 rlineto
          -59 189 rmoveto
          -92 -1 -88 1 91 236 rlineto
          6 hlineto
          endchar
        </CharString>
        <CharString name="acircumflex">
          -19 21 -21 128.5 60 236.5 73 65 32 hstemhm
          25 454 hintmask 00000000
          hintmask 11111000
          150 563 rmoveto
          10 hlineto
          37 36 34 34 31 34 30 -34 34 -34 38 -36 rrcurveto
          9 hlineto
          22 32 -42 41 -40 45 -39 48 rlinecurve
          -24 hlineto
          -43 -51 -40 -44 -39 -39 rrcurveto
          351 -595 rmoveto
          -176 498 rlineto
          -86 hlineto
          -192 -498 rlineto
          74 hlineto
          14 58 27 70 106 1 119 -1 26 -74 12 -54 rlineto
          -59 189 rmoveto
          -92 -1 -88 1 91 236 rlineto
          6 hlineto
          endchar
        </CharString>
        <CharString name="acircumflexacute">
          -19 21 -21 128.5 60 236.5 73 202 -20 hstem
          25 454 vstem
          342 677 rmoveto
          8 hlineto
          82 100 -1 8 -40 20 -7 -2 -70 -103 rlineto
          -166 -129 rmoveto
          10 hlineto
          35 22 33 21 34 23 34 -23 33 -21 36 -22 rrcurveto
          9 hlineto
          16 34 -41 29 -40 30 -36 32 rlinecurve
          -23 hlineto
          -35 -32 -39 -30 -42 -29 rrcurveto
          347 -605 rmoveto
          -176 498 rlineto
          -86 hlineto
          -192 -498 rlineto
          74 hlineto
          14 58 27 70 106 1 119 -1 26 -74 12 -54 rlineto
          -59 189 rmoveto
          -92 -1 -88 1 91 236 rlineto
          6 hlineto
          endchar
        </CharString>
        <CharString name="acircumflexdotbelow">
          -19 -163 93 91 -21 128.5 60 236.5 73 65 32 hstemhm
          208 91 hintmask 00000000
          hintmask 11111100
          150 563 rmoveto
          10 hlineto
          37 36 34 34 31 34 30 -34 34 -34 38 -36 rrcurveto
          9 hlineto
          22 32 -42 41 -40 45 -39 48 rlinecurve
          -24 hlineto
          -43 -51 -40 -44 -39 -39 rrcurveto
          351 -595 rmoveto
          -176 498 rlineto
          -86 hlineto
          -192 -498 rlineto
          74 hlineto
          14 58 27 70 106 1 119 -1 26 -74 12 -54 rlineto
          -59 189 rmoveto
          -92 -1 -88 1 91 236 rlineto
          6 hlineto
          -6 -495 rmoveto
          -29 -18 -19 -28 -29 16 -17 28 29 18 19 29 28 -17 17 -27 hvcurveto
          endchar
        </CharString>
        <CharString name="acircumflexgrave">
          -19 21 -21 128.5 60 236.5 73 202 -20 hstem
          25 454 vstem
          362 677 rmoveto
          8 hlineto
          29 23 -70 103 -7 2 -40 -20 -1 -8 rlineto
          -133 -206 rmoveto
          10 hlineto
          35 22 33 21 34 23 34 -23 33 -21 36 -22 rrcurveto
          9 hlineto
          16 34 -41 29 -40 30 -36 32 rlinecurve
          -23 hlineto
          -35 -32 -39 -30 -42 -29 rrcurveto
          347 -605 rmoveto
          -176 498 rlineto
          -86 hlineto
          -192 -498 rlineto
          74 hlineto
          14 58 27 70 106 1 119 -1 26 -74 12 -54 rlineto
          -59 189 rmoveto
          -92 -1 -88 1 91 236 rlineto
          6 hlineto
          endchar
        </CharString>
        <CharString name="acircumflexhookabove">
          -19 21 -21 128.5 60 236.5 73 303 41 hstem
          370 45 vstem
          344 801 rmoveto
          15 11 -7 -13 -16 -18 -24 -30 -22 hvcurveto
          30 -52 33 18 -19 32 rlineto
          34 28 15 20 24 vvcurveto
          30 -25 23 -35 -27 -30 -14 -25 -24 vhcurveto
          15 -25 rlineto
          15 18 21 8 16 hhcurveto
          -196 -230 rmoveto
          10 hlineto
          35 22 33 21 34 23 34 -23 33 -21 36 -22 rrcurveto
          9 hlineto
          16 34 -41 29 -40 30 -36 32 rlinecurve
          -23 hlineto
          -35 -32 -39 -30 -42 -29 rrcurveto
          347 -605 rmoveto
          -176 498 rlineto
          -86 hlineto
          -192 -498 rlineto
          74 hlineto
          14 58 27 70 106 1 119 -1 26 -74 12 -54 rlineto
          -59 189 rmoveto
          -92 -1 -88 1 91 236 rlineto
          6 hlineto
          endchar
        </CharString>
        <CharString name="acircumflextilde">
          -19 21 -21 128.5 60 236.5 73 260 55 hstem
          25 454 vstem
          140 713 rmoveto
          8 hlineto
          24 23 15 21 15 hhcurveto
          24 82 -32 -4 39 hvcurveto
          9 3 57 67 rlineto
          8 vlineto
          -22 24 rlineto
          -8 hlineto
          -25 -24 -15 -20 -14 hhcurveto
          -24 -82 31 4 -40 hvcurveto
          -9 -2 -57 -67 rlineto
          -8 vlineto
          131 -41 rmoveto
          -35 -32 -39 -30 -42 -29 16 -34 rcurveline
          10 hlineto
          35 22 33 21 34 23 34 -23 33 -21 36 -22 rrcurveto
          9 hlineto
          16 34 -41 29 -40 30 -36 32 rlinecurve
          208 -696 rmoveto
          -176 498 rlineto
          -86 hlineto
          -192 -498 rlineto
          74 hlineto
          14 58 27 70 106 1 119 -1 26 -74 12 -54 rlineto
          -59 189 rmoveto
          -92 -1 -88 1 91 236 rlineto
          6 hlineto
          endchar
        </CharString>
        <CharString name="acute">
          654 -20 hstem
          94 203 vstem
          267 696 rmoveto
          -9 1 -56 -55 -53 -45 -55 -45 rlinecurve
          22 -32 9 -1 57 40 54 41 59 46 rlinecurve
          2 8 rlineto
          endchar
        </CharString>
        <CharString name="acute.cap">
          538 143 hstem
          84 221 vstem
          285 679 rmoveto
          -9 2 -68 -40 -61 -32 -63 -31 rlinecurve
          14 -36 10 -4 64 27 62 27 69 32 rlinecurve
          2 8 rlineto
          endchar
        </CharString>
        <CharString name="adieresis">
          -19 21 -21 128.5 60 236.5 73 104 89 hstem
          140 87 70 87 vstem
          182 602 rmoveto
          28 17 19 28 26 -16 16 -26 -28 -17 -18 -27 -27 15 -17 27 hvcurveto
          157 hmoveto
          28 17 19 28 26 -16 16 -26 -28 -17 -18 -27 -27 15 -17 27 hvcurveto
          140 -602 rmoveto
          -176 498 rlineto
          -86 hlineto
          -192 -498 rlineto
          74 hlineto
          14 58 27 70 106 1 119 -1 26 -74 12 -54 rlineto
          -59 189 rmoveto
          -92 -1 -88 1 91 236 rlineto
          6 hlineto
          endchar
        </CharString>
        <CharString name="adotbelow">
          -19 -163 93 91 -21 128.5 60 236.5 73 hstem
          208 91 vstem
          479 hmoveto
          -176 498 rlineto
          -86 hlineto
          -192 -498 rlineto
          74 hlineto
          14 58 27 70 106 1 119 -1 26 -74 12 -54 rlineto
          -59 189 rmoveto
          -92 -1 -88 1 91 236 rlineto
          6 hlineto
          -6 -495 rmoveto
          -29 -18 -19 -28 -29 16 -17 28 29 18 19 29 28 -17 17 -27 hvcurveto
          endchar
        </CharString>
        <CharString name="ae">
          169 0 61 364 73 -59 59 hstemhm
          585 8 hintmask 10110000
          674 60 rmoveto
          -5 5 -137 -4 rlineto
          -92 hlineto
          -22 142 177 34 -4 60 -6 4 -176 -38 -28 176 rlineto
          79 hlineto
          133 -5 7 58 -5 6 rlineto
          -316 hlineto
          -277 -498 rlineto
          74 hlineto
          20 57 49 86 205 46 21 -136 4 -53 rlineto
          293 hlineto
          -328 248 rmoveto
          -154 -34 rlineto
          hintmask 11010000
          120 211 rlineto
          6 hlineto
          endchar
        </CharString>
        <CharString name="aeacute">
          169 0 61 364 73 -59 59 94 -20 hstemhm
          585 8.5 hintmask 10111000
          360 560 rmoveto
          9 -1 57 40 54 41 59 46 rlinecurve
          2 8 -30 42 -9 1 -56 -55 -53 -45 -55 -45 rlinecurve
          336 -532 rmoveto
          -5 5 -136 -4 rlineto
          -92 hlineto
          -22 142 177 34 -5 60 -6 4 -175 -38 -28 176 rlineto
          79 hlineto
          132 -5 8 58 -5 6 rlineto
          -317 hlineto
          -277 -498 rlineto
          74 hlineto
          21 57 49 86 204 46 21 -136 4 -53 rlineto
          293 hlineto
          -327 248 rmoveto
          -154 -33 rlineto
          hintmask 11011000
          120 210 rlineto
          6 hlineto
          endchar
        </CharString>
        <CharString name="agrave">
          -19 21 -21 128.5 60 236.5 73 94 -20 hstem
          25 454 vstem
          340 560 rmoveto
          22 32 -55 45 -53 45 -56 55 rlinecurve
          -9 -1 -30 -42 2 -8 59 -46 54 -41 57 -40 rlinecurve
          148 -559 rmoveto
          -176 498 rlineto
          -86 hlineto
          -192 -498 rlineto
          74 hlineto
          14 58 27 70 106 1 119 -1 26 -74 12 -54 rlineto
          -59 189 rmoveto
          -92 -1 -88 1 91 236 rlineto
          6 hlineto
          endchar
        </CharString>
        <CharString name="ahookabove">
          -19 21 -21 128.5 60 236.5 73 88 -20 142 44 -42 -20 hstemhm
          271 49 hintmask 00000000
          hintmask 11111010
          245 708 rmoveto
          16 10 -7 -14 -17 -18 -25 -32 -23 hvcurveto
          32 -55 35 19 -20 34 rlineto
          36 30 16 21 24 vvcurveto
          32 -27 25 -36 vhcurveto
          hintmask 11110110
          -29 -32 -16 -26 -25 hvcurveto
          hintmask 11111010
          16 -26 rlineto
          16 19 22 8 17 hhcurveto
          hintmask 11110110
          234 -708 rmoveto
          -176 498 rlineto
          -86 hlineto
          -192 -498 rlineto
          74 hlineto
          14 58 27 70 106 1 119 -1 26 -74 12 -54 rlineto
          -59 189 rmoveto
          -92 -1 -88 1 91 236 rlineto
          6 hlineto
          endchar
        </CharString>
        <CharString name="amacron">
          -19 21 -21 128.5 60 236.5 73 124 52 hstem
          25 454 vstem
          120 622 rmoveto
          283 hlineto
          5 47 -6 5 rlineto
          -283 hlineto
          -5 -46 rlineto
          365 -628 rmoveto
          -176 498 rlineto
          -86 hlineto
          -192 -498 rlineto
          74 hlineto
          14 58 27 70 106 1 119 -1 26 -74 12 -54 rlineto
          -59 189 rmoveto
          -92 -1 -88 1 91 236 rlineto
          6 hlineto
          endchar
        </CharString>
        <CharString name="ampersand">
          237 -11 60 183 59 -24 59 124 55 206 -20 hstemhm
          43 69 192 53 189 59 hintmask 11011111
          807 353 rmoveto
          -10 -1 rlineto
          -43 -17 -26 -18 -39 hhcurveto
          hintmask 10111111
          -54 -121 35 -52 hhcurveto
          -52 -5 -30 -24 -25 -49 15 -44 rcurveline
          10 1 rlineto
          43 21 26 19 35 hhcurveto
          14 21 -3 -4 23 hvcurveto
          -128 -2 -98 -83 -133 hhcurveto
          -108 -65 57 89 -21 hvcurveto
          236 88 238 201 77 172 -6 22 -10 17 -16 16 rrcurveto
          -7 hlineto
          -54 -120 -101 -115 -123 -91 rrcurveto
          3 10 1 10 9 vvcurveto
          52 -42 39 -72 -112 -88 -99 -152 -162 99 -103 165 169 118 105 154 11 vhcurveto
          hintmask 11011111
          -8 42 42 -8 27 hhcurveto
          52 4 29 26 26 48 rrcurveto
          -582 140 rmoveto
          34 26 -14 -33 3 hvcurveto
          2 -21 -9 -32 -36 -26 -48 -28 -50 -25 -51 -19 rrcurveto
          12 vlineto
          112 52 74 77 vhcurveto
          endchar
        </CharString>
        <CharString name="aogonek">
          -19 -196 55 162 -21 128.5 60 236.5 73 hstem
          361 54 vstem
          510 -99 rmoveto
          -5 hlineto
          -27 -18 -19 -15 -23 hhcurveto
          -17 -13 7 26 18 6 27 45 63 hvcurveto
          13 hlineto
          -176 498 rlineto
          -86 hlineto
          -192 -498 rlineto
          74 hlineto
          14 58 27 70 106 1 119 -1 26 -74 12 -54 rlineto
          12 hlineto
          -41 -64 -13 -31 -28 vvcurveto
          -46 33 -27 41 33 26 19 34 27 vhcurveto
          -177 332 rmoveto
          -92 -1 -88 1 91 236 rlineto
          6 hlineto
          endchar
        </CharString>
        <CharString name="approxequal">
          -51 296 60 hstemhm
          63 381 hintmask 00000000
          hintmask 11000000
          162 343 rmoveto
          32 118 -43 -5 49 hvcurveto
          10 2 73 74 rlineto
          9 vlineto
          -22 27 rlineto
          -8 hlineto
          -30 -31 -20 -21 -17 hhcurveto
          -32 -118 42 7 -50 hvcurveto
          -10 -4 -73 -73 rlineto
          -9 vlineto
          22 -27 rlineto
          9 hlineto
          29 31 19 22 18 hhcurveto
          -167 vmoveto
          32 118 -42 -6 49 hvcurveto
          10 3 73 74 rlineto
          8 vlineto
          -22 28 rlineto
          -8 hlineto
          -30 -31 -20 -22 -17 hhcurveto
          -32 -118 42 8 -50 hvcurveto
          -10 -5 -73 -73 rlineto
          -9 vlineto
          22 -27 rlineto
          9 hlineto
          29 31 19 22 18 hhcurveto
          endchar
        </CharString>
        <CharString name="aring">
          -19 21 -21 128.5 60 236.5 73 74 38 88 39 hstem
          176 38 91 39 vstem
          258 572 rmoveto
          48 38 30 54 46 -29 35 -54 -53 -32 -33 -50 -53 35 -29 47 hvcurveto
          1 126 rmoveto
          31 15 -18 -27 -29 -19 -14 -26 -27 -19 15 30 27 16 16 29 hvcurveto
          220 -698 rmoveto
          -176 498 rlineto
          -86 hlineto
          -192 -498 rlineto
          74 hlineto
          14 58 27 70 106 1 119 -1 26 -74 12 -54 rlineto
          -59 189 rmoveto
          -92 -1 -88 1 91 236 rlineto
          6 hlineto
          endchar
        </CharString>
        <CharString name="aringacute">
          -19 21 -21 128.5 60 236.5 73 74 38 88 39 hstem
          176 38 91 39 vstem
          177 758 rmoveto
          8 -5 69 16 65 16 73 21 rlinecurve
          4 8 -13 49 -8 3 -73 -28 -66 -21 -68 -21 rlinecurve
          8 -142 rmoveto
          -53 35 -29 47 48 38 30 54 46 -29 35 -54 -53 -32 -33 -50 vhcurveto
          129 -1 rmoveto
          -29 -19 -14 -26 -27 -19 15 30 27 16 16 29 31 15 -18 -27 vhcurveto
          174 -653 rmoveto
          -176 498 rlineto
          -86 hlineto
          -192 -498 rlineto
          74 hlineto
          14 58 27 70 106 1 119 -1 26 -74 12 -54 rlineto
          -59 189 rmoveto
          -92 -1 -88 1 91 236 rlineto
          6 hlineto
          endchar
        </CharString>
        <CharString name="arrowdown">
          -15 17 -21 464 -20 24 -20 hstemhm
          231 53.5 hintmask 10110000
          462 190 rmoveto
          -12 44 rlineto
          -13 hlineto
          -154 -149 rlineto
          hintmask 11010000
          3 375 rlineto
          hintmask 10110000
          -51 4 -6 -6 4 -372 -154 148 rlineto
          -12 hlineto
          -13 -44 198 -194 rlineto
          13 hlineto
          endchar
        </CharString>
        <CharString name="arrowdownleft">
          -15 59.5 49 hstem
          99.5 49 vstem
          400 107 rmoveto
          -214 3 267 263 -34 39 rlineto
          -8 hlineto
          -261 -265 -3 213 -9 9 -40 -23 3 -277 9 -8 277 -3 22 40 rlineto
          endchar
        </CharString>
        <CharString name="arrowdownright">
          -15 57 48.5 hstem
          366 49 vstem
          416 344 rmoveto
          -40 22 -8 -9 -4 -214 -263 268 -39 -34 rlineto
          -8 vlineto
          266 -262 -214 -3 -8 -9 22 -40 277 4 9 8 rlineto
          endchar
        </CharString>
        <CharString name="arrowleft">
          -15 205 54 hstem
          23 467 vstem
          487 203 rmoveto
          3 52 -5 6 -373 -4 149 154 rlineto
          12 vlineto
          -45 13 -193 -199 rlineto
          -12 vlineto
          193 -197 45 12 rlineto
          12 vlineto
          -149 155 rlineto
          endchar
        </CharString>
        <CharString name="arrowright">
          -15 206 54 hstem
          24 467 vstem
          491 240 rmoveto
          -193 197 -44 -12 rlineto
          -12 vlineto
          149 -155 -375 4 -4 -52 5 -6 373 4 -148 -154 rlineto
          -12 vlineto
          44 -13 193 199 rlineto
          endchar
        </CharString>
        <CharString name="arrowup">
          -15 21 -21 468 -20 hstem
          231 53.5 vstem
          461 274 rmoveto
          -198 194 rlineto
          -12 hlineto
          -198 -194 13 -44 rlineto
          12 hlineto
          155 149 -4 -375 52 -4 5 6 -3 372 153 -148 rlineto
          13 hlineto
          endchar
        </CharString>
        <CharString name="arrowupleft">
          -15 355.5 49 hstem
          99.5 49 vstem
          453 93 rmoveto
          -266 261 213 3 9 9 -23 40 -277 -3 -8 -9 -3 -276 40 -23 9 9 3 214 263 -267 40 34 rlineto
          endchar
        </CharString>
        <CharString name="arrowupright">
          -15 358.5 49 hstem
          366.5 49 vstem
          417 120 rmoveto
          -3 278 -9 8 -276 3 -23 -40 9 -9 214 -3 -267 -263 34 -40 rlineto
          8 hlineto
          261 265 3 -212 9 -9 rlineto
          endchar
        </CharString>
        <CharString name="asciicircum">
          -107 432 60 hstem
          20 384 vstem
          404 134 rmoveto
          -152 358 rlineto
          -66 hlineto
          -8 -5 -158 -357 46 -18 8 5 140 315 rlineto
          6 hlineto
          132 -317 46 11 rlineto
          endchar
        </CharString>
        <CharString name="asciitilde">
          -51 210 60 hstemhm
          50 381 hintmask 00000000
          hintmask 11000000
          149 257 rmoveto
          32 117 -43 -5 50 hvcurveto
          10 2 73 74 rlineto
          9 vlineto
          -22 27 rlineto
          -8 hlineto
          -30 -32 -19 -21 -17 hhcurveto
          -32 -119 42 7 -49 hvcurveto
          -10 -4 -73 -73 rlineto
          -9 vlineto
          22 -27 rlineto
          9 hlineto
          29 31 19 22 18 hhcurveto
          endchar
        </CharString>
        <CharString name="asterisk">
          -157 595 -20 78 -20 hstem
          163 40 vstem
          225 727 rmoveto
          -3 6 rlineto
          -21 -20 -3 -6 -19 hvcurveto
          2 -114 5 -7 34 4 rlineto
          -54 -12 rmoveto
          -98 60 -7 -2 rlineto
          -7 -19 -1 -24 -18 vvcurveto
          101 -34 7 4 rlineto
          75 35 rmoveto
          -4 -9 15 -30 111 16 5 5 -6 19 -11 19 -10 16 rlinecurve
          -93 -96 rmoveto
          -10 2 -24 -22 46 -113 8 -1 16 12 15 14 10 18 rlinecurve
          -114 75 rmoveto
          -30 16 -83 -84 rlineto
          -6 vlineto
          18 -11 18 -11 19 -6 57 93 rcurveline
          endchar
        </CharString>
        <CharString name="at">
          294 -198 48 -8 8 142 83 -62 -21 25 -21 408 61 -4 -20 24 -20 116 53 hstemhm
          36 55 131 67 450 55 hintmask 1000100111110000
          794 299 rmoveto
          190 -132 125 -205 -253 -168 -177 -250 -237 167 -145 250 -3 vhcurveto
          hintmask 0100100111110000
          24 40 -2 8 rlineto
          hintmask 1000101011110000
          -232 -152 129 219 211 143 150 215 2 hvcurveto
          179 3 111 -107 -161 vvcurveto
          -138 -76 -87 -130 -16 vhcurveto
          2 55 50 351 -10 4 rlineto
          hintmask 1001000111110000
          -46 -23 -64 23 rlineto
          -5 hlineto
          -159 -24 -79 -151 -139 vvcurveto
          -80 27 -50 49 -29 vhcurveto
          15 hlineto
          59 56 55 75 47 80 rrcurveto
          10 hlineto
          hintmask 1000100111110000
          -29 -207 rlineto
          217 8 122 107 188 vvcurveto
          hintmask 1010010011110000
          -474 -224 rmoveto
          -13 -18 20 75 128 58 106 98 hvcurveto
          63 -22 -2 -25 -1 -6 rlineto
          -183 -79 -85 -93 -21 hhcurveto
          endchar
        </CharString>
        <CharString name="atilde">
          -19 21 -21 128.5 60 236.5 73 209 -20 hstem
          25 454 vstem
          127 592 rmoveto
          9 hlineto
          25 25 16 22 15 hhcurveto
          26 88 -33 -4 41 hvcurveto
          10 3 61 69 rlineto
          8 vlineto
          -24 25 rlineto
          -8 hlineto
          -25 -26 -16 -21 -15 hhcurveto
          -25 -88 31 5 -42 hvcurveto
          -10 -3 -61 -69 rlineto
          -7 vlineto
          376 -618 rmoveto
          -176 498 rlineto
          -86 hlineto
          -192 -498 rlineto
          74 hlineto
          14 58 27 70 106 1 119 -1 26 -74 12 -54 rlineto
          -59 189 rmoveto
          -92 -1 -88 1 91 236 rlineto
          6 hlineto
          endchar
        </CharString>
        <CharString name="b">
          -50 -3 57 -33 -21 225.5 59 155.5 59 hstemhm
          91.5 71 162.5 79 -46 77 hintmask 10111010
          324 259 rmoveto
          hintmask 01111100
          50 21 30 40 58 vvcurveto
          78 -59 43 -99 vhcurveto
          -156 -1 3 -348 -3 -150 rlineto
          hintmask 10111010
          -2 40 53 -1 32 hhcurveto
          143 77 47 97 66 -40 38 -71 14 hvcurveto
          hintmask 10111100
          1 110 rmoveto
          -50 -26 -26 -48 -10 vhcurveto
          -89 3 1 154 rlineto
          61 hlineto
          70 31 -21 -50 hvcurveto
          hintmask 10111010
          -101 -315 rmoveto
          -17 -23 1 2 -21 hvcurveto
          -2 99 1 69 99 1 rlineto
          64 -9 33 -25 -49 vvcurveto
          -59 -48 -30 -86 vhcurveto
          endchar
        </CharString>
        <CharString name="b.sups">
          -185 331 48 210 56 -47 -20 hstemhm
          50 70 128 67 hintmask 11011000
          199 645 rmoveto
          hintmask 10111000
          -29 -27 -20 -27 -23 hvcurveto
          -1 hlineto
          2 203 -72 -5 2 -332 -2 -123 7 -7 32 10 rlineto
          -8 26 28 -5 25 hhcurveto
          91 57 60 106 hvcurveto
          hintmask 11011000
          94 -43 54 -73 vhcurveto
          -36 -266 rmoveto
          -12 -16 3 6 -17 hvcurveto
          -1 86 1 87 rlineto
          18 19 20 10 22 hhcurveto
          45 24 -35 -64 -76 -32 -35 -53 hvcurveto
          endchar
        </CharString>
        <CharString name="backslash">
          -244 669 9 hstem
          6 265 vstem
          66 678 rmoveto
          -54 hlineto
          -6 -9 204 -782 rlineto
          56 hlineto
          5 8 rlineto
          endchar
        </CharString>
        <CharString name="bar">
          -217 -262 1059 hstem
          125 62 vstem
          188 792 rmoveto
          -5 5 -57 -4 -1 -510 rlineto
          -537 vlineto
          7 -8 55 3 rlineto
          547 vlineto
          endchar
        </CharString>
        <CharString name="braceleft">
          -243 -132 51 684 52 -7 -20 hstemhm
          45 79 -18 64 -44 65 hintmask 10101000
          221 655 rmoveto
          -75 -40 -39 -74 hvcurveto
          hintmask 10100100
          -58 20 -72 -44 vvcurveto
          -48 -25 -28 -56 -11 vhcurveto
          hintmask 10110000
          -41 vlineto
          hintmask 10100100
          56 -9 25 -29 -48 -45 -20 -71 -58 vvcurveto
          hintmask 10101000
          -74 40 -38 75 20 15 2 4 17 vhcurveto
          4 7 -8 43 rlineto
          -3 -14 -10 -2 -13 hhcurveto
          -42 -20 23 51 hvcurveto
          hintmask 10100100
          49 21 69 46 vvcurveto
          48 -23 35 -44 19 vhcurveto
          4 vlineto
          44 19 23 35 49 vvcurveto
          hintmask 11001000
          45 -21 70 49 vvcurveto
          50 20 23 42 13 10 -2 -3 14 vhcurveto
          hintmask 10101000
          8 43 -4 7 rlineto
          4 -17 -15 3 -20 hhcurveto
          endchar
        </CharString>
        <CharString name="braceright">
          -243 -132 51 685 51 hstemhm
          98 64 -44 64 -18 79 hintmask 11010000
          67 -132 rmoveto
          76 39 38 74 hvcurveto
          hintmask 11100000
          58 -20 72 44 vvcurveto
          48 26 29 55 10 vhcurveto
          hintmask 11001000
          41 vlineto
          hintmask 11100000
          -55 10 -26 28 49 44 20 71 58 vvcurveto
          hintmask 11010000
          74 -39 39 -76 -19 -16 -2 -5 -16 vhcurveto
          -4 -7 7 -42 rlineto
          3 14 10 2 13 hhcurveto
          42 20 -23 -51 hvcurveto
          hintmask 11100000
          -50 -20 -69 -46 vvcurveto
          -47 22 -36 44 -19 vhcurveto
          -4 vlineto
          -44 -19 -22 -34 -50 vvcurveto
          hintmask 11010000
          -44 20 -70 -49 vvcurveto
          -50 -20 -24 -42 -13 -10 2 3 -14 vhcurveto
          -7 -43 4 -7 rlineto
          -4 16 16 -2 19 hhcurveto
          endchar
        </CharString>
        <CharString name="bracketleft">
          -243 -124 43.5 678 49.5 hstem
          100 63 vstem
          282 641 rmoveto
          -5 6 -179 -10 4 -378 -4 -378 179 -10 5 5 rlineto
          38 vlineto
          -119 11 rlineto
          667 vlineto
          119 11 rlineto
          endchar
        </CharString>
        <CharString name="bracketright">
          -243 -124 44 678 49 hstem
          125 63.5 vstem
          7 -124 rmoveto
          5 -5 178 10 -3 378 3 378 -178 10 -5 -5 rlineto
          -39 vlineto
          118 -10 rlineto
          -667 vlineto
          -118 -12 rlineto
          endchar
        </CharString>
        <CharString name="breve">
          527 57 58 -20 hstem
          69 253 vstem
          299 671 rmoveto
          -12 hlineto
          -59 -13 -30 -28 -49 hhcurveto
          -48 -31 28 59 -13 hvcurveto
          -12 hlineto
          -22 -29 rlineto
          -70 14 39 -45 71 hhcurveto
          72 40 43 72 17 hvcurveto
          endchar
        </CharString>
        <CharString name="breve.cap">
          542 57 hstem
          69 253 vstem
          299 660 rmoveto
          -12 hlineto
          -38 -15 -31 -23 -45 hhcurveto
          -47 -32 23 38 -14 hvcurveto
          -12 hlineto
          -22 -28 rlineto
          -58 18 44 -32 62 hhcurveto
          62 46 32 58 21 hvcurveto
          endchar
        </CharString>
        <CharString name="breveacute">
          522 57 33 28 0 -20 hstemhm
          69 253 hintmask 10110000
          287 741 rmoveto
          -37 26 -7 -1 -29 -38 -29 -35 -30 -36 rlinecurve
          27 -22 rlineto
          8 hlineto
          34 33 32 32 32 33 rrcurveto
          11 -93 rmoveto
          -12 hlineto
          -38 -15 -31 -23 -45 hhcurveto
          -47 -32 23 38 -14 hvcurveto
          -12 hlineto
          hintmask 11010000
          -22 -28 rlineto
          -58 18 44 -32 62 hhcurveto
          62 46 32 58 21 hvcurveto
          endchar
        </CharString>
        <CharString name="brevegrave">
          522 57 33 28 0 -20 hstemhm
          69 253 hintmask 10110000
          137 767 rmoveto
          -37 -26 rlineto
          -8 vlineto
          32 -33 32 -32 33 -33 rrcurveto
          8 hlineto
          28 22 -31 36 -28 35 -29 38 rlinecurve
          154 -126 rmoveto
          -12 hlineto
          -38 -15 -31 -23 -45 hhcurveto
          -47 -32 23 38 -14 hvcurveto
          -12 hlineto
          hintmask 11010000
          -22 -28 rlineto
          -58 18 44 -32 62 hhcurveto
          62 46 32 58 21 hvcurveto
          endchar
        </CharString>
        <CharString name="brevehookabove">
          522 57 33 28 0 -20 30 -20 142 43 hstemhm
          210 49 hintmask 10011100
          196 815 rmoveto
          -29 -32 -15 -26 -25 hvcurveto
          16 -26 rlineto
          16 19 22 8 17 hhcurveto
          16 10 -7 -14 -17 -18 -25 -32 -24 hvcurveto
          32 -54 35 19 -20 34 rlineto
          36 29 16 22 24 vvcurveto
          32 -27 24 -36 vhcurveto
          hintmask 10101100
          103 -175 rmoveto
          -12 hlineto
          -38 -15 -31 -23 -45 hhcurveto
          -47 -32 23 38 -14 hvcurveto
          -12 hlineto
          hintmask 11001100
          -22 -28 rlineto
          -58 18 44 -32 62 hhcurveto
          62 46 32 58 21 hvcurveto
          endchar
        </CharString>
        <CharString name="brevetilde">
          522 57 hstem
          50 296 vstem
          346 760 rmoveto
          -23 25 rlineto
          -7 hlineto
          -25 -24 -15 -20 -15 hhcurveto
          -23 -82 30 5 -40 hvcurveto
          -9 -3 -58 -67 rlineto
          -7 vlineto
          23 -25 rlineto
          8 hlineto
          24 24 15 21 14 hhcurveto
          25 82 -31 -5 39 hvcurveto
          9 4 57 67 rlineto
          -47 -115 rmoveto
          -12 hlineto
          -38 -14 -31 -21 -44 hhcurveto
          -46 -32 21 38 -13 hvcurveto
          -12 hlineto
          -22 -27 rlineto
          -57 18 44 -32 60 hhcurveto
          60 46 32 57 20 hvcurveto
          endchar
        </CharString>
        <CharString name="brokenbar">
          -217 -262 1059 hstem
          125 62.5 vstem
          188 792 rmoveto
          -5 5 -58 -4 rlineto
          -421 vlineto
          7 -6 55 7 rlineto
          -222 vmoveto
          -7 9 -55 -7 rlineto
          -407 vlineto
          7 -8 55 3 rlineto
          endchar
        </CharString>
        <CharString name="bullet">
          -276 186 105 hstem
          75 103 vstem
          129 291 rmoveto
          -33 -21 -21 -32 -32 19 -20 31 32 21 22 33 31 -19 19 -30 hvcurveto
          endchar
        </CharString>
        <CharString name="bulletoperator">
          -276 186 105 hstem
          75 103 vstem
          129 291 rmoveto
          -33 -21 -21 -32 -32 19 -20 31 32 21 22 33 31 -19 19 -30 hvcurveto
          endchar
        </CharString>
        <CharString name="c">
          -70 -6 63 384 62 -35 -20 hstemhm
          45 79 hintmask 11010000
          284 503 rmoveto
          -152 -87 -92 -165 -162 82 -90 146 54 45 13 24 44 hvcurveto
          7 69 -9 3 rlineto
          -28 -38 -51 -18 -49 hhcurveto
          -98 -54 68 127 127 54 62 98 51 45 -17 -28 33 hvcurveto
          9 3 rlineto
          hintmask 10110000
          14 69 rlineto
          hintmask 11010000
          23 -40 -49 12 -55 hhcurveto
          endchar
        </CharString>
        <CharString name="c.sups">
          -273 331 59 200 59 0 -20 hstemhm
          31 67 hintmask 11010000
          171 649 rmoveto
          -87 -53 -60 -102 -96 48 -60 80 31 29 9 10 25 hvcurveto
          7 55 -5 3 rlineto
          -11 -24 -25 -7 -22 hhcurveto
          -49 -28 37 66 62 27 35 46 22 22 -9 -12 19 hvcurveto
          7 3 rlineto
          hintmask 10110000
          13 55 rlineto
          hintmask 11010000
          12 -22 -31 10 -30 hhcurveto
          endchar
        </CharString>
        <CharString name="cacute">
          -70 -6 63 384 62 -35 -20 144 -20 hstemhm
          45 78 hintmask 11011000
          364 736 rmoveto
          -9 1 -56 -55 -53 -45 -55 -45 rlinecurve
          22 -32 9 -1 57 40 54 41 59 46 rlinecurve
          2 8 rlineto
          -110 -191 rmoveto
          -152 -87 -92 -165 -162 82 -90 146 54 45 13 24 44 hvcurveto
          7 69 -9 3 rlineto
          -28 -39 -50 -18 -49 hhcurveto
          -98 -55 68 127 127 55 62 98 51 45 -17 -28 33 hvcurveto
          9 3 rlineto
          hintmask 10111000
          14 69 rlineto
          hintmask 11011000
          23 -40 -49 12 -55 hhcurveto
          endchar
        </CharString>
        <CharString name="caron">
          522 166 hstem
          61 267 vstem
          306 688 rmoveto
          -10 hlineto
          -37 -36 -34 -34 -31 -34 -30 34 -34 34 -38 36 rrcurveto
          -9 hlineto
          -22 -32 42 -41 40 -45 39 -48 rlinecurve
          24 hlineto
          43 51 40 44 39 39 rrcurveto
          endchar
        </CharString>
        <CharString name="caron.alt">
          510 -20 hstem
          165 42 vstem
          230 682 rmoveto
          -6 7 -57 -4 -4 -175 6 -6 38 6 rlineto
          endchar
        </CharString>
        <CharString name="caron.cap">
          541 125 hstem
          67 256 vstem
          307 666 rmoveto
          -10 hlineto
          -35 -22 -33 -21 -34 -23 -34 23 -33 21 -36 22 rrcurveto
          -9 hlineto
          -16 -34 41 -29 40 -30 36 -32 rlinecurve
          23 hlineto
          35 32 39 30 42 29 rrcurveto
          endchar
        </CharString>
        <CharString name="ccaron">
          -70 -6 63 384 62 -35 -20 hstemhm
          45 78 hintmask 11010000
          376 728 rmoveto
          -10 hlineto
          -37 -36 -34 -34 -31 -34 -30 34 -34 34 -38 36 rrcurveto
          -9 hlineto
          -22 -32 42 -41 40 -45 39 -48 rlinecurve
          24 hlineto
          43 51 40 44 39 39 rrcurveto
          -114 -193 rmoveto
          -152 -87 -92 -165 -162 82 -90 146 54 45 13 24 44 hvcurveto
          7 69 -9 3 rlineto
          -28 -39 -50 -18 -49 hhcurveto
          -98 -55 68 127 127 55 62 98 51 45 -17 -28 33 hvcurveto
          9 3 rlineto
          hintmask 10110000
          14 69 rlineto
          hintmask 11010000
          23 -40 -49 12 -55 hhcurveto
          endchar
        </CharString>
        <CharString name="ccedilla">
          -70 -193 41 146 63 -62 62 384 62 -35 -20 hstemhm
          45 78 172 53 hintmask 10110100
          276 57 rmoveto
          -98 -55 68 127 127 55 62 98 51 45 -17 -28 33 hvcurveto
          9 3 rlineto
          hintmask 10101100
          14 69 rlineto
          hintmask 10110110
          23 -40 -49 12 -55 hhcurveto
          -152 -87 -92 -165 -151 71 -89 128 -11 hvcurveto
          -18 -66 48 -29 rlineto
          12 -7 9 -6 -12 vvcurveto
          -17 -13 -10 -18 -25 -15 12 19 -17 vhcurveto
          -5 -1 -7 -40 rlineto
          -16 15 24 -15 33 hhcurveto
          48 33 27 39 hvcurveto
          hintmask 11010110
          22 -10 18 -28 16 vhcurveto
          -34 20 14 45 46 3 41 13 39 21 rlinecurve
          hintmask 10110100
          7 69 -9 3 rlineto
          -28 -39 -50 -18 -49 hhcurveto
          endchar
        </CharString>
        <CharString name="ccircumflex">
          -70 -6 63 384 62 -35 -20 115 32 0 -20 hstemhm
          45 78 hintmask 00000000
          hintmask 11010100
          153 563 rmoveto
          10 hlineto
          37 36 34 34 31 34 30 -34 34 -34 38 -36 rrcurveto
          9 hlineto
          22 32 -42 41 -40 45 -39 48 rlinecurve
          -24 hlineto
          -43 -51 -40 -44 -39 -39 rrcurveto
          153 -92 rmoveto
          -152 -87 -92 -165 -162 82 -90 146 54 45 13 24 44 hvcurveto
          7 69 -9 3 rlineto
          -28 -39 -50 -18 -49 hhcurveto
          -98 -55 68 127 127 55 62 98 51 45 -17 -28 33 hvcurveto
          9 3 rlineto
          hintmask 10101100
          14 69 rlineto
          hintmask 11010100
          23 -40 -49 12 -55 hhcurveto
          endchar
        </CharString>
        <CharString name="cdotaccent">
          -70 -6 63 384 62 -35 -20 162 93 hstemhm
          45 78 96 91 hintmask 11011100
          266 703 rmoveto
          -29 -18 -19 -28 -29 16 -17 28 29 18 19 30 27 -17 17 -27 hvcurveto
          18 -200 rmoveto
          -152 -87 -92 -165 -162 82 -90 146 54 45 13 24 44 hvcurveto
          7 69 -9 3 rlineto
          -28 -39 -50 -18 -49 hhcurveto
          -98 -55 68 127 127 55 62 98 51 45 -17 -28 33 hvcurveto
          9 3 rlineto
          hintmask 10111100
          14 69 rlineto
          hintmask 11011100
          23 -40 -49 12 -55 hhcurveto
          endchar
        </CharString>
        <CharString name="cedilla">
          -193 41 hstem
          219 53 vstem
          200 -51 rmoveto
          21 70 rlineto
          -46 hlineto
          -25 -90 48 -29 rlineto
          12 -7 9 -6 -12 vvcurveto
          -17 -13 -10 -18 -25 -15 12 19 -17 vhcurveto
          -5 -1 -7 -40 rlineto
          -16 15 24 -15 33 hhcurveto
          48 33 27 39 22 -10 18 -28 16 hvcurveto
          endchar
        </CharString>
        <CharString name="cent">
          -148 -119 7 148 54 361 20 34 -20 21 -20 158 8 hstemhm
          39 62 75 46.5 1 47 hintmask 0000000000000000
          hintmask 1111011010000000
          365 121 rmoveto
          -8 4 rlineto
          -21 -35 -44 -14 -39 hhcurveto
          -6 hlineto
          29 361 29 -5 28 -12 22 -15 rlinecurve
          9 1 12 51 -26 16 -35 13 -36 5 rlinecurve
          11 139 -8 8 rlineto
          -39 hlineto
          hintmask 1110111010000000
          -11 -146 rlineto
          -110 -8 -69 -90 -142 vvcurveto
          -121 54 -84 89 -20 vhcurveto
          hintmask 1110111100000000
          -12 -153 8 -7 rlineto
          38 hlineto
          13 155 rlineto
          hintmask 1110111010000000
          47 1 47 15 35 21 rrcurveto
          -257 199 rmoveto
          102 43 66 70 11 vhcurveto
          -27 -351 rlineto
          -55 23 -31 60 89 vvcurveto
          endchar
        </CharString>
        <CharString name="circle1">
          -80 9 -21 476 -20 hstem
          -12 476 vstem
          226 464 rmoveto
          -131 -107 -107 -131 -131 107 -107 131 131 107 107 131 131 -107 107 -131 hvcurveto
          endchar
        </CharString>
        <CharString name="circle2">
          105 649 -20 hstem
          -13 663 vstem
          318 649 rmoveto
          -183 -148 -149 -183 -183 148 -148 183 183 149 148 183 183 -149 149 -183 hvcurveto
          endchar
        </CharString>
        <CharString name="circumflex">
          523 166 hstem
          61 267 vstem
          83 523 rmoveto
          10 hlineto
          37 36 34 33 31 35 30 -35 34 -33 38 -36 rrcurveto
          9 hlineto
          22 32 -41 40 -41 46 -39 48 rlinecurve
          -24 hlineto
          -43 -51 -40 -44 -39 -39 rrcurveto
          endchar
        </CharString>
        <CharString name="circumflex.cap">
          585 -20 hstem
          66 256 vstem
          82 551 rmoveto
          10 hlineto
          35 22 33 21 34 24 34 -24 34 -21 35 -22 rrcurveto
          9 hlineto
          16 34 -41 29 -40 30 -36 32 rlinecurve
          -23 hlineto
          -35 -32 -39 -30 -42 -29 rrcurveto
          endchar
        </CharString>
        <CharString name="circumflexacute">
          531 234 hstem
          66 300 vstem
          365 745 rmoveto
          -39 20 -8 -2 -70 -103 28 -23 rlineto
          8 hlineto
          82 100 rlineto
          -284 -206 rmoveto
          10 hlineto
          35 22 33 21 34 23 34 -23 33 -21 36 -22 rrcurveto
          9 hlineto
          16 34 -41 29 -40 30 -36 32 rlinecurve
          -23 hlineto
          -35 -32 -39 -30 -42 -29 rrcurveto
          endchar
        </CharString>
        <CharString name="circumflexgrave">
          531 234 hstem
          66 267 vstem
          263 763 rmoveto
          -7 2 -40 -20 -1 -8 82 -100 rlineto
          7 hlineto
          29 23 rlineto
          -251 -129 rmoveto
          10 hlineto
          35 22 33 21 34 24 34 -24 34 -21 35 -22 rrcurveto
          9 hlineto
          16 34 -41 29 -40 30 -36 32 rlinecurve
          -23 hlineto
          -35 -32 -39 -30 -42 -29 rrcurveto
          endchar
        </CharString>
        <CharString name="circumflexhookabove">
          761 41 hstem
          303 46 vstem
          289 802 rmoveto
          -28 -29 -15 -25 -25 hvcurveto
          16 -24 rlineto
          15 18 21 8 16 hhcurveto
          15 10 -7 -13 -16 -17 -24 -30 -22 hvcurveto
          30 -52 33 17 -19 33 rlineto
          34 28 15 20 24 vvcurveto
          30 -26 23 -34 vhcurveto
          -207 -271 rmoveto
          10 hlineto
          35 22 33 21 34 24 34 -24 34 -21 35 -22 rrcurveto
          9 hlineto
          16 34 -41 29 -40 30 -36 32 rlinecurve
          -23 hlineto
          -35 -32 -39 -30 -42 -29 rrcurveto
          endchar
        </CharString>
        <CharString name="circumflextilde">
          531 254 hstem
          50 296 vstem
          346 760 rmoveto
          -23 25 rlineto
          -7 hlineto
          -25 -24 -15 -20 -15 hhcurveto
          -23 -82 30 5 -40 hvcurveto
          -9 -3 -58 -67 rlineto
          -7 vlineto
          23 -25 rlineto
          8 hlineto
          24 24 15 21 14 hhcurveto
          25 82 -31 -5 39 hvcurveto
          9 4 57 67 rlineto
          -264 -222 rmoveto
          10 hlineto
          35 22 33 21 34 24 34 -24 34 -21 35 -22 rrcurveto
          9 hlineto
          16 34 -41 29 -40 30 -36 32 rlinecurve
          -23 hlineto
          -35 -32 -39 -30 -42 -29 rrcurveto
          endchar
        </CharString>
        <CharString name="colon">
          -302 -5 93 177 93 hstem
          65 91 vstem
          112 358 rmoveto
          -29 -18 -19 -29 -28 16 -17 28 29 18 19 29 28 -17 17 -27 hvcurveto
          -270 vmoveto
          -29 -18 -19 -28 -29 16 -17 28 29 18 19 29 28 -17 17 -27 hvcurveto
          endchar
        </CharString>
        <CharString name="comma">
          -302 -68 -21 hstem
          103 66 vstem
          127 87 rmoveto
          -20 -5 -19 -10 -16 -11 rrcurveto
          -8 vlineto
          20 -13 11 -16 -18 vvcurveto
          -30 -19 -30 -36 -28 vhcurveto
          -7 vlineto
          27 -25 rlineto
          63 46 31 45 43 vvcurveto
          28 -15 22 -27 17 vhcurveto
          endchar
        </CharString>
        <CharString name="commaaccent">
          -531 -243 188 hstem
          101 62 vstem
          124 -55 rmoveto
          -19 -5 -18 -9 -15 -11 rrcurveto
          -7 vlineto
          18 -12 11 -15 -17 vvcurveto
          -28 -18 -28 -34 -26 vhcurveto
          -7 vlineto
          26 -23 rlineto
          59 43 29 42 40 vvcurveto
          26 -14 21 -25 16 vhcurveto
          endchar
        </CharString>
        <CharString name="copyright">
          154 -12 34 104 47 245 47 99 34 hstem
          46 34 115 58 351 33 vstem
          342 598 rmoveto
          -178 -118 -122 -183 -183 118 -122 178 178 117 122 183 183 -117 122 -178 hvcurveto
          -34 vmoveto
          156 106 -108 -163 -163 -106 -108 -156 -158 -104 108 163 163 104 108 158 hvcurveto
          15 -99 rmoveto
          -104 -58 -62 -109 -108 53 -60 103 30 32 8 15 28 hvcurveto
          5 45 -6 2 rlineto
          -14 -25 -33 -9 -27 hhcurveto
          -67 -35 43 83 79 35 40 67 27 30 -8 -15 22 hvcurveto
          5 2 12 45 rlineto
          14 -28 -33 9 -33 hhcurveto
          endchar
        </CharString>
        <CharString name="currency">
          -96 213 48 194 47 -3 -20 31 -20 hstemhm
          70 47 195 46 hintmask 00000000
          hintmask 10011100
          398 510 rmoveto
          hintmask 11001100
          -35 35 -9 -1 -63 -67 rlineto
          15 -21 -27 10 -29 hhcurveto
          -29 -28 -10 -17 -22 hvcurveto
          hintmask 10101100
          -64 68 rlineto
          -9 hlineto
          -33 -36 -1 -8 68 -63 rlineto
          -16 -22 -10 -27 -29 vvcurveto
          -29 10 -29 17 -22 vhcurveto
          -67 -63 -1 -8 37 -35 rlineto
          8 hlineto
          63 68 rlineto
          -16 21 28 -11 28 hhcurveto
          29 30 11 17 22 hvcurveto
          63 -67 8 -1 35 36 -1 9 -68 62 rlineto
          17 22 9 28 28 vvcurveto
          hintmask 10011100
          30 -9 27 -18 23 vhcurveto
          67 63 rlineto
          hintmask 11001100
          -184 -46 rmoveto
          56 42 -43 -54 -56 -42 -41 -56 -54 -43 41 56 54 43 43 54 hvcurveto
          endchar
        </CharString>
        <CharString name="d">
          35 -5 61 -35 -21 439 63 hstemhm
          91.5 71.5 281 76 hintmask 10111000
          90 498 rmoveto
          3 -348 rlineto
          hintmask 01111000
          -3 -150 rlineto
          hintmask 10111000
          -3 48 93 -2 34 hhcurveto
          164 91 97 174 151 -83 85 -152 hvcurveto
          -8 -446 rmoveto
          -18 -63 3 3 -33 hvcurveto
          -1 94 2 279 rlineto
          2 33 66 2 16 hhcurveto
          109 56 -59 -129 -133 -62 -62 -105 hvcurveto
          endchar
        </CharString>
        <CharString name="d.sups">
          -180 335 53 210 51 -8 -20 hstemhm
          31 66 133.5 65.5 hintmask 11011000
          299 801 rmoveto
          -71 -5 rlineto
          hintmask 10111000
          1 -155 rlineto
          hintmask 11011000
          4 -18 -15 4 -14 hhcurveto
          -93 -58 -57 -108 -93 49 -56 75 29 25 19 25 22 hvcurveto
          3 hlineto
          -33 7 16 -13 26 hhcurveto
          18 15 5 10 14 hvcurveto
          8 40 -5 4 rlineto
          -5 -8 -7 -1 -5 hhcurveto
          -11 -6 8 19 hvcurveto
          -116 185 rmoveto
          17 16 -3 -5 16 hvcurveto
          3 -167 rlineto
          -23 -20 -22 -12 -23 hhcurveto
          -42 -28 35 70 72 29 33 54 hvcurveto
          endchar
        </CharString>
        <CharString name="dagger">
          -49 -73 -21 24 -21 439 55 182 -20 25 -20 hstemhm
          212 56 hintmask 01101100
          436 348 rmoveto
          5 49 -7 6 rlineto
          -166 hlineto
          hintmask 10110100
          1 182 -4 5 -53 -5 rlineto
          -182 -165 vlineto
          -5 -49 6 -6 rlineto
          164 -435 hlineto
          6 -7 rlineto
          hintmask 01101100
          50 3 rlineto
          378 vlineto
          61 vlineto
          endchar
        </CharString>
        <CharString name="daggerdbl">
          -49 -73 -21 24 -21 175 55 214 56 176 -20 25 -20 hstemhm
          212 56 hintmask 01110110
          434 139 rmoveto
          -166 148 hlineto
          66 168 vlineto
          5 50 -7 6 rlineto
          -166 hlineto
          hintmask 10111010
          1 176 -4 5 -53 -5 rlineto
          -176 -165 vlineto
          -5 -49 6 -7 rlineto
          164 -214 -165 hlineto
          -5 -49 6 -6 rlineto
          164 -171 hlineto
          6 -7 rlineto
          hintmask 01110110
          50 3 rlineto
          175 168 vlineto
          5 49 rlineto
          endchar
        </CharString>
        <CharString name="dcaron">
          35 -5 61 -35 -21 439 63 hstemhm
          91.5 72 280.5 77 hintmask 10111000
          279 562 rmoveto
          43 51 40 44 39 39 -22 32 rcurveline
          -10 hlineto
          -37 -36 -34 -34 -31 -34 -30 34 -34 34 -38 36 rrcurveto
          -9 hlineto
          -22 -32 42 -41 40 -45 39 -48 rlinecurve
          -165 -64 rmoveto
          3 -348 rlineto
          hintmask 01111000
          -3 -150 rlineto
          hintmask 10111000
          -3 48 93 -2 34 hhcurveto
          164 92 97 174 151 -84 85 -152 hvcurveto
          -8 -446 rmoveto
          -18 -62 3 3 -33 hvcurveto
          -2 94 3 279 rlineto
          2 33 65 2 17 hhcurveto
          108 56 -59 -129 -133 -62 -62 -105 hvcurveto
          endchar
        </CharString>
        <CharString name="dcroat">
          35 -5 61 -35 -21 439 63 120 52 hstemhm
          91.5 72 280.5 77 hintmask 10111100
          126 622 rmoveto
          283 hlineto
          5 47 -6 5 rlineto
          -283 hlineto
          -5 -46 rlineto
          -30 -130 rmoveto
          3 -348 rlineto
          hintmask 01111100
          -3 -150 rlineto
          hintmask 10111100
          -3 48 93 -2 34 hhcurveto
          164 92 97 174 151 -84 85 -152 hvcurveto
          -8 -446 rmoveto
          -18 -62 3 3 -33 hvcurveto
          -2 94 3 279 rlineto
          2 33 65 2 17 hhcurveto
          108 56 -59 -129 -133 -62 -62 -105 hvcurveto
          endchar
        </CharString>
        <CharString name="degree">
          -238 398 40 170 39 hstem
          20 40 173 40 vstem
          147 647 rmoveto
          -71 -56 -54 -70 -70 56 -55 71 70 56 55 70 70 -56 54 -70 hvcurveto
          -1 -39 rmoveto
          48 39 -38 -47 -47 -39 -38 -48 -47 -39 38 47 47 39 38 47 hvcurveto
          endchar
        </CharString>
        <CharString name="dieresis">
          562 89 hstem
          73 87 70 87 vstem
          118 651 rmoveto
          -28 -17 -18 -27 -27 15 -17 27 28 17 19 28 26 -16 16 -26 hvcurveto
          157 hmoveto
          -28 -17 -18 -27 -27 15 -17 27 28 17 19 28 26 -16 16 -26 hvcurveto
          endchar
        </CharString>
        <CharString name="dieresis.i">
          562 89 hstem
          87 87 41 87 vstem
          132 651 rmoveto
          -28 -17 -18 -27 -27 15 -17 27 28 17 19 28 26 -16 16 -26 hvcurveto
          128 hmoveto
          -28 -17 -18 -27 -27 15 -17 27 28 17 19 28 26 -16 16 -26 hvcurveto
          endchar
        </CharString>
        <CharString name="dieresisacute">
          545 84 hstem
          74 83 74 83 vstem
          295 789 rmoveto
          -8 3 -74 -27 -65 -21 -68 -20 rlinecurve
          7 -38 9 -5 68 15 67 15 72 19 rlinecurve
          5 9 rlineto
          -191 -110 rmoveto
          -27 -16 -17 -26 -26 15 -15 25 27 16 17 26 25 -16 16 -24 hvcurveto
          157 hmoveto
          -27 -16 -17 -26 -26 16 -15 24 27 16 17 26 25 -15 16 -25 hvcurveto
          endchar
        </CharString>
        <CharString name="dieresiscaron">
          545 84 81 -20 hstem
          74 83 74 83 vstem
          307 776 rmoveto
          -10 hlineto
          -35 -22 -33 -22 -34 -22 -34 22 -33 22 -36 22 rrcurveto
          -9 hlineto
          -16 -34 41 -29 40 -31 36 -30 rlinecurve
          23 hlineto
          35 30 39 31 42 29 rrcurveto
          -206 -113 rmoveto
          -27 -16 -17 -26 -26 15 -15 25 27 16 17 26 25 -16 16 -24 hvcurveto
          157 hmoveto
          -27 -16 -17 -26 -26 16 -15 24 27 16 17 26 25 -15 16 -25 hvcurveto
          endchar
        </CharString>
        <CharString name="dieresisgrave">
          545 84 hstem
          74 83 74 83 vstem
          92 789 rmoveto
          -12 -50 5 -9 72 -19 66 -15 68 -15 rlinecurve
          8 5 9 38 -68 20 -67 21 -72 27 rlinecurve
          16 -163 rmoveto
          -27 -16 -17 -26 -26 15 -15 25 27 16 17 26 25 -16 16 -24 hvcurveto
          157 hmoveto
          -27 -16 -17 -26 -26 16 -15 24 27 16 17 26 25 -15 16 -25 hvcurveto
          endchar
        </CharString>
        <CharString name="dieresismacron">
          545 84 66 53 -47 -20 hstemhm
          74 83 74 83 hintmask 01011000
          330 742 rmoveto
          -6 6 rlineto
          -259 hlineto
          hintmask 00111000
          -5 -47 7 -6 rlineto
          hintmask 11011000
          258 hlineto
          -208 -66 rmoveto
          -27 -16 -17 -26 -26 15 -15 25 27 16 17 26 25 -16 16 -24 hvcurveto
          157 hmoveto
          -27 -16 -17 -26 -26 16 -15 24 27 16 17 26 25 -15 16 -25 hvcurveto
          endchar
        </CharString>
        <CharString name="divide">
          -51 48 87 102 56 105 88 hstem
          216 86 vstem
          261 486 rmoveto
          -28 -17 -18 -27 -26 15 -17 27 27 17 18 28 26 -15 16 -26 hvcurveto
          199 -199 rmoveto
          -7 6 rlineto
          -407 hlineto
          -5 -50 6 -6 rlineto
          408 hlineto
          -194 -102 rmoveto
          -28 -17 -17 -27 -27 15 -16 27 27 17 18 28 25 -15 16 -26 hvcurveto
          endchar
        </CharString>
        <CharString name="divisionslash">
          -244 -113 8 774 9 hstem
          22 266 vstem
          288 669 rmoveto
          -7 9 rlineto
          -54 hlineto
          -205 -783 6 -8 rlineto
          55 hlineto
          endchar
        </CharString>
        <CharString name="dollar">
          -97 -129 7 118 52 -31 -21 22 -21 503 -20 154 8 hstemhm
          61 65 44.5 47.5 -31.5 47 -27.5 47 -31.5 48 40.5 65 hintmask 1001111010010000
          375 139 rmoveto
          75 -65 33 -64 27 vhcurveto
          hintmask 1001111001010000
          14 172 rlineto
          hintmask 1001111000110000
          26 -5 25 -11 26 -20 11 3 rcurveline
          12 64 -33 13 -33 7 -30 3 rlinecurve
          11 134 -9 8 rlineto
          -39 hlineto
          -11 -142 rlineto
          -96 -7 -59 -58 -72 vvcurveto
          -77 68 -32 65 -28 vhcurveto
          hintmask 1100111010010000
          -15 -178 -38 5 -44 17 -32 31 rlinecurve
          -9 -3 -8 -70 rlineto
          hintmask 1010111100010000
          40 -20 47 -10 40 -2 -9 -118 rcurveline
          8 -7 rlineto
          39 hlineto
          hintmask 1001111100010000
          10 126 rlineto
          hintmask 1001111010010000
          97 10 55 63 69 vvcurveto
          -249 232 rmoveto
          34 31 37 55 6 vhcurveto
          hintmask 1001111001010000
          -12 -154 rlineto
          hintmask 1001111010010000
          -42 19 -32 22 36 vvcurveto
          114 -166 rmoveto
          hintmask 1100111010010000
          40 -19 30 -21 -37 vvcurveto
          -36 -32 -35 -51 -9 vhcurveto
          endchar
        </CharString>
        <CharString name="dotaccent">
          -287 570 93 hstem
          76 91 vstem
          123 663 rmoveto
          -29 -18 -19 -28 -29 16 -17 28 29 18 19 29 28 -16 17 -28 hvcurveto
          endchar
        </CharString>
        <CharString name="dotbelowcomb">
          -531 -163 93 hstem
          70 91 vstem
          118 -70 rmoveto
          -30 -18 -19 -28 -29 17 -17 28 28 18 19 30 27 -16 17 -27 hvcurveto
          endchar
        </CharString>
        <CharString name="dotlessi">
          -272 21 -21 498 -20 hstem
          91.5 72.5 vstem
          162 156 rmoveto
          4 342 rlineto
          -76 hlineto
          3 -348 -3 -150 rlineto
          75 hlineto
          endchar
        </CharString>
        <CharString name="dotlessj">
          -242 440.5 57.5 hstem
          125 69 vstem
          197 498 rmoveto
          -168 hlineto
          -6 -52 6 -6 94 1 2 -285 rlineto
          -64 vlineto
          -57 -24 -34 -62 -35 vhcurveto
          -7 vlineto
          30 -39 rlineto
          94 46 31 46 81 vvcurveto
          72 vlineto
          endchar
        </CharString>
        <CharString name="down">
          -120 74 284 hstem
          64 284 vstem
          206 74 rmoveto
          142 284 rlineto
          -284 hlineto
          endchar
        </CharString>
        <CharString name="e">
          -96 0 60.5 164 61 152 60.5 hstem
          91.5 71 vstem
          394 64 rmoveto
          -133 -4 -98 1 -1 95 1 68 93 1 92 -3 6 59 -5 7 -87 -3 -99 1 1 151 104 1 126 -4 6 58 -5 6 rlineto
          -305 hlineto
          3 -348 -3 -150 rlineto
          303 hlineto
          7 58 rlineto
          endchar
        </CharString>
        <CharString name="e.sups">
          -223 331 55 99 36 79 49 hstem
          31 66 128 61 vstem
          168 649 rmoveto
          -84 -53 -60 -101 -96 52 -61 91 33 35 10 12 28 hvcurveto
          7 52 -6 4 rlineto
          -16 -29 -33 -7 -29 hhcurveto
          -54 -27 35 64 -2 hvcurveto
          181 hlineto
          6 9 rlineto
          1 10 1 14 8 vvcurveto
          76 -43 47 -75 vhcurveto
          -69 -128 rmoveto
          51 6 23 28 38 hhcurveto
          35 24 -24 -42 -3 0 -2 -1 -8 hvcurveto
          endchar
        </CharString>
        <CharString name="eacute">
          -96 0 60.5 164 61 152 60.5 94 -20 hstem
          91.5 73 vstem
          191 560 rmoveto
          9 -1 57 40 54 41 59 46 rlinecurve
          2 8 -30 42 -9 1 -56 -55 -53 -45 -55 -45 rlinecurve
          225 -528 rmoveto
          -134 -4 -96 1 -2 95 1 68 93 1 93 -3 5 59 -4 7 -87 -3 -99 1 1 151 103 1 126 -4 6 58 -5 6 rlineto
          -305 hlineto
          3 -348 -3 -150 rlineto
          303 hlineto
          7 58 rlineto
          endchar
        </CharString>
        <CharString name="ebreve">
          -96 0 60.5 164 61 152 60.5 69 57 58 29 0 -20 hstemhm
          91.5 73 hintmask 11110110
          241 567 rmoveto
          hintmask 11111010
          72 40 43 72 17 hvcurveto
          -23 29 rlineto
          -12 hlineto
          -59 -13 -30 -28 -49 hhcurveto
          -48 -31 28 59 -13 hvcurveto
          -12 hlineto
          -22 -29 rlineto
          hintmask 11110110
          -70 14 39 -45 71 hhcurveto
          153 -503 rmoveto
          -134 -4 -96 1 -2 95 1 68 93 1 93 -3 5 59 -4 7 -87 -3 -99 1 1 151 103 1 126 -4 6 58 -5 6 rlineto
          -305 hlineto
          3 -348 -3 -150 rlineto
          303 hlineto
          7 58 rlineto
          endchar
        </CharString>
        <CharString name="ecaron">
          -96 0 60.5 164 61 152 60.5 hstem
          91.5 73 vstem
          254 562 rmoveto
          43 51 40 44 39 39 -22 32 rcurveline
          -10 hlineto
          -37 -36 -34 -34 -31 -34 -30 34 -34 34 -38 36 rrcurveto
          -9 hlineto
          -22 -32 42 -41 40 -45 39 -48 rlinecurve
          164 -498 rmoveto
          -134 -4 -96 1 -2 95 1 68 93 1 93 -3 5 59 -4 7 -87 -3 -99 1 1 151 103 1 126 -4 6 58 -5 6 rlineto
          -305 hlineto
          3 -348 -3 -150 rlineto
          303 hlineto
          7 58 rlineto
          endchar
        </CharString>
</ttFont>
